G04 EAGLE Gerber RS-274X export*
G75*
%MOMM*%
%FSLAX34Y34*%
%LPD*%
%INTop Copper*%
%IPPOS*%
%AMOC8*
5,1,8,0,0,1.08239X$1,22.5*%
G01*
%ADD10C,1.208000*%
%ADD11R,1.000000X1.000000*%
%ADD12R,0.700000X1.000000*%
%ADD13C,0.808000*%
%ADD14C,0.762000*%
%ADD15C,0.756400*%
%ADD16C,0.304800*%
%ADD17C,0.203200*%
%ADD18C,0.609600*%

G36*
X206205Y23373D02*
X206205Y23373D01*
X206234Y23370D01*
X206345Y23393D01*
X206457Y23409D01*
X206484Y23421D01*
X206513Y23426D01*
X206613Y23478D01*
X206717Y23525D01*
X206739Y23544D01*
X206765Y23557D01*
X206847Y23635D01*
X206934Y23708D01*
X206950Y23733D01*
X206971Y23753D01*
X207029Y23851D01*
X207091Y23945D01*
X207100Y23973D01*
X207115Y23998D01*
X207143Y24108D01*
X207177Y24216D01*
X207178Y24246D01*
X207185Y24274D01*
X207182Y24387D01*
X207184Y24500D01*
X207177Y24529D01*
X207176Y24558D01*
X207141Y24666D01*
X207113Y24775D01*
X207098Y24801D01*
X207089Y24829D01*
X207043Y24892D01*
X206967Y25020D01*
X206922Y25063D01*
X206894Y25102D01*
X191769Y40226D01*
X191769Y65318D01*
X191757Y65405D01*
X191754Y65493D01*
X191737Y65545D01*
X191729Y65600D01*
X191694Y65680D01*
X191667Y65763D01*
X191639Y65802D01*
X191613Y65859D01*
X191517Y65973D01*
X191472Y66036D01*
X190019Y67489D01*
X188975Y70010D01*
X188975Y72738D01*
X190019Y75259D01*
X191949Y77189D01*
X194470Y78233D01*
X197198Y78233D01*
X199719Y77189D01*
X201212Y75696D01*
X201236Y75678D01*
X201255Y75656D01*
X201349Y75593D01*
X201439Y75525D01*
X201467Y75514D01*
X201491Y75498D01*
X201599Y75464D01*
X201705Y75423D01*
X201734Y75421D01*
X201762Y75412D01*
X201876Y75409D01*
X201988Y75400D01*
X202017Y75406D01*
X202046Y75405D01*
X202156Y75434D01*
X202267Y75456D01*
X202293Y75469D01*
X202321Y75477D01*
X202419Y75534D01*
X202519Y75587D01*
X202541Y75607D01*
X202566Y75622D01*
X202643Y75704D01*
X202725Y75783D01*
X202740Y75808D01*
X202760Y75829D01*
X202812Y75930D01*
X202869Y76028D01*
X202876Y76056D01*
X202890Y76082D01*
X202903Y76160D01*
X202939Y76303D01*
X202937Y76366D01*
X202945Y76413D01*
X202945Y78486D01*
X202937Y78544D01*
X202939Y78602D01*
X202917Y78684D01*
X202905Y78768D01*
X202882Y78821D01*
X202867Y78877D01*
X202824Y78950D01*
X202789Y79027D01*
X202751Y79072D01*
X202722Y79122D01*
X202660Y79180D01*
X202606Y79244D01*
X202557Y79276D01*
X202514Y79316D01*
X202439Y79355D01*
X202369Y79402D01*
X202313Y79419D01*
X202261Y79446D01*
X202193Y79457D01*
X202098Y79487D01*
X201998Y79490D01*
X201930Y79501D01*
X201074Y79501D01*
X198553Y80545D01*
X196623Y82475D01*
X195579Y84996D01*
X195579Y87724D01*
X196623Y90245D01*
X198553Y92175D01*
X201074Y93219D01*
X203802Y93219D01*
X206323Y92175D01*
X208253Y90245D01*
X209297Y87724D01*
X209297Y85670D01*
X209309Y85584D01*
X209312Y85496D01*
X209329Y85444D01*
X209337Y85389D01*
X209372Y85309D01*
X209399Y85226D01*
X209427Y85186D01*
X209453Y85129D01*
X209549Y85016D01*
X209594Y84952D01*
X211075Y83472D01*
X211075Y41982D01*
X211087Y41896D01*
X211090Y41808D01*
X211107Y41755D01*
X211115Y41701D01*
X211150Y41621D01*
X211177Y41538D01*
X211205Y41498D01*
X211231Y41441D01*
X211327Y41328D01*
X211372Y41264D01*
X217540Y35096D01*
X217610Y35044D01*
X217674Y34984D01*
X217723Y34958D01*
X217768Y34925D01*
X217849Y34894D01*
X217927Y34854D01*
X217975Y34846D01*
X218033Y34824D01*
X218181Y34812D01*
X218258Y34799D01*
X370006Y34799D01*
X370035Y34803D01*
X370064Y34800D01*
X370175Y34823D01*
X370287Y34839D01*
X370314Y34851D01*
X370343Y34856D01*
X370443Y34908D01*
X370547Y34955D01*
X370569Y34974D01*
X370595Y34987D01*
X370677Y35065D01*
X370764Y35138D01*
X370780Y35163D01*
X370801Y35183D01*
X370859Y35281D01*
X370921Y35375D01*
X370930Y35403D01*
X370945Y35428D01*
X370973Y35538D01*
X371007Y35646D01*
X371008Y35676D01*
X371015Y35704D01*
X371012Y35817D01*
X371014Y35930D01*
X371007Y35959D01*
X371006Y35988D01*
X370971Y36096D01*
X370943Y36205D01*
X370928Y36231D01*
X370919Y36259D01*
X370873Y36322D01*
X370797Y36450D01*
X370752Y36493D01*
X370724Y36532D01*
X358139Y49116D01*
X358139Y61508D01*
X358127Y61595D01*
X358124Y61683D01*
X358107Y61735D01*
X358099Y61790D01*
X358064Y61870D01*
X358037Y61953D01*
X358009Y61992D01*
X357983Y62049D01*
X357887Y62163D01*
X357842Y62226D01*
X356389Y63679D01*
X355345Y66200D01*
X355345Y68928D01*
X356389Y71449D01*
X358319Y73379D01*
X360840Y74423D01*
X363568Y74423D01*
X366089Y73379D01*
X368019Y71449D01*
X369063Y68928D01*
X369063Y66200D01*
X368019Y63679D01*
X366566Y62226D01*
X366514Y62157D01*
X366454Y62093D01*
X366428Y62043D01*
X366395Y61999D01*
X366364Y61917D01*
X366324Y61840D01*
X366316Y61792D01*
X366294Y61734D01*
X366282Y61586D01*
X366269Y61508D01*
X366269Y52904D01*
X366281Y52818D01*
X366284Y52730D01*
X366301Y52678D01*
X366309Y52623D01*
X366344Y52543D01*
X366371Y52460D01*
X366399Y52420D01*
X366425Y52363D01*
X366521Y52250D01*
X366566Y52186D01*
X378322Y40430D01*
X378392Y40378D01*
X378456Y40318D01*
X378505Y40292D01*
X378550Y40259D01*
X378631Y40228D01*
X378709Y40188D01*
X378757Y40180D01*
X378815Y40158D01*
X378963Y40146D01*
X379040Y40133D01*
X462208Y40133D01*
X462294Y40145D01*
X462382Y40148D01*
X462434Y40165D01*
X462489Y40173D01*
X462569Y40208D01*
X462652Y40235D01*
X462692Y40263D01*
X462749Y40289D01*
X462862Y40385D01*
X462926Y40430D01*
X472534Y50039D01*
X482760Y50039D01*
X483718Y49080D01*
X483742Y49063D01*
X483761Y49040D01*
X483855Y48977D01*
X483945Y48909D01*
X483973Y48899D01*
X483997Y48883D01*
X484105Y48848D01*
X484211Y48808D01*
X484240Y48806D01*
X484268Y48797D01*
X484382Y48794D01*
X484494Y48785D01*
X484523Y48790D01*
X484552Y48790D01*
X484662Y48818D01*
X484773Y48840D01*
X484799Y48854D01*
X484827Y48861D01*
X484925Y48919D01*
X485025Y48971D01*
X485047Y48992D01*
X485072Y49007D01*
X485149Y49089D01*
X485231Y49167D01*
X485246Y49193D01*
X485266Y49214D01*
X485318Y49315D01*
X485375Y49413D01*
X485382Y49441D01*
X485396Y49467D01*
X485409Y49544D01*
X485445Y49688D01*
X485443Y49751D01*
X485451Y49798D01*
X485451Y61517D01*
X487237Y63303D01*
X488420Y63303D01*
X488478Y63311D01*
X488536Y63309D01*
X488618Y63331D01*
X488702Y63343D01*
X488755Y63366D01*
X488811Y63381D01*
X488884Y63424D01*
X488961Y63459D01*
X489006Y63497D01*
X489056Y63526D01*
X489114Y63588D01*
X489178Y63642D01*
X489210Y63691D01*
X489250Y63734D01*
X489289Y63809D01*
X489336Y63879D01*
X489353Y63935D01*
X489380Y63987D01*
X489391Y64055D01*
X489421Y64150D01*
X489424Y64250D01*
X489435Y64318D01*
X489435Y75068D01*
X504074Y89706D01*
X504091Y89730D01*
X504114Y89749D01*
X504177Y89843D01*
X504245Y89933D01*
X504255Y89961D01*
X504271Y89985D01*
X504306Y90093D01*
X504346Y90199D01*
X504348Y90228D01*
X504357Y90256D01*
X504360Y90370D01*
X504369Y90482D01*
X504364Y90511D01*
X504364Y90540D01*
X504336Y90650D01*
X504314Y90761D01*
X504300Y90787D01*
X504293Y90815D01*
X504235Y90913D01*
X504183Y91013D01*
X504162Y91035D01*
X504147Y91060D01*
X504065Y91137D01*
X503987Y91219D01*
X503961Y91234D01*
X503940Y91254D01*
X503839Y91306D01*
X503741Y91363D01*
X503713Y91370D01*
X503687Y91384D01*
X503610Y91397D01*
X503466Y91433D01*
X503403Y91431D01*
X503356Y91439D01*
X503080Y91439D01*
X500559Y92483D01*
X499360Y93682D01*
X499291Y93734D01*
X499227Y93794D01*
X499177Y93820D01*
X499133Y93853D01*
X499051Y93884D01*
X498974Y93924D01*
X498926Y93932D01*
X498868Y93954D01*
X498720Y93966D01*
X498642Y93979D01*
X491196Y93979D01*
X491109Y93967D01*
X491021Y93964D01*
X490969Y93947D01*
X490914Y93939D01*
X490834Y93904D01*
X490751Y93877D01*
X490712Y93849D01*
X490655Y93823D01*
X490541Y93727D01*
X490478Y93682D01*
X489025Y92229D01*
X486504Y91185D01*
X483776Y91185D01*
X481255Y92229D01*
X479325Y94159D01*
X478281Y96680D01*
X478281Y99408D01*
X479325Y101929D01*
X481255Y103859D01*
X483776Y104903D01*
X486504Y104903D01*
X489025Y103859D01*
X490478Y102406D01*
X490547Y102354D01*
X490611Y102294D01*
X490661Y102268D01*
X490705Y102235D01*
X490787Y102204D01*
X490864Y102164D01*
X490912Y102156D01*
X490970Y102134D01*
X491118Y102122D01*
X491196Y102109D01*
X498134Y102109D01*
X498221Y102121D01*
X498309Y102124D01*
X498361Y102141D01*
X498416Y102149D01*
X498496Y102184D01*
X498579Y102211D01*
X498618Y102239D01*
X498675Y102265D01*
X498789Y102361D01*
X498852Y102406D01*
X500559Y104113D01*
X503080Y105157D01*
X505808Y105157D01*
X506087Y105041D01*
X506199Y105012D01*
X506308Y104978D01*
X506336Y104977D01*
X506363Y104970D01*
X506477Y104973D01*
X506592Y104970D01*
X506619Y104978D01*
X506647Y104978D01*
X506756Y105013D01*
X506867Y105042D01*
X506891Y105056D01*
X506918Y105065D01*
X507013Y105129D01*
X507112Y105188D01*
X507131Y105208D01*
X507154Y105223D01*
X507228Y105311D01*
X507306Y105395D01*
X507319Y105420D01*
X507337Y105441D01*
X507383Y105546D01*
X507436Y105648D01*
X507440Y105673D01*
X507452Y105701D01*
X507489Y105964D01*
X507491Y105979D01*
X507491Y113444D01*
X507483Y113502D01*
X507485Y113560D01*
X507463Y113642D01*
X507451Y113726D01*
X507428Y113779D01*
X507413Y113835D01*
X507370Y113908D01*
X507335Y113985D01*
X507297Y114030D01*
X507268Y114080D01*
X507206Y114138D01*
X507152Y114202D01*
X507103Y114234D01*
X507060Y114274D01*
X506985Y114313D01*
X506915Y114360D01*
X506859Y114377D01*
X506807Y114404D01*
X506739Y114415D01*
X506644Y114445D01*
X506544Y114448D01*
X506476Y114459D01*
X505221Y114459D01*
X503435Y116245D01*
X503435Y117428D01*
X503427Y117486D01*
X503429Y117544D01*
X503407Y117626D01*
X503395Y117710D01*
X503372Y117763D01*
X503357Y117819D01*
X503314Y117892D01*
X503279Y117969D01*
X503241Y118014D01*
X503212Y118064D01*
X503150Y118122D01*
X503096Y118186D01*
X503047Y118218D01*
X503004Y118258D01*
X502929Y118297D01*
X502859Y118344D01*
X502803Y118361D01*
X502751Y118388D01*
X502683Y118399D01*
X502588Y118429D01*
X502488Y118432D01*
X502420Y118443D01*
X495060Y118443D01*
X489197Y124306D01*
X489197Y181206D01*
X489189Y181264D01*
X489191Y181322D01*
X489169Y181404D01*
X489157Y181488D01*
X489134Y181541D01*
X489119Y181597D01*
X489076Y181670D01*
X489041Y181747D01*
X489003Y181792D01*
X488974Y181842D01*
X488912Y181900D01*
X488858Y181964D01*
X488809Y181996D01*
X488766Y182036D01*
X488691Y182075D01*
X488621Y182122D01*
X488565Y182139D01*
X488513Y182166D01*
X488445Y182177D01*
X488350Y182207D01*
X488250Y182210D01*
X488182Y182221D01*
X486999Y182221D01*
X485213Y184007D01*
X485213Y196533D01*
X486999Y198319D01*
X499525Y198319D01*
X501044Y196799D01*
X501091Y196764D01*
X501131Y196722D01*
X501204Y196679D01*
X501271Y196629D01*
X501326Y196608D01*
X501376Y196578D01*
X501458Y196557D01*
X501537Y196527D01*
X501595Y196522D01*
X501652Y196508D01*
X501736Y196511D01*
X501820Y196504D01*
X501878Y196515D01*
X501936Y196517D01*
X502016Y196543D01*
X502099Y196560D01*
X502151Y196587D01*
X502207Y196605D01*
X502263Y196645D01*
X502351Y196691D01*
X502424Y196759D01*
X502480Y196799D01*
X503999Y198319D01*
X516525Y198319D01*
X518311Y196533D01*
X518311Y195350D01*
X518319Y195292D01*
X518317Y195234D01*
X518339Y195152D01*
X518351Y195068D01*
X518374Y195015D01*
X518389Y194959D01*
X518432Y194886D01*
X518467Y194809D01*
X518505Y194764D01*
X518534Y194714D01*
X518596Y194656D01*
X518650Y194592D01*
X518699Y194560D01*
X518742Y194520D01*
X518817Y194481D01*
X518887Y194434D01*
X518943Y194417D01*
X518995Y194390D01*
X519063Y194379D01*
X519158Y194349D01*
X519258Y194346D01*
X519326Y194335D01*
X521852Y194335D01*
X527305Y188882D01*
X527305Y185126D01*
X527317Y185039D01*
X527320Y184951D01*
X527337Y184899D01*
X527345Y184844D01*
X527380Y184764D01*
X527407Y184681D01*
X527435Y184642D01*
X527461Y184585D01*
X527557Y184471D01*
X527602Y184408D01*
X529055Y182955D01*
X530099Y180434D01*
X530099Y177706D01*
X529055Y175185D01*
X527125Y173255D01*
X524604Y172211D01*
X523471Y172211D01*
X523442Y172207D01*
X523413Y172210D01*
X523302Y172187D01*
X523190Y172171D01*
X523163Y172159D01*
X523134Y172154D01*
X523034Y172101D01*
X522931Y172055D01*
X522908Y172036D01*
X522882Y172023D01*
X522800Y171945D01*
X522714Y171872D01*
X522697Y171847D01*
X522676Y171827D01*
X522619Y171729D01*
X522556Y171635D01*
X522547Y171607D01*
X522532Y171581D01*
X522504Y171472D01*
X522470Y171364D01*
X522469Y171334D01*
X522462Y171306D01*
X522466Y171193D01*
X522463Y171080D01*
X522470Y171051D01*
X522471Y171022D01*
X522506Y170914D01*
X522535Y170805D01*
X522550Y170779D01*
X522559Y170751D01*
X522604Y170687D01*
X522680Y170560D01*
X522715Y170527D01*
X523767Y167988D01*
X523767Y165260D01*
X522723Y162739D01*
X520793Y160809D01*
X518272Y159765D01*
X515544Y159765D01*
X513023Y160809D01*
X511570Y162262D01*
X511501Y162314D01*
X511437Y162374D01*
X511387Y162400D01*
X511343Y162433D01*
X511261Y162464D01*
X511184Y162504D01*
X511136Y162512D01*
X511078Y162534D01*
X510930Y162546D01*
X510852Y162559D01*
X498342Y162559D01*
X498284Y162551D01*
X498226Y162553D01*
X498144Y162531D01*
X498060Y162519D01*
X498007Y162496D01*
X497951Y162481D01*
X497878Y162438D01*
X497801Y162403D01*
X497756Y162365D01*
X497706Y162336D01*
X497648Y162274D01*
X497584Y162220D01*
X497552Y162171D01*
X497512Y162128D01*
X497473Y162053D01*
X497426Y161983D01*
X497409Y161927D01*
X497382Y161875D01*
X497371Y161807D01*
X497341Y161712D01*
X497338Y161612D01*
X497327Y161544D01*
X497327Y128094D01*
X497339Y128008D01*
X497342Y127920D01*
X497359Y127868D01*
X497367Y127813D01*
X497402Y127733D01*
X497429Y127650D01*
X497457Y127610D01*
X497483Y127553D01*
X497579Y127440D01*
X497624Y127376D01*
X498130Y126870D01*
X498200Y126818D01*
X498264Y126758D01*
X498313Y126732D01*
X498358Y126699D01*
X498439Y126668D01*
X498517Y126628D01*
X498565Y126620D01*
X498623Y126598D01*
X498771Y126586D01*
X498848Y126573D01*
X502420Y126573D01*
X502478Y126581D01*
X502536Y126579D01*
X502618Y126601D01*
X502702Y126613D01*
X502755Y126636D01*
X502811Y126651D01*
X502884Y126694D01*
X502961Y126729D01*
X503006Y126767D01*
X503056Y126796D01*
X503114Y126858D01*
X503178Y126912D01*
X503210Y126961D01*
X503250Y127004D01*
X503289Y127079D01*
X503336Y127149D01*
X503353Y127205D01*
X503380Y127257D01*
X503391Y127325D01*
X503421Y127420D01*
X503424Y127520D01*
X503435Y127588D01*
X503435Y128771D01*
X505221Y130557D01*
X517747Y130557D01*
X519266Y129037D01*
X519313Y129002D01*
X519353Y128960D01*
X519426Y128917D01*
X519493Y128867D01*
X519548Y128846D01*
X519598Y128816D01*
X519680Y128795D01*
X519759Y128765D01*
X519817Y128760D01*
X519874Y128746D01*
X519958Y128749D01*
X520042Y128742D01*
X520100Y128753D01*
X520158Y128755D01*
X520238Y128781D01*
X520321Y128798D01*
X520373Y128825D01*
X520429Y128843D01*
X520485Y128883D01*
X520573Y128929D01*
X520646Y128997D01*
X520702Y129037D01*
X522221Y130557D01*
X534747Y130557D01*
X536533Y128771D01*
X536533Y127762D01*
X536541Y127704D01*
X536539Y127646D01*
X536561Y127564D01*
X536573Y127480D01*
X536596Y127427D01*
X536611Y127371D01*
X536654Y127298D01*
X536689Y127221D01*
X536727Y127176D01*
X536756Y127126D01*
X536818Y127068D01*
X536872Y127004D01*
X536921Y126972D01*
X536964Y126932D01*
X537039Y126893D01*
X537109Y126846D01*
X537165Y126829D01*
X537217Y126802D01*
X537285Y126791D01*
X537380Y126761D01*
X537480Y126758D01*
X537548Y126747D01*
X540926Y126747D01*
X545847Y121826D01*
X545847Y118070D01*
X545859Y117983D01*
X545862Y117895D01*
X545879Y117843D01*
X545887Y117788D01*
X545922Y117708D01*
X545949Y117625D01*
X545977Y117586D01*
X546003Y117529D01*
X546099Y117415D01*
X546144Y117352D01*
X547597Y115899D01*
X548641Y113378D01*
X548641Y110650D01*
X547597Y108129D01*
X545667Y106199D01*
X543146Y105155D01*
X540418Y105155D01*
X537897Y106199D01*
X535967Y108129D01*
X534923Y110650D01*
X534923Y113444D01*
X534915Y113502D01*
X534917Y113560D01*
X534895Y113642D01*
X534883Y113726D01*
X534860Y113779D01*
X534845Y113835D01*
X534802Y113908D01*
X534767Y113985D01*
X534729Y114030D01*
X534700Y114080D01*
X534638Y114138D01*
X534584Y114202D01*
X534535Y114234D01*
X534492Y114274D01*
X534417Y114313D01*
X534347Y114360D01*
X534291Y114377D01*
X534239Y114404D01*
X534171Y114415D01*
X534076Y114445D01*
X533976Y114448D01*
X533908Y114459D01*
X522221Y114459D01*
X520702Y115979D01*
X520655Y116014D01*
X520615Y116056D01*
X520542Y116099D01*
X520475Y116149D01*
X520420Y116170D01*
X520370Y116200D01*
X520288Y116221D01*
X520209Y116251D01*
X520151Y116256D01*
X520094Y116270D01*
X520010Y116267D01*
X519926Y116274D01*
X519868Y116263D01*
X519810Y116261D01*
X519730Y116235D01*
X519647Y116218D01*
X519595Y116191D01*
X519539Y116173D01*
X519483Y116133D01*
X519395Y116087D01*
X519322Y116019D01*
X519266Y115979D01*
X517747Y114459D01*
X516636Y114459D01*
X516578Y114451D01*
X516520Y114453D01*
X516438Y114431D01*
X516354Y114419D01*
X516301Y114396D01*
X516245Y114381D01*
X516172Y114338D01*
X516095Y114303D01*
X516050Y114265D01*
X516000Y114236D01*
X515942Y114174D01*
X515878Y114120D01*
X515846Y114071D01*
X515806Y114028D01*
X515767Y113953D01*
X515720Y113883D01*
X515703Y113827D01*
X515676Y113775D01*
X515665Y113707D01*
X515635Y113612D01*
X515632Y113512D01*
X515621Y113444D01*
X515621Y89756D01*
X497862Y71998D01*
X497810Y71928D01*
X497750Y71864D01*
X497724Y71815D01*
X497691Y71770D01*
X497660Y71689D01*
X497620Y71611D01*
X497612Y71563D01*
X497590Y71505D01*
X497578Y71357D01*
X497565Y71280D01*
X497565Y64318D01*
X497573Y64260D01*
X497571Y64202D01*
X497593Y64120D01*
X497605Y64036D01*
X497628Y63983D01*
X497643Y63927D01*
X497686Y63854D01*
X497721Y63777D01*
X497759Y63732D01*
X497788Y63682D01*
X497850Y63624D01*
X497904Y63560D01*
X497953Y63528D01*
X497996Y63488D01*
X498071Y63449D01*
X498141Y63402D01*
X498197Y63385D01*
X498249Y63358D01*
X498317Y63347D01*
X498412Y63317D01*
X498512Y63314D01*
X498580Y63303D01*
X499763Y63303D01*
X501282Y61783D01*
X501329Y61748D01*
X501369Y61706D01*
X501442Y61663D01*
X501509Y61613D01*
X501564Y61592D01*
X501614Y61562D01*
X501696Y61541D01*
X501775Y61511D01*
X501833Y61506D01*
X501890Y61492D01*
X501974Y61495D01*
X502058Y61488D01*
X502116Y61499D01*
X502174Y61501D01*
X502254Y61527D01*
X502337Y61544D01*
X502389Y61571D01*
X502445Y61589D01*
X502501Y61629D01*
X502589Y61675D01*
X502662Y61743D01*
X502718Y61783D01*
X504240Y63306D01*
X504344Y63327D01*
X504456Y63343D01*
X504483Y63355D01*
X504512Y63360D01*
X504612Y63413D01*
X504715Y63459D01*
X504738Y63478D01*
X504764Y63491D01*
X504846Y63569D01*
X504932Y63642D01*
X504949Y63667D01*
X504970Y63687D01*
X505027Y63785D01*
X505090Y63879D01*
X505099Y63907D01*
X505114Y63933D01*
X505142Y64042D01*
X505176Y64150D01*
X505177Y64180D01*
X505184Y64208D01*
X505180Y64321D01*
X505183Y64434D01*
X505176Y64463D01*
X505175Y64492D01*
X505140Y64600D01*
X505111Y64709D01*
X505096Y64735D01*
X505087Y64763D01*
X505042Y64827D01*
X505004Y64891D01*
X503935Y67470D01*
X503935Y70198D01*
X504979Y72719D01*
X506909Y74649D01*
X509430Y75693D01*
X512158Y75693D01*
X514679Y74649D01*
X516132Y73196D01*
X516201Y73144D01*
X516265Y73084D01*
X516315Y73058D01*
X516359Y73025D01*
X516441Y72994D01*
X516518Y72954D01*
X516566Y72946D01*
X516624Y72924D01*
X516772Y72912D01*
X516850Y72899D01*
X536100Y72899D01*
X541596Y67402D01*
X541665Y67350D01*
X541728Y67291D01*
X541778Y67265D01*
X541824Y67231D01*
X541904Y67200D01*
X541980Y67161D01*
X542036Y67150D01*
X542089Y67130D01*
X542175Y67123D01*
X542259Y67106D01*
X542316Y67111D01*
X542373Y67106D01*
X542457Y67123D01*
X542542Y67131D01*
X542596Y67151D01*
X542651Y67162D01*
X542728Y67202D01*
X542808Y67233D01*
X542853Y67267D01*
X542904Y67293D01*
X542966Y67352D01*
X543034Y67404D01*
X543069Y67450D01*
X543110Y67489D01*
X543153Y67563D01*
X543205Y67632D01*
X543225Y67685D01*
X543254Y67734D01*
X543275Y67817D01*
X543305Y67898D01*
X543310Y67955D01*
X543324Y68010D01*
X543321Y68096D01*
X543328Y68181D01*
X543317Y68229D01*
X543315Y68294D01*
X543270Y68432D01*
X543252Y68508D01*
X543051Y68994D01*
X543051Y71722D01*
X544096Y74245D01*
X544110Y74264D01*
X544132Y74283D01*
X544195Y74377D01*
X544263Y74467D01*
X544274Y74495D01*
X544290Y74519D01*
X544324Y74627D01*
X544365Y74733D01*
X544367Y74762D01*
X544376Y74790D01*
X544379Y74903D01*
X544388Y75016D01*
X544382Y75045D01*
X544383Y75074D01*
X544355Y75184D01*
X544332Y75295D01*
X544319Y75321D01*
X544311Y75349D01*
X544253Y75447D01*
X544201Y75547D01*
X544181Y75569D01*
X544166Y75594D01*
X544083Y75671D01*
X544006Y75753D01*
X543980Y75768D01*
X543959Y75788D01*
X543858Y75840D01*
X543760Y75897D01*
X543732Y75904D01*
X543706Y75918D01*
X543628Y75931D01*
X543485Y75967D01*
X543422Y75965D01*
X543375Y75973D01*
X541185Y75973D01*
X538675Y77013D01*
X536753Y78935D01*
X535713Y81445D01*
X535713Y84163D01*
X536753Y86673D01*
X538675Y88595D01*
X541185Y89635D01*
X543903Y89635D01*
X546413Y88595D01*
X547084Y87924D01*
X547131Y87889D01*
X547171Y87847D01*
X547244Y87804D01*
X547311Y87753D01*
X547366Y87732D01*
X547416Y87703D01*
X547498Y87682D01*
X547577Y87652D01*
X547635Y87647D01*
X547692Y87633D01*
X547776Y87635D01*
X547860Y87628D01*
X547917Y87640D01*
X547976Y87642D01*
X548056Y87668D01*
X548139Y87684D01*
X548191Y87711D01*
X548246Y87729D01*
X548303Y87769D01*
X548391Y87815D01*
X548464Y87884D01*
X548520Y87924D01*
X581870Y121274D01*
X584548Y123953D01*
X631626Y123953D01*
X631712Y123965D01*
X631800Y123968D01*
X631852Y123985D01*
X631907Y123993D01*
X631987Y124028D01*
X632070Y124055D01*
X632110Y124083D01*
X632167Y124109D01*
X632280Y124205D01*
X632344Y124250D01*
X638396Y130303D01*
X641684Y130303D01*
X641771Y130315D01*
X641858Y130318D01*
X641911Y130335D01*
X641966Y130343D01*
X642045Y130378D01*
X642129Y130405D01*
X642168Y130433D01*
X642225Y130459D01*
X642338Y130555D01*
X642402Y130600D01*
X643831Y132029D01*
X646341Y133069D01*
X649059Y133069D01*
X651569Y132029D01*
X653491Y130107D01*
X654531Y127597D01*
X654531Y124879D01*
X653491Y122369D01*
X651569Y120447D01*
X649059Y119407D01*
X646278Y119407D01*
X646171Y119435D01*
X646142Y119434D01*
X646113Y119440D01*
X646000Y119430D01*
X645887Y119427D01*
X645859Y119418D01*
X645830Y119415D01*
X645724Y119375D01*
X645616Y119340D01*
X645592Y119324D01*
X645564Y119313D01*
X645474Y119245D01*
X645380Y119182D01*
X645361Y119159D01*
X645338Y119141D01*
X645270Y119051D01*
X645197Y118964D01*
X645185Y118937D01*
X645168Y118914D01*
X645128Y118808D01*
X645082Y118704D01*
X645078Y118675D01*
X645067Y118648D01*
X645058Y118535D01*
X645043Y118423D01*
X645047Y118394D01*
X645044Y118364D01*
X645062Y118288D01*
X645083Y118141D01*
X645109Y118084D01*
X645120Y118037D01*
X645895Y116167D01*
X645895Y113449D01*
X644827Y110871D01*
X644826Y110869D01*
X644826Y110868D01*
X644790Y110729D01*
X644756Y110596D01*
X644756Y110594D01*
X644755Y110593D01*
X644760Y110448D01*
X644764Y110312D01*
X644765Y110310D01*
X644765Y110308D01*
X644807Y110176D01*
X644851Y110041D01*
X644852Y110039D01*
X644852Y110038D01*
X644859Y110029D01*
X644859Y97427D01*
X643073Y95641D01*
X633547Y95641D01*
X631761Y97427D01*
X631761Y109728D01*
X631754Y109776D01*
X631755Y109781D01*
X631753Y109787D01*
X631755Y109844D01*
X631733Y109926D01*
X631721Y110010D01*
X631698Y110063D01*
X631683Y110119D01*
X631640Y110192D01*
X631605Y110269D01*
X631567Y110314D01*
X631538Y110364D01*
X631476Y110422D01*
X631422Y110486D01*
X631373Y110518D01*
X631330Y110558D01*
X631255Y110597D01*
X631185Y110644D01*
X631129Y110661D01*
X631077Y110688D01*
X631009Y110699D01*
X630914Y110729D01*
X630814Y110732D01*
X630746Y110743D01*
X608874Y110743D01*
X608816Y110735D01*
X608758Y110737D01*
X608676Y110715D01*
X608592Y110703D01*
X608539Y110680D01*
X608483Y110665D01*
X608410Y110622D01*
X608333Y110587D01*
X608288Y110549D01*
X608238Y110520D01*
X608180Y110458D01*
X608116Y110404D01*
X608084Y110355D01*
X608044Y110312D01*
X608005Y110237D01*
X607958Y110167D01*
X607941Y110111D01*
X607914Y110059D01*
X607903Y109991D01*
X607873Y109896D01*
X607870Y109796D01*
X607859Y109728D01*
X607859Y97427D01*
X606073Y95641D01*
X600219Y95641D01*
X600105Y95625D01*
X599991Y95615D01*
X599965Y95605D01*
X599938Y95601D01*
X599833Y95554D01*
X599726Y95513D01*
X599704Y95497D01*
X599678Y95485D01*
X599591Y95411D01*
X599499Y95342D01*
X599482Y95319D01*
X599461Y95302D01*
X599398Y95206D01*
X599329Y95114D01*
X599319Y95088D01*
X599304Y95065D01*
X599269Y94955D01*
X599228Y94848D01*
X599226Y94820D01*
X599218Y94794D01*
X599215Y94679D01*
X599206Y94565D01*
X599211Y94540D01*
X599211Y94510D01*
X599278Y94253D01*
X599281Y94237D01*
X599667Y93307D01*
X599667Y91286D01*
X599679Y91200D01*
X599682Y91112D01*
X599699Y91060D01*
X599707Y91005D01*
X599742Y90925D01*
X599769Y90842D01*
X599797Y90802D01*
X599823Y90745D01*
X599919Y90632D01*
X599964Y90568D01*
X605144Y85388D01*
X605214Y85336D01*
X605278Y85276D01*
X605327Y85250D01*
X605372Y85217D01*
X605453Y85186D01*
X605531Y85146D01*
X605579Y85138D01*
X605637Y85116D01*
X605785Y85104D01*
X605862Y85091D01*
X635334Y85091D01*
X635421Y85103D01*
X635508Y85106D01*
X635561Y85123D01*
X635616Y85131D01*
X635695Y85166D01*
X635779Y85193D01*
X635818Y85221D01*
X635875Y85247D01*
X635988Y85343D01*
X636052Y85388D01*
X637481Y86817D01*
X639991Y87857D01*
X642709Y87857D01*
X645204Y86823D01*
X645260Y86809D01*
X645314Y86785D01*
X645398Y86773D01*
X645479Y86752D01*
X645538Y86754D01*
X645596Y86746D01*
X645679Y86758D01*
X645763Y86760D01*
X645819Y86778D01*
X645877Y86787D01*
X645954Y86821D01*
X646034Y86847D01*
X646083Y86880D01*
X646136Y86904D01*
X646200Y86959D01*
X646270Y87005D01*
X646306Y87048D01*
X646315Y87054D01*
X646327Y87066D01*
X646353Y87088D01*
X646359Y87099D01*
X648387Y89127D01*
X650908Y90171D01*
X653636Y90171D01*
X656157Y89127D01*
X658087Y87197D01*
X659131Y84676D01*
X659131Y81948D01*
X658049Y79336D01*
X658034Y79279D01*
X658011Y79226D01*
X657999Y79142D01*
X657978Y79061D01*
X657980Y79002D01*
X657972Y78944D01*
X657984Y78861D01*
X657986Y78777D01*
X658004Y78721D01*
X658012Y78663D01*
X658047Y78586D01*
X658073Y78506D01*
X658105Y78457D01*
X658129Y78404D01*
X658184Y78340D01*
X658231Y78270D01*
X658276Y78232D01*
X658314Y78187D01*
X658372Y78151D01*
X658449Y78087D01*
X658540Y78046D01*
X658598Y78010D01*
X659967Y77443D01*
X661897Y75513D01*
X662941Y72992D01*
X662941Y70264D01*
X661897Y67743D01*
X660444Y66290D01*
X660392Y66221D01*
X660332Y66157D01*
X660306Y66107D01*
X660273Y66063D01*
X660242Y65981D01*
X660202Y65904D01*
X660194Y65856D01*
X660172Y65798D01*
X660160Y65650D01*
X660147Y65572D01*
X660147Y61054D01*
X649384Y50291D01*
X645334Y50291D01*
X645286Y50284D01*
X645237Y50287D01*
X645146Y50265D01*
X645053Y50251D01*
X645008Y50231D01*
X644961Y50220D01*
X644879Y50174D01*
X644793Y50135D01*
X644756Y50104D01*
X644714Y50079D01*
X644648Y50012D01*
X644576Y49952D01*
X644549Y49911D01*
X644515Y49876D01*
X644471Y49793D01*
X644419Y49715D01*
X644404Y49668D01*
X644381Y49625D01*
X644361Y49533D01*
X644333Y49444D01*
X644332Y49395D01*
X644322Y49347D01*
X644329Y49273D01*
X644326Y49160D01*
X644348Y49076D01*
X644351Y49045D01*
X644351Y45439D01*
X639044Y45439D01*
X638986Y45431D01*
X638928Y45433D01*
X638846Y45411D01*
X638763Y45399D01*
X638709Y45376D01*
X638653Y45361D01*
X638580Y45318D01*
X638503Y45283D01*
X638459Y45245D01*
X638408Y45216D01*
X638351Y45154D01*
X638307Y45117D01*
X638306Y45118D01*
X638251Y45182D01*
X638203Y45214D01*
X638160Y45254D01*
X638085Y45293D01*
X638015Y45340D01*
X637959Y45357D01*
X637907Y45384D01*
X637839Y45395D01*
X637744Y45425D01*
X637644Y45428D01*
X637576Y45439D01*
X632269Y45439D01*
X632269Y49038D01*
X632272Y49062D01*
X632287Y49108D01*
X632289Y49202D01*
X632301Y49295D01*
X632293Y49344D01*
X632294Y49392D01*
X632270Y49483D01*
X632256Y49576D01*
X632235Y49620D01*
X632222Y49667D01*
X632174Y49748D01*
X632134Y49833D01*
X632102Y49870D01*
X632077Y49912D01*
X632008Y49976D01*
X631947Y50047D01*
X631906Y50073D01*
X631870Y50106D01*
X631786Y50149D01*
X631707Y50200D01*
X631660Y50214D01*
X631617Y50236D01*
X631543Y50248D01*
X631434Y50280D01*
X631348Y50281D01*
X631286Y50291D01*
X616925Y50291D01*
X616896Y50287D01*
X616867Y50290D01*
X616756Y50267D01*
X616644Y50251D01*
X616617Y50239D01*
X616588Y50234D01*
X616488Y50181D01*
X616385Y50135D01*
X616362Y50116D01*
X616336Y50103D01*
X616254Y50025D01*
X616168Y49952D01*
X616151Y49927D01*
X616130Y49907D01*
X616073Y49809D01*
X616010Y49715D01*
X616001Y49687D01*
X615986Y49662D01*
X615958Y49552D01*
X615924Y49444D01*
X615923Y49414D01*
X615916Y49386D01*
X615920Y49273D01*
X615917Y49160D01*
X615924Y49131D01*
X615925Y49102D01*
X615960Y48994D01*
X615989Y48885D01*
X616004Y48859D01*
X616013Y48831D01*
X616058Y48767D01*
X616134Y48640D01*
X616180Y48597D01*
X616208Y48558D01*
X617193Y47573D01*
X618237Y45052D01*
X618237Y42164D01*
X618245Y42106D01*
X618243Y42048D01*
X618265Y41966D01*
X618277Y41882D01*
X618300Y41829D01*
X618315Y41773D01*
X618358Y41700D01*
X618393Y41623D01*
X618431Y41578D01*
X618460Y41528D01*
X618522Y41470D01*
X618576Y41406D01*
X618625Y41374D01*
X618668Y41334D01*
X618743Y41295D01*
X618813Y41248D01*
X618869Y41231D01*
X618921Y41204D01*
X618989Y41193D01*
X619084Y41163D01*
X619184Y41160D01*
X619252Y41149D01*
X619600Y41149D01*
X622121Y40105D01*
X624051Y38175D01*
X624568Y36927D01*
X624597Y36876D01*
X624618Y36822D01*
X624669Y36755D01*
X624712Y36682D01*
X624755Y36642D01*
X624790Y36595D01*
X624858Y36545D01*
X624919Y36487D01*
X624971Y36460D01*
X625018Y36425D01*
X625097Y36395D01*
X625171Y36357D01*
X625229Y36345D01*
X625284Y36325D01*
X625368Y36318D01*
X625450Y36302D01*
X625509Y36307D01*
X625567Y36302D01*
X625635Y36318D01*
X625694Y36323D01*
X628490Y36323D01*
X631011Y35279D01*
X632941Y33349D01*
X633985Y30828D01*
X633985Y28100D01*
X632941Y25579D01*
X632464Y25102D01*
X632446Y25078D01*
X632424Y25059D01*
X632361Y24965D01*
X632293Y24875D01*
X632282Y24847D01*
X632266Y24823D01*
X632232Y24715D01*
X632191Y24609D01*
X632189Y24580D01*
X632180Y24552D01*
X632177Y24438D01*
X632168Y24326D01*
X632174Y24297D01*
X632173Y24268D01*
X632202Y24158D01*
X632224Y24047D01*
X632237Y24021D01*
X632245Y23993D01*
X632302Y23895D01*
X632355Y23795D01*
X632375Y23773D01*
X632390Y23748D01*
X632473Y23671D01*
X632551Y23589D01*
X632576Y23574D01*
X632597Y23554D01*
X632698Y23502D01*
X632796Y23445D01*
X632824Y23438D01*
X632850Y23424D01*
X632928Y23411D01*
X633071Y23375D01*
X633134Y23377D01*
X633181Y23369D01*
X659820Y23369D01*
X659906Y23381D01*
X659994Y23384D01*
X660046Y23401D01*
X660101Y23409D01*
X660181Y23444D01*
X660264Y23471D01*
X660304Y23499D01*
X660361Y23525D01*
X660474Y23621D01*
X660538Y23666D01*
X671532Y34660D01*
X671584Y34730D01*
X671644Y34794D01*
X671670Y34843D01*
X671703Y34888D01*
X671734Y34969D01*
X671774Y35047D01*
X671782Y35095D01*
X671804Y35153D01*
X671816Y35301D01*
X671829Y35378D01*
X671829Y83312D01*
X671822Y83363D01*
X671823Y83385D01*
X671822Y83389D01*
X671823Y83428D01*
X671801Y83510D01*
X671789Y83594D01*
X671766Y83647D01*
X671751Y83703D01*
X671708Y83776D01*
X671673Y83853D01*
X671635Y83898D01*
X671606Y83948D01*
X671544Y84006D01*
X671490Y84070D01*
X671441Y84102D01*
X671398Y84142D01*
X671323Y84181D01*
X671253Y84228D01*
X671197Y84245D01*
X671145Y84272D01*
X671077Y84283D01*
X670982Y84313D01*
X670882Y84316D01*
X670814Y84327D01*
X670212Y84327D01*
X667691Y85371D01*
X665761Y87301D01*
X664717Y89822D01*
X664717Y92550D01*
X665761Y95071D01*
X667691Y97001D01*
X670212Y98045D01*
X672592Y98045D01*
X672650Y98053D01*
X672708Y98051D01*
X672790Y98073D01*
X672874Y98085D01*
X672927Y98108D01*
X672983Y98123D01*
X673056Y98166D01*
X673133Y98201D01*
X673178Y98239D01*
X673228Y98268D01*
X673286Y98330D01*
X673350Y98384D01*
X673382Y98433D01*
X673422Y98476D01*
X673461Y98551D01*
X673508Y98621D01*
X673525Y98677D01*
X673552Y98729D01*
X673563Y98797D01*
X673593Y98892D01*
X673596Y98992D01*
X673607Y99060D01*
X673607Y101440D01*
X674651Y103961D01*
X676581Y105891D01*
X679102Y106935D01*
X681830Y106935D01*
X684351Y105891D01*
X686281Y103961D01*
X687325Y101440D01*
X687325Y98712D01*
X686281Y96191D01*
X684828Y94738D01*
X684776Y94669D01*
X684716Y94605D01*
X684690Y94555D01*
X684657Y94511D01*
X684626Y94429D01*
X684586Y94352D01*
X684578Y94304D01*
X684556Y94246D01*
X684544Y94098D01*
X684531Y94020D01*
X684531Y88900D01*
X684539Y88842D01*
X684537Y88784D01*
X684559Y88702D01*
X684571Y88619D01*
X684594Y88565D01*
X684609Y88509D01*
X684652Y88436D01*
X684687Y88359D01*
X684725Y88314D01*
X684754Y88264D01*
X684816Y88206D01*
X684870Y88142D01*
X684919Y88110D01*
X684962Y88070D01*
X685037Y88031D01*
X685107Y87985D01*
X685163Y87967D01*
X685215Y87940D01*
X685283Y87929D01*
X685378Y87899D01*
X685478Y87896D01*
X685546Y87885D01*
X695272Y87885D01*
X695386Y87901D01*
X695501Y87911D01*
X695527Y87921D01*
X695554Y87925D01*
X695659Y87971D01*
X695766Y88013D01*
X695788Y88030D01*
X695813Y88041D01*
X695901Y88115D01*
X695993Y88184D01*
X696009Y88207D01*
X696030Y88225D01*
X696094Y88320D01*
X696163Y88412D01*
X696173Y88438D01*
X696188Y88461D01*
X696223Y88571D01*
X696263Y88678D01*
X696265Y88706D01*
X696274Y88732D01*
X696277Y88847D01*
X696286Y88961D01*
X696280Y88986D01*
X696281Y89016D01*
X696214Y89274D01*
X696210Y89289D01*
X695987Y89827D01*
X695987Y92545D01*
X697027Y95055D01*
X698949Y96977D01*
X701459Y98017D01*
X704177Y98017D01*
X706687Y96977D01*
X707608Y96056D01*
X707678Y96004D01*
X707742Y95944D01*
X707791Y95918D01*
X707835Y95885D01*
X707917Y95854D01*
X707995Y95814D01*
X708042Y95806D01*
X708101Y95784D01*
X708249Y95772D01*
X708326Y95759D01*
X711679Y95759D01*
X711766Y95771D01*
X711853Y95774D01*
X711906Y95791D01*
X711961Y95799D01*
X712041Y95834D01*
X712124Y95861D01*
X712163Y95889D01*
X712220Y95915D01*
X712333Y96011D01*
X712397Y96056D01*
X718776Y102435D01*
X718828Y102505D01*
X718888Y102568D01*
X718914Y102618D01*
X718947Y102662D01*
X718978Y102744D01*
X719018Y102822D01*
X719026Y102869D01*
X719048Y102928D01*
X719060Y103075D01*
X719073Y103153D01*
X719073Y186153D01*
X719061Y186240D01*
X719058Y186327D01*
X719041Y186380D01*
X719033Y186435D01*
X718998Y186515D01*
X718971Y186598D01*
X718943Y186637D01*
X718917Y186694D01*
X718821Y186807D01*
X718776Y186871D01*
X695379Y210268D01*
X695309Y210320D01*
X695246Y210380D01*
X695196Y210406D01*
X695152Y210439D01*
X695070Y210470D01*
X694992Y210510D01*
X694945Y210518D01*
X694886Y210540D01*
X694739Y210552D01*
X694661Y210565D01*
X680465Y210565D01*
X680465Y224761D01*
X680453Y224848D01*
X680450Y224935D01*
X680433Y224988D01*
X680425Y225043D01*
X680390Y225123D01*
X680363Y225206D01*
X680335Y225245D01*
X680309Y225302D01*
X680213Y225415D01*
X680168Y225479D01*
X666931Y238716D01*
X666861Y238768D01*
X666798Y238828D01*
X666748Y238854D01*
X666704Y238887D01*
X666622Y238918D01*
X666544Y238958D01*
X666497Y238966D01*
X666438Y238988D01*
X666291Y239000D01*
X666213Y239013D01*
X659598Y239013D01*
X659511Y239001D01*
X659423Y238998D01*
X659371Y238981D01*
X659316Y238973D01*
X659236Y238938D01*
X659153Y238911D01*
X659114Y238883D01*
X659057Y238857D01*
X658943Y238761D01*
X658880Y238716D01*
X657935Y237771D01*
X655414Y236727D01*
X652686Y236727D01*
X650165Y237771D01*
X648235Y239701D01*
X647191Y242222D01*
X647191Y244950D01*
X648235Y247471D01*
X650165Y249401D01*
X652686Y250445D01*
X655414Y250445D01*
X657935Y249401D01*
X658880Y248456D01*
X658949Y248404D01*
X659013Y248344D01*
X659063Y248318D01*
X659107Y248285D01*
X659189Y248254D01*
X659266Y248214D01*
X659314Y248206D01*
X659372Y248184D01*
X659520Y248172D01*
X659598Y248159D01*
X670422Y248159D01*
X678732Y239849D01*
X678756Y239831D01*
X678775Y239809D01*
X678869Y239746D01*
X678959Y239678D01*
X678987Y239667D01*
X679011Y239651D01*
X679119Y239617D01*
X679225Y239577D01*
X679254Y239574D01*
X679282Y239565D01*
X679396Y239562D01*
X679508Y239553D01*
X679537Y239559D01*
X679566Y239558D01*
X679676Y239587D01*
X679787Y239609D01*
X679813Y239622D01*
X679841Y239630D01*
X679939Y239688D01*
X680039Y239740D01*
X680061Y239760D01*
X680086Y239775D01*
X680163Y239858D01*
X680245Y239936D01*
X680260Y239961D01*
X680280Y239982D01*
X680332Y240083D01*
X680389Y240181D01*
X680396Y240209D01*
X680410Y240236D01*
X680423Y240313D01*
X680459Y240457D01*
X680457Y240519D01*
X680465Y240567D01*
X680465Y283464D01*
X680457Y283522D01*
X680459Y283580D01*
X680437Y283662D01*
X680425Y283746D01*
X680402Y283799D01*
X680387Y283855D01*
X680344Y283928D01*
X680309Y284005D01*
X680271Y284050D01*
X680242Y284100D01*
X680180Y284158D01*
X680126Y284222D01*
X680077Y284254D01*
X680034Y284294D01*
X679959Y284333D01*
X679889Y284380D01*
X679833Y284397D01*
X679781Y284424D01*
X679713Y284435D01*
X679618Y284465D01*
X679518Y284468D01*
X679450Y284479D01*
X88900Y284479D01*
X88842Y284471D01*
X88784Y284473D01*
X88702Y284451D01*
X88619Y284439D01*
X88565Y284416D01*
X88509Y284401D01*
X88436Y284358D01*
X88359Y284323D01*
X88314Y284285D01*
X88264Y284256D01*
X88206Y284194D01*
X88142Y284140D01*
X88110Y284091D01*
X88070Y284048D01*
X88031Y283973D01*
X87985Y283903D01*
X87967Y283847D01*
X87940Y283795D01*
X87929Y283727D01*
X87899Y283632D01*
X87896Y283532D01*
X87885Y283464D01*
X87885Y210565D01*
X12700Y210565D01*
X12642Y210557D01*
X12584Y210559D01*
X12502Y210537D01*
X12419Y210525D01*
X12365Y210502D01*
X12309Y210487D01*
X12236Y210444D01*
X12159Y210409D01*
X12114Y210371D01*
X12064Y210342D01*
X12006Y210280D01*
X11942Y210226D01*
X11910Y210177D01*
X11870Y210134D01*
X11831Y210059D01*
X11785Y209989D01*
X11767Y209933D01*
X11740Y209881D01*
X11729Y209813D01*
X11699Y209718D01*
X11696Y209618D01*
X11685Y209550D01*
X11685Y88900D01*
X11693Y88842D01*
X11691Y88784D01*
X11713Y88702D01*
X11725Y88619D01*
X11749Y88565D01*
X11763Y88509D01*
X11806Y88436D01*
X11841Y88359D01*
X11879Y88314D01*
X11909Y88264D01*
X11970Y88206D01*
X12025Y88142D01*
X12073Y88110D01*
X12116Y88070D01*
X12191Y88031D01*
X12261Y87985D01*
X12317Y87967D01*
X12369Y87940D01*
X12437Y87929D01*
X12532Y87899D01*
X12632Y87896D01*
X12700Y87885D01*
X60380Y87885D01*
X60409Y87889D01*
X60438Y87886D01*
X60549Y87909D01*
X60661Y87925D01*
X60688Y87937D01*
X60717Y87942D01*
X60817Y87995D01*
X60921Y88041D01*
X60943Y88060D01*
X60969Y88073D01*
X61051Y88151D01*
X61138Y88225D01*
X61154Y88249D01*
X61175Y88269D01*
X61232Y88367D01*
X61295Y88461D01*
X61304Y88489D01*
X61319Y88514D01*
X61347Y88624D01*
X61381Y88732D01*
X61382Y88762D01*
X61389Y88790D01*
X61385Y88903D01*
X61388Y89016D01*
X61381Y89045D01*
X61380Y89074D01*
X61345Y89182D01*
X61317Y89291D01*
X61302Y89317D01*
X61293Y89345D01*
X61247Y89408D01*
X61171Y89536D01*
X61126Y89579D01*
X61098Y89618D01*
X40342Y110374D01*
X40272Y110426D01*
X40208Y110486D01*
X40159Y110512D01*
X40114Y110545D01*
X40033Y110576D01*
X39955Y110616D01*
X39907Y110624D01*
X39849Y110646D01*
X39701Y110658D01*
X39624Y110671D01*
X25132Y110671D01*
X21792Y112055D01*
X19235Y114612D01*
X17851Y117952D01*
X17851Y121568D01*
X19235Y124908D01*
X21792Y127465D01*
X25068Y128822D01*
X25093Y128837D01*
X25121Y128846D01*
X25215Y128909D01*
X25313Y128967D01*
X25333Y128988D01*
X25357Y129004D01*
X25430Y129091D01*
X25508Y129173D01*
X25521Y129199D01*
X25540Y129222D01*
X25586Y129325D01*
X25638Y129426D01*
X25644Y129455D01*
X25655Y129482D01*
X25671Y129594D01*
X25693Y129705D01*
X25690Y129734D01*
X25694Y129763D01*
X25678Y129875D01*
X25668Y129988D01*
X25658Y130015D01*
X25654Y130044D01*
X25607Y130148D01*
X25566Y130253D01*
X25549Y130277D01*
X25537Y130304D01*
X25463Y130390D01*
X25395Y130480D01*
X25371Y130498D01*
X25352Y130520D01*
X25286Y130562D01*
X25167Y130650D01*
X25109Y130672D01*
X25068Y130698D01*
X21792Y132055D01*
X19235Y134612D01*
X17851Y137952D01*
X17851Y141568D01*
X19235Y144908D01*
X21792Y147465D01*
X25132Y148849D01*
X40828Y148849D01*
X44168Y147465D01*
X46725Y144908D01*
X48109Y141568D01*
X48109Y137952D01*
X47781Y137162D01*
X47781Y137160D01*
X47780Y137159D01*
X47746Y137026D01*
X47710Y136886D01*
X47710Y136885D01*
X47710Y136883D01*
X47714Y136742D01*
X47718Y136602D01*
X47719Y136601D01*
X47719Y136599D01*
X47762Y136465D01*
X47805Y136331D01*
X47806Y136330D01*
X47806Y136328D01*
X47815Y136316D01*
X47963Y136095D01*
X47987Y136075D01*
X48001Y136055D01*
X58929Y125128D01*
X58929Y112086D01*
X58941Y112000D01*
X58944Y111912D01*
X58961Y111860D01*
X58969Y111805D01*
X59004Y111725D01*
X59031Y111642D01*
X59059Y111602D01*
X59085Y111545D01*
X59181Y111432D01*
X59226Y111368D01*
X82412Y88182D01*
X82482Y88130D01*
X82546Y88070D01*
X82595Y88044D01*
X82639Y88011D01*
X82721Y87980D01*
X82799Y87940D01*
X82847Y87932D01*
X82905Y87910D01*
X83053Y87898D01*
X83130Y87885D01*
X87885Y87885D01*
X87885Y83130D01*
X87897Y83044D01*
X87900Y82956D01*
X87917Y82903D01*
X87925Y82849D01*
X87960Y82769D01*
X87987Y82686D01*
X88015Y82646D01*
X88041Y82589D01*
X88137Y82476D01*
X88182Y82412D01*
X101208Y69386D01*
X103202Y67392D01*
X103226Y67375D01*
X103245Y67352D01*
X103339Y67289D01*
X103429Y67221D01*
X103457Y67211D01*
X103481Y67195D01*
X103589Y67160D01*
X103695Y67120D01*
X103724Y67118D01*
X103752Y67109D01*
X103866Y67106D01*
X103978Y67097D01*
X104007Y67102D01*
X104036Y67102D01*
X104146Y67130D01*
X104257Y67152D01*
X104283Y67166D01*
X104311Y67173D01*
X104409Y67231D01*
X104509Y67283D01*
X104531Y67304D01*
X104556Y67319D01*
X104633Y67401D01*
X104715Y67479D01*
X104730Y67505D01*
X104750Y67526D01*
X104802Y67627D01*
X104859Y67725D01*
X104866Y67753D01*
X104880Y67779D01*
X104893Y67856D01*
X104929Y68000D01*
X104927Y68063D01*
X104935Y68110D01*
X104935Y70251D01*
X106721Y72037D01*
X116247Y72037D01*
X118033Y70251D01*
X118033Y57725D01*
X117236Y56929D01*
X117235Y56928D01*
X117234Y56927D01*
X117148Y56812D01*
X117065Y56702D01*
X117065Y56700D01*
X117064Y56699D01*
X117015Y56569D01*
X116964Y56436D01*
X116964Y56434D01*
X116964Y56433D01*
X116952Y56289D01*
X116941Y56153D01*
X116941Y56151D01*
X116941Y56150D01*
X116945Y56134D01*
X116997Y55874D01*
X117011Y55847D01*
X117016Y55822D01*
X118111Y53180D01*
X118111Y50452D01*
X117067Y47931D01*
X115137Y46001D01*
X112616Y44957D01*
X109888Y44957D01*
X107367Y46001D01*
X105620Y47748D01*
X105596Y47766D01*
X105577Y47788D01*
X105483Y47851D01*
X105393Y47919D01*
X105365Y47930D01*
X105341Y47946D01*
X105233Y47980D01*
X105127Y48021D01*
X105098Y48023D01*
X105070Y48032D01*
X104956Y48035D01*
X104844Y48044D01*
X104815Y48038D01*
X104786Y48039D01*
X104676Y48010D01*
X104565Y47988D01*
X104539Y47975D01*
X104511Y47967D01*
X104413Y47909D01*
X104313Y47857D01*
X104291Y47837D01*
X104266Y47822D01*
X104189Y47739D01*
X104107Y47661D01*
X104092Y47636D01*
X104072Y47615D01*
X104020Y47514D01*
X103963Y47416D01*
X103956Y47388D01*
X103942Y47362D01*
X103929Y47284D01*
X103893Y47141D01*
X103895Y47078D01*
X103887Y47031D01*
X103887Y37156D01*
X103899Y37070D01*
X103902Y36982D01*
X103919Y36930D01*
X103927Y36875D01*
X103962Y36795D01*
X103989Y36712D01*
X104017Y36672D01*
X104043Y36615D01*
X104139Y36502D01*
X104184Y36438D01*
X116956Y23666D01*
X117026Y23614D01*
X117090Y23554D01*
X117139Y23528D01*
X117184Y23495D01*
X117265Y23464D01*
X117343Y23424D01*
X117391Y23416D01*
X117449Y23394D01*
X117597Y23382D01*
X117674Y23369D01*
X206176Y23369D01*
X206205Y23373D01*
G37*
%LPC*%
G36*
X253269Y47205D02*
X253269Y47205D01*
X251483Y48991D01*
X251483Y57134D01*
X251471Y57220D01*
X251468Y57308D01*
X251451Y57360D01*
X251443Y57415D01*
X251408Y57495D01*
X251381Y57578D01*
X251353Y57618D01*
X251327Y57675D01*
X251231Y57788D01*
X251186Y57852D01*
X237435Y71602D01*
X237435Y113460D01*
X237427Y113518D01*
X237429Y113576D01*
X237407Y113658D01*
X237395Y113742D01*
X237372Y113795D01*
X237357Y113851D01*
X237314Y113924D01*
X237279Y114001D01*
X237241Y114046D01*
X237212Y114096D01*
X237150Y114154D01*
X237096Y114218D01*
X237047Y114250D01*
X237004Y114290D01*
X236929Y114329D01*
X236859Y114376D01*
X236803Y114393D01*
X236751Y114420D01*
X236683Y114431D01*
X236588Y114461D01*
X236488Y114464D01*
X236420Y114475D01*
X235237Y114475D01*
X233451Y116261D01*
X233451Y128787D01*
X235237Y130573D01*
X236420Y130573D01*
X236478Y130581D01*
X236536Y130579D01*
X236618Y130601D01*
X236702Y130613D01*
X236755Y130636D01*
X236811Y130651D01*
X236884Y130694D01*
X236961Y130729D01*
X237006Y130767D01*
X237056Y130796D01*
X237114Y130858D01*
X237178Y130912D01*
X237210Y130961D01*
X237250Y131004D01*
X237289Y131079D01*
X237336Y131149D01*
X237353Y131205D01*
X237380Y131257D01*
X237391Y131325D01*
X237421Y131420D01*
X237424Y131520D01*
X237435Y131588D01*
X237435Y173938D01*
X251202Y187704D01*
X251254Y187774D01*
X251314Y187838D01*
X251340Y187887D01*
X251373Y187932D01*
X251404Y188013D01*
X251444Y188091D01*
X251452Y188139D01*
X251474Y188197D01*
X251486Y188345D01*
X251499Y188422D01*
X251499Y196565D01*
X253285Y198351D01*
X261428Y198351D01*
X261514Y198363D01*
X261602Y198366D01*
X261655Y198383D01*
X261709Y198391D01*
X261789Y198426D01*
X261872Y198453D01*
X261912Y198481D01*
X261969Y198507D01*
X262082Y198603D01*
X262146Y198648D01*
X265290Y201792D01*
X266488Y202990D01*
X266505Y203014D01*
X266528Y203033D01*
X266591Y203127D01*
X266659Y203217D01*
X266669Y203245D01*
X266685Y203269D01*
X266720Y203377D01*
X266760Y203483D01*
X266762Y203512D01*
X266771Y203540D01*
X266774Y203654D01*
X266783Y203766D01*
X266778Y203795D01*
X266778Y203824D01*
X266750Y203934D01*
X266728Y204045D01*
X266714Y204071D01*
X266707Y204099D01*
X266649Y204197D01*
X266597Y204297D01*
X266576Y204319D01*
X266561Y204344D01*
X266479Y204421D01*
X266401Y204503D01*
X266375Y204518D01*
X266354Y204538D01*
X266253Y204590D01*
X266155Y204647D01*
X266127Y204654D01*
X266101Y204668D01*
X266024Y204681D01*
X265880Y204717D01*
X265817Y204715D01*
X265770Y204723D01*
X265644Y204723D01*
X265557Y204711D01*
X265469Y204708D01*
X265417Y204691D01*
X265362Y204683D01*
X265282Y204648D01*
X265199Y204621D01*
X265160Y204593D01*
X265103Y204567D01*
X264989Y204471D01*
X264926Y204426D01*
X263473Y202973D01*
X260952Y201929D01*
X258224Y201929D01*
X255703Y202973D01*
X253773Y204903D01*
X252729Y207424D01*
X252729Y210152D01*
X253773Y212673D01*
X255703Y214603D01*
X258224Y215647D01*
X260952Y215647D01*
X263473Y214603D01*
X264926Y213150D01*
X264995Y213098D01*
X265059Y213038D01*
X265109Y213012D01*
X265153Y212979D01*
X265235Y212948D01*
X265312Y212908D01*
X265360Y212900D01*
X265418Y212878D01*
X265566Y212866D01*
X265644Y212853D01*
X277408Y212853D01*
X277495Y212865D01*
X277583Y212868D01*
X277635Y212885D01*
X277690Y212893D01*
X277770Y212928D01*
X277853Y212955D01*
X277892Y212983D01*
X277949Y213009D01*
X278063Y213105D01*
X278126Y213150D01*
X279579Y214603D01*
X282100Y215647D01*
X284828Y215647D01*
X287349Y214603D01*
X289279Y212673D01*
X290323Y210152D01*
X290323Y208280D01*
X290331Y208222D01*
X290329Y208164D01*
X290351Y208082D01*
X290363Y207998D01*
X290386Y207945D01*
X290401Y207889D01*
X290444Y207816D01*
X290479Y207739D01*
X290517Y207694D01*
X290546Y207644D01*
X290608Y207586D01*
X290662Y207522D01*
X290711Y207490D01*
X290754Y207450D01*
X290829Y207411D01*
X290899Y207364D01*
X290955Y207347D01*
X291007Y207320D01*
X291075Y207309D01*
X291170Y207279D01*
X291270Y207276D01*
X291338Y207265D01*
X292194Y207265D01*
X294715Y206221D01*
X296645Y204291D01*
X297689Y201770D01*
X297689Y199042D01*
X296645Y196521D01*
X294715Y194591D01*
X292194Y193547D01*
X290902Y193547D01*
X290873Y193543D01*
X290844Y193546D01*
X290733Y193523D01*
X290621Y193507D01*
X290594Y193495D01*
X290565Y193490D01*
X290464Y193437D01*
X290361Y193391D01*
X290339Y193372D01*
X290313Y193359D01*
X290231Y193281D01*
X290144Y193208D01*
X290128Y193183D01*
X290107Y193163D01*
X290050Y193065D01*
X289987Y192971D01*
X289978Y192943D01*
X289963Y192918D01*
X289935Y192808D01*
X289901Y192700D01*
X289900Y192670D01*
X289893Y192642D01*
X289896Y192529D01*
X289894Y192416D01*
X289901Y192387D01*
X289902Y192358D01*
X289937Y192250D01*
X289965Y192141D01*
X289980Y192115D01*
X289989Y192087D01*
X290035Y192024D01*
X290111Y191896D01*
X290156Y191853D01*
X290184Y191814D01*
X291847Y190152D01*
X291847Y180046D01*
X291859Y179959D01*
X291862Y179871D01*
X291879Y179819D01*
X291887Y179764D01*
X291922Y179684D01*
X291949Y179601D01*
X291977Y179562D01*
X292003Y179505D01*
X292099Y179391D01*
X292144Y179328D01*
X293597Y177875D01*
X294641Y175354D01*
X294641Y172626D01*
X293597Y170105D01*
X291667Y168175D01*
X289146Y167131D01*
X286418Y167131D01*
X283897Y168175D01*
X281967Y170105D01*
X280923Y172626D01*
X280923Y175354D01*
X281967Y177875D01*
X283420Y179328D01*
X283472Y179397D01*
X283532Y179461D01*
X283558Y179511D01*
X283591Y179555D01*
X283622Y179637D01*
X283662Y179714D01*
X283670Y179762D01*
X283692Y179820D01*
X283704Y179968D01*
X283717Y180046D01*
X283717Y181238D01*
X283709Y181296D01*
X283711Y181354D01*
X283689Y181436D01*
X283677Y181520D01*
X283654Y181573D01*
X283639Y181629D01*
X283596Y181702D01*
X283561Y181779D01*
X283523Y181824D01*
X283494Y181874D01*
X283432Y181932D01*
X283378Y181996D01*
X283329Y182028D01*
X283286Y182068D01*
X283211Y182107D01*
X283141Y182154D01*
X283085Y182171D01*
X283033Y182198D01*
X282965Y182209D01*
X282870Y182239D01*
X282770Y182242D01*
X282702Y182253D01*
X270285Y182253D01*
X268766Y183773D01*
X268719Y183808D01*
X268679Y183850D01*
X268606Y183893D01*
X268539Y183943D01*
X268484Y183964D01*
X268434Y183994D01*
X268352Y184015D01*
X268273Y184045D01*
X268215Y184050D01*
X268158Y184064D01*
X268074Y184061D01*
X267990Y184068D01*
X267932Y184057D01*
X267874Y184055D01*
X267794Y184029D01*
X267711Y184012D01*
X267659Y183985D01*
X267603Y183967D01*
X267547Y183927D01*
X267459Y183881D01*
X267386Y183813D01*
X267330Y183773D01*
X265811Y182253D01*
X257668Y182253D01*
X257582Y182241D01*
X257494Y182238D01*
X257442Y182221D01*
X257387Y182213D01*
X257307Y182178D01*
X257224Y182151D01*
X257184Y182123D01*
X257127Y182097D01*
X257014Y182001D01*
X256950Y181956D01*
X245862Y170868D01*
X245810Y170798D01*
X245750Y170734D01*
X245724Y170685D01*
X245691Y170640D01*
X245660Y170559D01*
X245620Y170481D01*
X245612Y170433D01*
X245590Y170375D01*
X245578Y170227D01*
X245565Y170150D01*
X245565Y131588D01*
X245573Y131530D01*
X245571Y131472D01*
X245593Y131390D01*
X245605Y131306D01*
X245628Y131253D01*
X245643Y131197D01*
X245686Y131124D01*
X245721Y131047D01*
X245759Y131002D01*
X245788Y130952D01*
X245850Y130894D01*
X245904Y130830D01*
X245953Y130798D01*
X245996Y130758D01*
X246071Y130719D01*
X246141Y130672D01*
X246197Y130655D01*
X246249Y130628D01*
X246317Y130617D01*
X246412Y130587D01*
X246512Y130584D01*
X246580Y130573D01*
X247763Y130573D01*
X249282Y129053D01*
X249329Y129018D01*
X249369Y128976D01*
X249442Y128933D01*
X249509Y128883D01*
X249564Y128862D01*
X249614Y128832D01*
X249696Y128811D01*
X249775Y128781D01*
X249833Y128776D01*
X249890Y128762D01*
X249974Y128765D01*
X250058Y128758D01*
X250116Y128769D01*
X250174Y128771D01*
X250254Y128797D01*
X250337Y128814D01*
X250389Y128841D01*
X250445Y128859D01*
X250501Y128899D01*
X250589Y128945D01*
X250662Y129013D01*
X250718Y129053D01*
X252237Y130573D01*
X264763Y130573D01*
X266549Y128787D01*
X266549Y127604D01*
X266557Y127546D01*
X266555Y127488D01*
X266577Y127406D01*
X266589Y127322D01*
X266612Y127269D01*
X266627Y127213D01*
X266670Y127140D01*
X266705Y127063D01*
X266743Y127018D01*
X266772Y126968D01*
X266834Y126910D01*
X266888Y126846D01*
X266937Y126814D01*
X266980Y126774D01*
X267055Y126735D01*
X267125Y126688D01*
X267181Y126671D01*
X267233Y126644D01*
X267301Y126633D01*
X267396Y126603D01*
X267496Y126600D01*
X267564Y126589D01*
X270066Y126589D01*
X274575Y122080D01*
X274575Y118070D01*
X274587Y117983D01*
X274590Y117895D01*
X274607Y117843D01*
X274615Y117788D01*
X274650Y117708D01*
X274677Y117625D01*
X274705Y117586D01*
X274731Y117529D01*
X274827Y117415D01*
X274872Y117352D01*
X276325Y115899D01*
X277369Y113378D01*
X277369Y110650D01*
X276325Y108129D01*
X274395Y106199D01*
X271874Y105155D01*
X269146Y105155D01*
X266625Y106199D01*
X264695Y108129D01*
X263651Y110650D01*
X263651Y113460D01*
X263643Y113518D01*
X263645Y113576D01*
X263623Y113658D01*
X263611Y113742D01*
X263588Y113795D01*
X263573Y113851D01*
X263530Y113924D01*
X263495Y114001D01*
X263457Y114046D01*
X263428Y114096D01*
X263366Y114154D01*
X263312Y114218D01*
X263263Y114250D01*
X263220Y114290D01*
X263145Y114329D01*
X263075Y114376D01*
X263019Y114393D01*
X262967Y114420D01*
X262899Y114431D01*
X262804Y114461D01*
X262704Y114464D01*
X262636Y114475D01*
X252237Y114475D01*
X250718Y115995D01*
X250671Y116030D01*
X250631Y116072D01*
X250558Y116115D01*
X250491Y116165D01*
X250436Y116186D01*
X250386Y116216D01*
X250304Y116237D01*
X250225Y116267D01*
X250167Y116272D01*
X250110Y116286D01*
X250026Y116283D01*
X249942Y116290D01*
X249884Y116279D01*
X249826Y116277D01*
X249746Y116251D01*
X249663Y116234D01*
X249611Y116207D01*
X249555Y116189D01*
X249499Y116149D01*
X249411Y116103D01*
X249338Y116035D01*
X249282Y115995D01*
X247763Y114475D01*
X246580Y114475D01*
X246522Y114467D01*
X246464Y114469D01*
X246382Y114447D01*
X246298Y114435D01*
X246245Y114412D01*
X246189Y114397D01*
X246116Y114354D01*
X246039Y114319D01*
X245994Y114281D01*
X245944Y114252D01*
X245886Y114190D01*
X245822Y114136D01*
X245790Y114087D01*
X245750Y114044D01*
X245711Y113969D01*
X245664Y113899D01*
X245647Y113843D01*
X245620Y113791D01*
X245609Y113723D01*
X245579Y113628D01*
X245576Y113528D01*
X245565Y113460D01*
X245565Y75390D01*
X245577Y75304D01*
X245580Y75216D01*
X245597Y75164D01*
X245605Y75109D01*
X245640Y75029D01*
X245667Y74946D01*
X245695Y74906D01*
X245721Y74849D01*
X245817Y74736D01*
X245862Y74672D01*
X256934Y63600D01*
X257004Y63548D01*
X257068Y63488D01*
X257117Y63462D01*
X257162Y63429D01*
X257243Y63398D01*
X257321Y63358D01*
X257369Y63350D01*
X257427Y63328D01*
X257575Y63316D01*
X257652Y63303D01*
X265795Y63303D01*
X267314Y61783D01*
X267361Y61748D01*
X267401Y61706D01*
X267474Y61663D01*
X267541Y61613D01*
X267596Y61592D01*
X267646Y61562D01*
X267728Y61541D01*
X267807Y61511D01*
X267865Y61506D01*
X267922Y61492D01*
X268006Y61495D01*
X268090Y61488D01*
X268148Y61499D01*
X268206Y61501D01*
X268286Y61527D01*
X268369Y61544D01*
X268421Y61571D01*
X268477Y61589D01*
X268533Y61629D01*
X268621Y61675D01*
X268694Y61743D01*
X268750Y61783D01*
X270269Y63303D01*
X282795Y63303D01*
X283880Y62217D01*
X283882Y62216D01*
X283883Y62215D01*
X283961Y62157D01*
X283986Y62133D01*
X284006Y62123D01*
X284107Y62046D01*
X284109Y62046D01*
X284110Y62045D01*
X284240Y61996D01*
X284373Y61945D01*
X284375Y61945D01*
X284376Y61944D01*
X284515Y61933D01*
X284656Y61922D01*
X284658Y61922D01*
X284660Y61922D01*
X284674Y61925D01*
X284935Y61977D01*
X284962Y61992D01*
X284987Y61997D01*
X286164Y62485D01*
X288892Y62485D01*
X291413Y61441D01*
X293343Y59511D01*
X294387Y56990D01*
X294387Y54262D01*
X293343Y51741D01*
X291413Y49811D01*
X288892Y48767D01*
X286164Y48767D01*
X285513Y49037D01*
X285511Y49037D01*
X285510Y49038D01*
X285376Y49072D01*
X285237Y49108D01*
X285236Y49108D01*
X285234Y49108D01*
X285094Y49104D01*
X284953Y49100D01*
X284952Y49099D01*
X284950Y49099D01*
X284817Y49056D01*
X284683Y49013D01*
X284681Y49012D01*
X284680Y49012D01*
X284668Y49003D01*
X284446Y48855D01*
X284427Y48831D01*
X284406Y48817D01*
X282795Y47205D01*
X270269Y47205D01*
X268750Y48725D01*
X268703Y48760D01*
X268663Y48802D01*
X268590Y48845D01*
X268523Y48895D01*
X268468Y48916D01*
X268418Y48946D01*
X268336Y48967D01*
X268257Y48997D01*
X268199Y49002D01*
X268142Y49016D01*
X268058Y49013D01*
X267974Y49020D01*
X267916Y49009D01*
X267858Y49007D01*
X267778Y48981D01*
X267695Y48964D01*
X267643Y48937D01*
X267587Y48919D01*
X267531Y48879D01*
X267443Y48833D01*
X267370Y48765D01*
X267314Y48725D01*
X265795Y47205D01*
X253269Y47205D01*
G37*
%LPD*%
%LPC*%
G36*
X473108Y221741D02*
X473108Y221741D01*
X470587Y222785D01*
X468657Y224715D01*
X467613Y227236D01*
X467613Y229964D01*
X467658Y230071D01*
X467686Y230183D01*
X467721Y230292D01*
X467722Y230320D01*
X467729Y230347D01*
X467725Y230461D01*
X467728Y230576D01*
X467721Y230603D01*
X467721Y230631D01*
X467685Y230740D01*
X467656Y230851D01*
X467642Y230875D01*
X467634Y230902D01*
X467570Y230997D01*
X467511Y231096D01*
X467491Y231115D01*
X467476Y231138D01*
X467388Y231212D01*
X467304Y231290D01*
X467279Y231303D01*
X467258Y231321D01*
X467153Y231367D01*
X467051Y231420D01*
X467026Y231424D01*
X466998Y231436D01*
X466734Y231473D01*
X466720Y231475D01*
X454745Y231475D01*
X453226Y232995D01*
X453179Y233030D01*
X453139Y233072D01*
X453066Y233115D01*
X452999Y233165D01*
X452944Y233186D01*
X452894Y233216D01*
X452812Y233237D01*
X452733Y233267D01*
X452675Y233272D01*
X452618Y233286D01*
X452534Y233283D01*
X452450Y233290D01*
X452392Y233279D01*
X452334Y233277D01*
X452254Y233251D01*
X452171Y233234D01*
X452119Y233207D01*
X452063Y233189D01*
X452007Y233149D01*
X451919Y233103D01*
X451846Y233035D01*
X451790Y232995D01*
X450271Y231475D01*
X437745Y231475D01*
X435959Y233261D01*
X435959Y245787D01*
X437696Y247524D01*
X437731Y247570D01*
X437774Y247611D01*
X437816Y247683D01*
X437867Y247751D01*
X437888Y247806D01*
X437917Y247856D01*
X437938Y247938D01*
X437968Y248017D01*
X437973Y248075D01*
X437988Y248131D01*
X437985Y248216D01*
X437992Y248300D01*
X437980Y248357D01*
X437978Y248416D01*
X437953Y248496D01*
X437936Y248579D01*
X437909Y248630D01*
X437891Y248686D01*
X437851Y248742D01*
X437805Y248831D01*
X437736Y248903D01*
X437696Y248959D01*
X423302Y263354D01*
X423232Y263406D01*
X423168Y263466D01*
X423119Y263492D01*
X423074Y263525D01*
X422993Y263556D01*
X422915Y263596D01*
X422867Y263604D01*
X422809Y263626D01*
X422661Y263638D01*
X422584Y263651D01*
X405202Y263651D01*
X405173Y263647D01*
X405144Y263650D01*
X405033Y263627D01*
X404921Y263611D01*
X404894Y263599D01*
X404865Y263594D01*
X404765Y263541D01*
X404661Y263495D01*
X404639Y263476D01*
X404613Y263463D01*
X404531Y263385D01*
X404444Y263312D01*
X404428Y263287D01*
X404407Y263267D01*
X404349Y263169D01*
X404287Y263075D01*
X404278Y263047D01*
X404263Y263022D01*
X404235Y262912D01*
X404201Y262804D01*
X404200Y262774D01*
X404193Y262746D01*
X404196Y262633D01*
X404194Y262520D01*
X404201Y262491D01*
X404202Y262462D01*
X404237Y262354D01*
X404265Y262245D01*
X404280Y262219D01*
X404289Y262191D01*
X404335Y262128D01*
X404411Y262000D01*
X404456Y261957D01*
X404484Y261918D01*
X407206Y259196D01*
X409703Y256700D01*
X409703Y253705D01*
X409715Y253619D01*
X409718Y253531D01*
X409735Y253479D01*
X409743Y253424D01*
X409778Y253344D01*
X409805Y253261D01*
X409833Y253222D01*
X409859Y253165D01*
X409955Y253051D01*
X410000Y252988D01*
X411453Y251535D01*
X412497Y249014D01*
X412497Y246286D01*
X411453Y243765D01*
X409523Y241835D01*
X407002Y240791D01*
X404274Y240791D01*
X401753Y241835D01*
X399823Y243765D01*
X398779Y246286D01*
X398779Y248682D01*
X398771Y248740D01*
X398773Y248798D01*
X398751Y248880D01*
X398739Y248964D01*
X398716Y249017D01*
X398701Y249073D01*
X398658Y249146D01*
X398623Y249223D01*
X398585Y249268D01*
X398556Y249318D01*
X398494Y249376D01*
X398440Y249440D01*
X398391Y249472D01*
X398348Y249512D01*
X398273Y249551D01*
X398203Y249598D01*
X398147Y249615D01*
X398095Y249642D01*
X398027Y249653D01*
X397932Y249683D01*
X397832Y249686D01*
X397764Y249697D01*
X387253Y249697D01*
X385734Y251217D01*
X385687Y251252D01*
X385647Y251294D01*
X385574Y251337D01*
X385507Y251387D01*
X385452Y251408D01*
X385402Y251438D01*
X385320Y251459D01*
X385241Y251489D01*
X385183Y251494D01*
X385126Y251508D01*
X385042Y251505D01*
X384958Y251512D01*
X384900Y251501D01*
X384842Y251499D01*
X384762Y251473D01*
X384679Y251456D01*
X384627Y251429D01*
X384571Y251411D01*
X384515Y251371D01*
X384427Y251325D01*
X384354Y251257D01*
X384298Y251217D01*
X382779Y249697D01*
X370253Y249697D01*
X368467Y251483D01*
X368467Y252666D01*
X368459Y252724D01*
X368461Y252782D01*
X368439Y252864D01*
X368427Y252948D01*
X368404Y253001D01*
X368389Y253057D01*
X368346Y253130D01*
X368311Y253207D01*
X368273Y253252D01*
X368244Y253302D01*
X368182Y253360D01*
X368128Y253424D01*
X368079Y253456D01*
X368036Y253496D01*
X367961Y253535D01*
X367891Y253582D01*
X367835Y253599D01*
X367783Y253626D01*
X367715Y253637D01*
X367620Y253667D01*
X367520Y253670D01*
X367452Y253681D01*
X329350Y253681D01*
X329264Y253669D01*
X329176Y253666D01*
X329124Y253649D01*
X329069Y253641D01*
X328989Y253606D01*
X328906Y253579D01*
X328866Y253551D01*
X328809Y253525D01*
X328696Y253429D01*
X328632Y253384D01*
X324554Y249306D01*
X324537Y249282D01*
X324514Y249263D01*
X324451Y249169D01*
X324383Y249079D01*
X324373Y249051D01*
X324357Y249027D01*
X324322Y248919D01*
X324282Y248813D01*
X324280Y248784D01*
X324271Y248756D01*
X324268Y248642D01*
X324259Y248530D01*
X324264Y248501D01*
X324264Y248472D01*
X324292Y248362D01*
X324314Y248251D01*
X324328Y248225D01*
X324335Y248197D01*
X324393Y248099D01*
X324445Y247999D01*
X324466Y247977D01*
X324481Y247952D01*
X324563Y247875D01*
X324641Y247793D01*
X324667Y247778D01*
X324688Y247758D01*
X324789Y247706D01*
X324887Y247649D01*
X324915Y247642D01*
X324941Y247628D01*
X325018Y247615D01*
X325162Y247579D01*
X325225Y247581D01*
X325272Y247573D01*
X332287Y247573D01*
X334073Y245787D01*
X334073Y244604D01*
X334081Y244546D01*
X334079Y244488D01*
X334101Y244406D01*
X334113Y244322D01*
X334136Y244269D01*
X334151Y244213D01*
X334194Y244140D01*
X334229Y244063D01*
X334267Y244018D01*
X334296Y243968D01*
X334358Y243910D01*
X334412Y243846D01*
X334461Y243814D01*
X334504Y243774D01*
X334579Y243735D01*
X334649Y243688D01*
X334705Y243671D01*
X334757Y243644D01*
X334825Y243633D01*
X334920Y243603D01*
X335020Y243600D01*
X335088Y243589D01*
X337470Y243589D01*
X342139Y238920D01*
X342139Y234910D01*
X342151Y234823D01*
X342154Y234735D01*
X342171Y234683D01*
X342179Y234628D01*
X342214Y234548D01*
X342241Y234465D01*
X342269Y234426D01*
X342295Y234369D01*
X342391Y234255D01*
X342436Y234192D01*
X343889Y232739D01*
X344933Y230218D01*
X344933Y227490D01*
X343889Y224969D01*
X341959Y223039D01*
X339438Y221995D01*
X336710Y221995D01*
X334189Y223039D01*
X332259Y224969D01*
X331215Y227490D01*
X331215Y230284D01*
X331218Y230292D01*
X331219Y230320D01*
X331225Y230346D01*
X331222Y230461D01*
X331225Y230576D01*
X331218Y230603D01*
X331217Y230630D01*
X331182Y230740D01*
X331153Y230851D01*
X331139Y230875D01*
X331131Y230901D01*
X331067Y230997D01*
X331008Y231096D01*
X330988Y231115D01*
X330973Y231138D01*
X330885Y231212D01*
X330801Y231290D01*
X330776Y231303D01*
X330755Y231321D01*
X330650Y231367D01*
X330548Y231420D01*
X330523Y231424D01*
X330495Y231436D01*
X330229Y231473D01*
X330217Y231475D01*
X319761Y231475D01*
X318242Y232995D01*
X318195Y233030D01*
X318155Y233072D01*
X318082Y233115D01*
X318015Y233165D01*
X317960Y233186D01*
X317910Y233216D01*
X317828Y233237D01*
X317749Y233267D01*
X317691Y233272D01*
X317634Y233286D01*
X317550Y233283D01*
X317466Y233290D01*
X317408Y233279D01*
X317350Y233277D01*
X317270Y233251D01*
X317187Y233234D01*
X317135Y233207D01*
X317079Y233189D01*
X317023Y233149D01*
X316935Y233103D01*
X316862Y233035D01*
X316806Y232995D01*
X315287Y231475D01*
X302761Y231475D01*
X300975Y233261D01*
X300975Y245787D01*
X302761Y247573D01*
X310904Y247573D01*
X310990Y247585D01*
X311078Y247588D01*
X311131Y247605D01*
X311185Y247613D01*
X311265Y247648D01*
X311348Y247675D01*
X311388Y247703D01*
X311445Y247729D01*
X311558Y247825D01*
X311622Y247870D01*
X322884Y259132D01*
X325562Y261811D01*
X367452Y261811D01*
X367510Y261819D01*
X367568Y261817D01*
X367650Y261839D01*
X367734Y261851D01*
X367787Y261874D01*
X367843Y261889D01*
X367916Y261932D01*
X367993Y261967D01*
X368038Y262005D01*
X368088Y262034D01*
X368146Y262096D01*
X368210Y262150D01*
X368242Y262199D01*
X368282Y262242D01*
X368321Y262317D01*
X368368Y262387D01*
X368385Y262443D01*
X368412Y262495D01*
X368423Y262563D01*
X368453Y262658D01*
X368456Y262758D01*
X368467Y262826D01*
X368467Y264009D01*
X370253Y265795D01*
X378396Y265795D01*
X378482Y265807D01*
X378570Y265810D01*
X378623Y265827D01*
X378677Y265835D01*
X378757Y265870D01*
X378840Y265897D01*
X378880Y265925D01*
X378937Y265951D01*
X379050Y266047D01*
X379114Y266092D01*
X382124Y269102D01*
X384802Y271781D01*
X426372Y271781D01*
X443346Y254806D01*
X443416Y254754D01*
X443480Y254694D01*
X443529Y254668D01*
X443574Y254635D01*
X443655Y254604D01*
X443733Y254564D01*
X443781Y254556D01*
X443839Y254534D01*
X443987Y254522D01*
X444064Y254509D01*
X473108Y254509D01*
X490221Y237396D01*
X490221Y234655D01*
X490233Y234569D01*
X490236Y234481D01*
X490253Y234429D01*
X490261Y234374D01*
X490296Y234294D01*
X490323Y234211D01*
X490351Y234172D01*
X490377Y234115D01*
X490473Y234001D01*
X490518Y233938D01*
X491971Y232485D01*
X493015Y229964D01*
X493015Y227236D01*
X491971Y224715D01*
X490041Y222785D01*
X487520Y221741D01*
X484792Y221741D01*
X482271Y222785D01*
X481032Y224024D01*
X480985Y224060D01*
X480945Y224102D01*
X480872Y224145D01*
X480805Y224195D01*
X480750Y224216D01*
X480700Y224246D01*
X480618Y224266D01*
X480539Y224297D01*
X480481Y224301D01*
X480424Y224316D01*
X480340Y224313D01*
X480256Y224320D01*
X480198Y224309D01*
X480140Y224307D01*
X480060Y224281D01*
X479977Y224264D01*
X479925Y224237D01*
X479869Y224219D01*
X479813Y224179D01*
X479725Y224133D01*
X479652Y224064D01*
X479596Y224024D01*
X478357Y222785D01*
X475836Y221741D01*
X473108Y221741D01*
G37*
%LPD*%
%LPC*%
G36*
X416466Y50799D02*
X416466Y50799D01*
X413945Y51843D01*
X412015Y53773D01*
X410971Y56294D01*
X410971Y59022D01*
X411656Y60675D01*
X411664Y60705D01*
X411678Y60733D01*
X411691Y60810D01*
X411727Y60951D01*
X411725Y61015D01*
X411733Y61064D01*
X411733Y63856D01*
X411721Y63943D01*
X411718Y64030D01*
X411701Y64083D01*
X411693Y64138D01*
X411658Y64217D01*
X411631Y64301D01*
X411603Y64340D01*
X411577Y64397D01*
X411481Y64510D01*
X411436Y64574D01*
X398584Y77426D01*
X398514Y77478D01*
X398450Y77538D01*
X398401Y77564D01*
X398357Y77597D01*
X398275Y77628D01*
X398197Y77668D01*
X398150Y77676D01*
X398091Y77698D01*
X397943Y77710D01*
X397866Y77723D01*
X388216Y77723D01*
X388185Y77719D01*
X388154Y77721D01*
X388078Y77704D01*
X387934Y77683D01*
X387876Y77657D01*
X387827Y77646D01*
X386174Y76961D01*
X383446Y76961D01*
X381793Y77646D01*
X381763Y77654D01*
X381735Y77668D01*
X381658Y77681D01*
X381517Y77717D01*
X381453Y77715D01*
X381404Y77723D01*
X374453Y77723D01*
X372212Y78651D01*
X370898Y79966D01*
X370828Y80018D01*
X370764Y80078D01*
X370715Y80104D01*
X370671Y80137D01*
X370589Y80168D01*
X370511Y80208D01*
X370464Y80216D01*
X370405Y80238D01*
X370257Y80250D01*
X370180Y80263D01*
X366880Y80263D01*
X366849Y80259D01*
X366818Y80261D01*
X366742Y80244D01*
X366598Y80223D01*
X366540Y80197D01*
X366491Y80186D01*
X364838Y79501D01*
X362110Y79501D01*
X359589Y80545D01*
X357659Y82475D01*
X356615Y84996D01*
X356615Y87724D01*
X357659Y90245D01*
X359589Y92175D01*
X362110Y93219D01*
X364838Y93219D01*
X366491Y92534D01*
X366521Y92526D01*
X366549Y92512D01*
X366626Y92499D01*
X366767Y92463D01*
X366831Y92465D01*
X366880Y92457D01*
X374339Y92457D01*
X376580Y91529D01*
X377894Y90214D01*
X377964Y90162D01*
X378028Y90102D01*
X378077Y90076D01*
X378121Y90043D01*
X378203Y90012D01*
X378281Y89972D01*
X378328Y89964D01*
X378387Y89942D01*
X378535Y89930D01*
X378612Y89917D01*
X381404Y89917D01*
X381435Y89921D01*
X381466Y89919D01*
X381542Y89936D01*
X381686Y89957D01*
X381744Y89983D01*
X381793Y89994D01*
X383446Y90679D01*
X386174Y90679D01*
X387827Y89994D01*
X387857Y89986D01*
X387885Y89972D01*
X387962Y89959D01*
X388103Y89923D01*
X388167Y89925D01*
X388216Y89917D01*
X402025Y89917D01*
X404266Y88989D01*
X422999Y70256D01*
X423927Y68015D01*
X423927Y61064D01*
X423931Y61033D01*
X423929Y61002D01*
X423946Y60926D01*
X423967Y60782D01*
X423993Y60724D01*
X424004Y60675D01*
X424689Y59022D01*
X424689Y56294D01*
X423645Y53773D01*
X421715Y51843D01*
X419194Y50799D01*
X416466Y50799D01*
G37*
%LPD*%
%LPC*%
G36*
X618401Y140997D02*
X618401Y140997D01*
X615891Y142037D01*
X613969Y143959D01*
X612929Y146469D01*
X612929Y148490D01*
X612917Y148576D01*
X612914Y148664D01*
X612897Y148716D01*
X612889Y148771D01*
X612854Y148851D01*
X612827Y148934D01*
X612799Y148974D01*
X612773Y149031D01*
X612677Y149144D01*
X612632Y149208D01*
X597381Y164458D01*
X597381Y193370D01*
X597373Y193428D01*
X597375Y193486D01*
X597353Y193568D01*
X597341Y193652D01*
X597318Y193705D01*
X597303Y193761D01*
X597260Y193834D01*
X597225Y193911D01*
X597187Y193956D01*
X597158Y194006D01*
X597096Y194064D01*
X597042Y194128D01*
X596993Y194160D01*
X596950Y194200D01*
X596875Y194239D01*
X596805Y194286D01*
X596773Y194296D01*
X594897Y196171D01*
X594897Y202814D01*
X594885Y202900D01*
X594882Y202988D01*
X594865Y203041D01*
X594857Y203095D01*
X594822Y203175D01*
X594795Y203258D01*
X594767Y203298D01*
X594741Y203355D01*
X594645Y203468D01*
X594600Y203532D01*
X583450Y214682D01*
X583403Y214717D01*
X583363Y214760D01*
X583290Y214802D01*
X583222Y214853D01*
X583168Y214874D01*
X583117Y214903D01*
X583036Y214924D01*
X582957Y214954D01*
X582898Y214959D01*
X582842Y214973D01*
X582757Y214971D01*
X582673Y214978D01*
X582616Y214966D01*
X582558Y214964D01*
X582477Y214938D01*
X582395Y214922D01*
X582343Y214895D01*
X582287Y214877D01*
X582231Y214837D01*
X582142Y214791D01*
X582070Y214722D01*
X582014Y214682D01*
X581989Y214657D01*
X579468Y213613D01*
X576740Y213613D01*
X574219Y214657D01*
X572289Y216587D01*
X571245Y219108D01*
X571245Y221836D01*
X572289Y224357D01*
X574219Y226287D01*
X576740Y227331D01*
X579468Y227331D01*
X581989Y226287D01*
X583442Y224834D01*
X583511Y224782D01*
X583575Y224722D01*
X583625Y224696D01*
X583669Y224663D01*
X583751Y224632D01*
X583828Y224592D01*
X583876Y224584D01*
X583934Y224562D01*
X584082Y224550D01*
X584160Y224537D01*
X585092Y224537D01*
X587770Y221858D01*
X598848Y210780D01*
X598918Y210728D01*
X598982Y210668D01*
X599031Y210642D01*
X599075Y210609D01*
X599157Y210578D01*
X599235Y210538D01*
X599283Y210530D01*
X599341Y210508D01*
X599489Y210496D01*
X599566Y210483D01*
X606209Y210483D01*
X607995Y208697D01*
X607995Y196171D01*
X606124Y194301D01*
X606062Y194264D01*
X605985Y194229D01*
X605940Y194191D01*
X605890Y194162D01*
X605832Y194100D01*
X605768Y194046D01*
X605736Y193997D01*
X605696Y193954D01*
X605657Y193879D01*
X605610Y193809D01*
X605593Y193753D01*
X605566Y193701D01*
X605555Y193633D01*
X605525Y193538D01*
X605522Y193438D01*
X605511Y193370D01*
X605511Y168246D01*
X605523Y168160D01*
X605526Y168072D01*
X605543Y168020D01*
X605551Y167965D01*
X605586Y167885D01*
X605613Y167802D01*
X605641Y167762D01*
X605667Y167705D01*
X605763Y167592D01*
X605808Y167528D01*
X618380Y154956D01*
X618450Y154904D01*
X618514Y154844D01*
X618563Y154818D01*
X618608Y154785D01*
X618689Y154754D01*
X618767Y154714D01*
X618815Y154706D01*
X618873Y154684D01*
X619021Y154672D01*
X619098Y154659D01*
X621119Y154659D01*
X623629Y153619D01*
X625551Y151697D01*
X626591Y149187D01*
X626591Y146469D01*
X625551Y143959D01*
X623629Y142037D01*
X621119Y140997D01*
X618401Y140997D01*
G37*
%LPD*%
%LPC*%
G36*
X419768Y167385D02*
X419768Y167385D01*
X417247Y168429D01*
X415317Y170359D01*
X414273Y172880D01*
X414273Y175608D01*
X415317Y178129D01*
X416770Y179582D01*
X416822Y179651D01*
X416882Y179715D01*
X416908Y179765D01*
X416941Y179809D01*
X416972Y179891D01*
X417012Y179968D01*
X417020Y180016D01*
X417042Y180074D01*
X417054Y180222D01*
X417067Y180300D01*
X417067Y202732D01*
X417055Y202819D01*
X417052Y202907D01*
X417035Y202959D01*
X417027Y203014D01*
X416992Y203094D01*
X416965Y203177D01*
X416937Y203216D01*
X416911Y203273D01*
X416815Y203387D01*
X416770Y203450D01*
X415317Y204903D01*
X414273Y207424D01*
X414273Y210152D01*
X415317Y212673D01*
X417247Y214603D01*
X419768Y215647D01*
X422496Y215647D01*
X425017Y214603D01*
X425875Y213745D01*
X425922Y213710D01*
X425962Y213667D01*
X426035Y213624D01*
X426102Y213574D01*
X426157Y213553D01*
X426207Y213523D01*
X426289Y213502D01*
X426368Y213472D01*
X426426Y213468D01*
X426483Y213453D01*
X426567Y213456D01*
X426651Y213449D01*
X426709Y213460D01*
X426767Y213462D01*
X426847Y213488D01*
X426930Y213505D01*
X426982Y213532D01*
X427038Y213550D01*
X427094Y213590D01*
X427182Y213636D01*
X427255Y213704D01*
X427311Y213745D01*
X428169Y214603D01*
X430690Y215647D01*
X433418Y215647D01*
X435939Y214603D01*
X437869Y212673D01*
X438913Y210152D01*
X438913Y207424D01*
X437869Y204903D01*
X436416Y203450D01*
X436364Y203381D01*
X436304Y203317D01*
X436278Y203267D01*
X436245Y203223D01*
X436214Y203141D01*
X436174Y203064D01*
X436166Y203016D01*
X436144Y202958D01*
X436132Y202810D01*
X436119Y202732D01*
X436119Y180045D01*
X436131Y179959D01*
X436134Y179871D01*
X436151Y179819D01*
X436159Y179764D01*
X436194Y179684D01*
X436221Y179601D01*
X436249Y179562D01*
X436275Y179505D01*
X436371Y179391D01*
X436416Y179328D01*
X437615Y178129D01*
X438659Y175608D01*
X438659Y172880D01*
X437615Y170359D01*
X435685Y168429D01*
X433164Y167385D01*
X430436Y167385D01*
X427915Y168429D01*
X427184Y169160D01*
X427137Y169196D01*
X427097Y169238D01*
X427024Y169281D01*
X426957Y169331D01*
X426902Y169352D01*
X426852Y169382D01*
X426770Y169402D01*
X426691Y169433D01*
X426633Y169437D01*
X426576Y169452D01*
X426492Y169449D01*
X426408Y169456D01*
X426350Y169445D01*
X426292Y169443D01*
X426212Y169417D01*
X426129Y169400D01*
X426077Y169373D01*
X426021Y169355D01*
X425965Y169315D01*
X425877Y169269D01*
X425804Y169200D01*
X425748Y169160D01*
X425017Y168429D01*
X422496Y167385D01*
X419768Y167385D01*
G37*
%LPD*%
%LPC*%
G36*
X197518Y247903D02*
X197518Y247903D01*
X194997Y248947D01*
X193067Y250877D01*
X192023Y253398D01*
X192023Y256126D01*
X193067Y258647D01*
X194997Y260577D01*
X197518Y261621D01*
X200246Y261621D01*
X202767Y260577D01*
X204220Y259124D01*
X204289Y259072D01*
X204353Y259012D01*
X204403Y258986D01*
X204447Y258953D01*
X204529Y258922D01*
X204606Y258882D01*
X204654Y258874D01*
X204712Y258852D01*
X204860Y258840D01*
X204937Y258827D01*
X281106Y258827D01*
X281192Y258839D01*
X281280Y258842D01*
X281332Y258859D01*
X281387Y258867D01*
X281467Y258902D01*
X281550Y258929D01*
X281590Y258957D01*
X281647Y258983D01*
X281760Y259079D01*
X281824Y259124D01*
X283420Y260720D01*
X283472Y260790D01*
X283532Y260854D01*
X283558Y260903D01*
X283591Y260947D01*
X283622Y261029D01*
X283662Y261107D01*
X283670Y261155D01*
X283692Y261213D01*
X283704Y261361D01*
X283717Y261438D01*
X283717Y263492D01*
X284761Y266013D01*
X286691Y267943D01*
X289212Y268987D01*
X291940Y268987D01*
X294461Y267943D01*
X296391Y266013D01*
X297435Y263492D01*
X297435Y260764D01*
X296391Y258243D01*
X294461Y256313D01*
X291940Y255269D01*
X289886Y255269D01*
X289800Y255257D01*
X289712Y255254D01*
X289659Y255237D01*
X289605Y255229D01*
X289525Y255194D01*
X289442Y255167D01*
X289402Y255139D01*
X289345Y255113D01*
X289232Y255017D01*
X289168Y254972D01*
X284894Y250697D01*
X204937Y250697D01*
X204851Y250685D01*
X204763Y250682D01*
X204711Y250665D01*
X204656Y250657D01*
X204576Y250622D01*
X204493Y250595D01*
X204454Y250567D01*
X204397Y250541D01*
X204283Y250445D01*
X204220Y250400D01*
X202767Y248947D01*
X200246Y247903D01*
X197518Y247903D01*
G37*
%LPD*%
%LPC*%
G36*
X644563Y213641D02*
X644563Y213641D01*
X642053Y214681D01*
X640131Y216603D01*
X639091Y219113D01*
X639091Y221134D01*
X639079Y221220D01*
X639076Y221308D01*
X639059Y221360D01*
X639051Y221415D01*
X639016Y221495D01*
X638989Y221578D01*
X638961Y221618D01*
X638935Y221675D01*
X638839Y221788D01*
X638794Y221852D01*
X616850Y243796D01*
X616780Y243848D01*
X616716Y243908D01*
X616667Y243934D01*
X616622Y243967D01*
X616541Y243998D01*
X616463Y244038D01*
X616415Y244046D01*
X616357Y244068D01*
X616209Y244080D01*
X616132Y244093D01*
X572690Y244093D01*
X572603Y244081D01*
X572516Y244078D01*
X572463Y244061D01*
X572408Y244053D01*
X572329Y244018D01*
X572245Y243991D01*
X572206Y243963D01*
X572149Y243937D01*
X572036Y243841D01*
X571972Y243796D01*
X570543Y242367D01*
X568033Y241327D01*
X565315Y241327D01*
X562805Y242367D01*
X560883Y244289D01*
X559843Y246799D01*
X559843Y249517D01*
X560883Y252027D01*
X562805Y253949D01*
X565315Y254989D01*
X568033Y254989D01*
X570543Y253949D01*
X571972Y252520D01*
X572042Y252468D01*
X572106Y252408D01*
X572155Y252382D01*
X572199Y252349D01*
X572281Y252318D01*
X572359Y252278D01*
X572406Y252270D01*
X572465Y252248D01*
X572613Y252236D01*
X572690Y252223D01*
X619920Y252223D01*
X644542Y227600D01*
X644612Y227548D01*
X644676Y227488D01*
X644725Y227462D01*
X644770Y227429D01*
X644851Y227398D01*
X644929Y227358D01*
X644977Y227350D01*
X645035Y227328D01*
X645183Y227316D01*
X645260Y227303D01*
X647281Y227303D01*
X649791Y226263D01*
X651713Y224341D01*
X652753Y221831D01*
X652753Y219113D01*
X651713Y216603D01*
X649791Y214681D01*
X647281Y213641D01*
X644563Y213641D01*
G37*
%LPD*%
%LPC*%
G36*
X160434Y224535D02*
X160434Y224535D01*
X157913Y225579D01*
X155983Y227509D01*
X154939Y230030D01*
X154939Y232758D01*
X155427Y233935D01*
X155448Y234018D01*
X155479Y234098D01*
X155483Y234155D01*
X155498Y234210D01*
X155495Y234296D01*
X155502Y234382D01*
X155491Y234437D01*
X155489Y234494D01*
X155463Y234576D01*
X155446Y234660D01*
X155420Y234711D01*
X155403Y234765D01*
X155355Y234836D01*
X155315Y234913D01*
X155276Y234954D01*
X155244Y235001D01*
X155179Y235056D01*
X155120Y235119D01*
X155070Y235148D01*
X155027Y235184D01*
X154948Y235219D01*
X154874Y235263D01*
X154819Y235277D01*
X154767Y235300D01*
X154682Y235311D01*
X154599Y235333D01*
X154542Y235331D01*
X154486Y235339D01*
X154400Y235326D01*
X154315Y235324D01*
X154260Y235306D01*
X154204Y235298D01*
X154126Y235263D01*
X154044Y235236D01*
X154004Y235207D01*
X153945Y235181D01*
X153835Y235087D01*
X153771Y235041D01*
X153183Y234453D01*
X143657Y234453D01*
X141871Y236239D01*
X141871Y248765D01*
X143657Y250551D01*
X153183Y250551D01*
X154969Y248765D01*
X154969Y236715D01*
X154973Y236686D01*
X154970Y236657D01*
X154993Y236546D01*
X155009Y236434D01*
X155021Y236407D01*
X155026Y236378D01*
X155079Y236278D01*
X155125Y236175D01*
X155144Y236152D01*
X155157Y236126D01*
X155235Y236044D01*
X155308Y235958D01*
X155333Y235941D01*
X155353Y235920D01*
X155451Y235863D01*
X155545Y235800D01*
X155573Y235791D01*
X155598Y235776D01*
X155708Y235748D01*
X155816Y235714D01*
X155846Y235713D01*
X155874Y235706D01*
X155987Y235710D01*
X156100Y235707D01*
X156129Y235714D01*
X156158Y235715D01*
X156266Y235750D01*
X156375Y235779D01*
X156401Y235794D01*
X156429Y235803D01*
X156493Y235848D01*
X156620Y235924D01*
X156663Y235970D01*
X156702Y235998D01*
X157436Y236732D01*
X157489Y236802D01*
X157548Y236865D01*
X157574Y236915D01*
X157607Y236959D01*
X157638Y237041D01*
X157678Y237118D01*
X157686Y237166D01*
X157708Y237224D01*
X157720Y237372D01*
X157733Y237450D01*
X157733Y248706D01*
X157721Y248793D01*
X157718Y248881D01*
X157701Y248933D01*
X157693Y248988D01*
X157658Y249068D01*
X157631Y249151D01*
X157603Y249190D01*
X157577Y249247D01*
X157481Y249361D01*
X157469Y249378D01*
X157462Y249390D01*
X157457Y249394D01*
X157436Y249424D01*
X155983Y250877D01*
X154939Y253398D01*
X154939Y256126D01*
X155983Y258647D01*
X157913Y260577D01*
X160434Y261621D01*
X163162Y261621D01*
X165683Y260577D01*
X167613Y258647D01*
X168657Y256126D01*
X168657Y253398D01*
X167613Y250877D01*
X166160Y249424D01*
X166108Y249355D01*
X166048Y249291D01*
X166022Y249241D01*
X165989Y249197D01*
X165958Y249115D01*
X165918Y249038D01*
X165910Y248990D01*
X165888Y248932D01*
X165876Y248784D01*
X165863Y248706D01*
X165863Y237450D01*
X165875Y237363D01*
X165878Y237275D01*
X165895Y237223D01*
X165903Y237168D01*
X165938Y237088D01*
X165965Y237005D01*
X165993Y236966D01*
X166019Y236909D01*
X166115Y236795D01*
X166160Y236732D01*
X167613Y235279D01*
X168657Y232758D01*
X168657Y230030D01*
X167613Y227509D01*
X165683Y225579D01*
X163162Y224535D01*
X160434Y224535D01*
G37*
%LPD*%
%LPC*%
G36*
X25132Y170671D02*
X25132Y170671D01*
X21792Y172055D01*
X19235Y174612D01*
X17851Y177952D01*
X17851Y181568D01*
X19235Y184908D01*
X21792Y187465D01*
X25132Y188849D01*
X40828Y188849D01*
X44168Y187465D01*
X46725Y184908D01*
X48109Y181568D01*
X48109Y177952D01*
X46725Y174612D01*
X44168Y172055D01*
X40828Y170671D01*
X25132Y170671D01*
G37*
%LPD*%
%LPC*%
G36*
X106657Y174453D02*
X106657Y174453D01*
X104871Y176239D01*
X104871Y188765D01*
X105112Y189005D01*
X105164Y189075D01*
X105224Y189139D01*
X105250Y189189D01*
X105283Y189233D01*
X105314Y189314D01*
X105354Y189392D01*
X105362Y189440D01*
X105384Y189498D01*
X105396Y189646D01*
X105409Y189723D01*
X105409Y193334D01*
X105397Y193421D01*
X105394Y193509D01*
X105377Y193561D01*
X105369Y193616D01*
X105334Y193696D01*
X105307Y193779D01*
X105279Y193818D01*
X105253Y193875D01*
X105157Y193989D01*
X105112Y194052D01*
X103659Y195505D01*
X102615Y198026D01*
X102615Y200754D01*
X103659Y203275D01*
X105589Y205205D01*
X108110Y206249D01*
X110838Y206249D01*
X113359Y205205D01*
X115289Y203275D01*
X116333Y200754D01*
X116333Y198026D01*
X115289Y195505D01*
X113836Y194052D01*
X113784Y193983D01*
X113724Y193919D01*
X113698Y193869D01*
X113665Y193825D01*
X113634Y193743D01*
X113594Y193666D01*
X113586Y193618D01*
X113564Y193560D01*
X113552Y193412D01*
X113539Y193334D01*
X113539Y191566D01*
X113547Y191508D01*
X113545Y191450D01*
X113567Y191368D01*
X113579Y191284D01*
X113602Y191231D01*
X113617Y191175D01*
X113660Y191102D01*
X113695Y191025D01*
X113733Y190980D01*
X113762Y190930D01*
X113824Y190872D01*
X113878Y190808D01*
X113927Y190776D01*
X113970Y190736D01*
X114045Y190697D01*
X114115Y190650D01*
X114171Y190633D01*
X114223Y190606D01*
X114291Y190595D01*
X114386Y190565D01*
X114486Y190562D01*
X114554Y190551D01*
X116183Y190551D01*
X117969Y188765D01*
X117969Y176239D01*
X116183Y174453D01*
X106657Y174453D01*
G37*
%LPD*%
%LPC*%
G36*
X633683Y254385D02*
X633683Y254385D01*
X631897Y256171D01*
X631897Y268697D01*
X633683Y270483D01*
X643209Y270483D01*
X644995Y268697D01*
X644995Y256171D01*
X643209Y254385D01*
X633683Y254385D01*
G37*
%LPD*%
%LPC*%
G36*
X596683Y254385D02*
X596683Y254385D01*
X594897Y256171D01*
X594897Y268697D01*
X596683Y270483D01*
X606209Y270483D01*
X607995Y268697D01*
X607995Y256171D01*
X606209Y254385D01*
X596683Y254385D01*
G37*
%LPD*%
%LPC*%
G36*
X106657Y234453D02*
X106657Y234453D01*
X104871Y236239D01*
X104871Y248765D01*
X106657Y250551D01*
X116183Y250551D01*
X117969Y248765D01*
X117969Y236239D01*
X116183Y234453D01*
X106657Y234453D01*
G37*
%LPD*%
%LPC*%
G36*
X106721Y115939D02*
X106721Y115939D01*
X104935Y117725D01*
X104935Y130251D01*
X106721Y132037D01*
X116247Y132037D01*
X118033Y130251D01*
X118033Y117725D01*
X116247Y115939D01*
X106721Y115939D01*
G37*
%LPD*%
%LPC*%
G36*
X143721Y115939D02*
X143721Y115939D01*
X141935Y117725D01*
X141935Y130251D01*
X143721Y132037D01*
X153247Y132037D01*
X155033Y130251D01*
X155033Y117725D01*
X153247Y115939D01*
X143721Y115939D01*
G37*
%LPD*%
%LPC*%
G36*
X34729Y161509D02*
X34729Y161509D01*
X34729Y168341D01*
X39865Y168341D01*
X41523Y168011D01*
X43084Y167364D01*
X44490Y166425D01*
X45685Y165230D01*
X46624Y163824D01*
X47271Y162263D01*
X47421Y161509D01*
X34729Y161509D01*
G37*
%LPD*%
%LPC*%
G36*
X18539Y161509D02*
X18539Y161509D01*
X18689Y162263D01*
X19336Y163824D01*
X20275Y165230D01*
X21470Y166425D01*
X22876Y167364D01*
X24437Y168011D01*
X26095Y168341D01*
X31231Y168341D01*
X31231Y161509D01*
X18539Y161509D01*
G37*
%LPD*%
%LPC*%
G36*
X34729Y151179D02*
X34729Y151179D01*
X34729Y158011D01*
X47421Y158011D01*
X47271Y157257D01*
X46624Y155696D01*
X45685Y154290D01*
X44490Y153095D01*
X43084Y152156D01*
X41523Y151509D01*
X39865Y151179D01*
X34729Y151179D01*
G37*
%LPD*%
%LPC*%
G36*
X26095Y151179D02*
X26095Y151179D01*
X24437Y151509D01*
X22876Y152156D01*
X21470Y153095D01*
X20275Y154290D01*
X19336Y155696D01*
X18689Y157257D01*
X18539Y158011D01*
X31231Y158011D01*
X31231Y151179D01*
X26095Y151179D01*
G37*
%LPD*%
%LPC*%
G36*
X640195Y204183D02*
X640195Y204183D01*
X640195Y209975D01*
X642280Y209975D01*
X642927Y209802D01*
X643506Y209467D01*
X643979Y208994D01*
X644314Y208415D01*
X644487Y207768D01*
X644487Y204183D01*
X640195Y204183D01*
G37*
%LPD*%
%LPC*%
G36*
X150169Y184251D02*
X150169Y184251D01*
X150169Y190043D01*
X152254Y190043D01*
X152901Y189870D01*
X153480Y189535D01*
X153953Y189062D01*
X154288Y188483D01*
X154461Y187836D01*
X154461Y184251D01*
X150169Y184251D01*
G37*
%LPD*%
%LPC*%
G36*
X150233Y65737D02*
X150233Y65737D01*
X150233Y71529D01*
X152318Y71529D01*
X152965Y71356D01*
X153544Y71021D01*
X154017Y70548D01*
X154352Y69969D01*
X154525Y69322D01*
X154525Y65737D01*
X150233Y65737D01*
G37*
%LPD*%
%LPC*%
G36*
X150169Y174961D02*
X150169Y174961D01*
X150169Y180753D01*
X154461Y180753D01*
X154461Y177168D01*
X154288Y176521D01*
X153953Y175942D01*
X153480Y175469D01*
X152901Y175134D01*
X152254Y174961D01*
X150169Y174961D01*
G37*
%LPD*%
%LPC*%
G36*
X640195Y194893D02*
X640195Y194893D01*
X640195Y200685D01*
X644487Y200685D01*
X644487Y197100D01*
X644314Y196453D01*
X643979Y195874D01*
X643506Y195401D01*
X642927Y195066D01*
X642280Y194893D01*
X640195Y194893D01*
G37*
%LPD*%
%LPC*%
G36*
X150233Y56447D02*
X150233Y56447D01*
X150233Y62239D01*
X154525Y62239D01*
X154525Y58654D01*
X154352Y58007D01*
X154017Y57428D01*
X153544Y56955D01*
X152965Y56620D01*
X152318Y56447D01*
X150233Y56447D01*
G37*
%LPD*%
%LPC*%
G36*
X640059Y36149D02*
X640059Y36149D01*
X640059Y41941D01*
X644351Y41941D01*
X644351Y38356D01*
X644178Y37709D01*
X643843Y37130D01*
X643370Y36657D01*
X642791Y36322D01*
X642144Y36149D01*
X640059Y36149D01*
G37*
%LPD*%
%LPC*%
G36*
X632405Y204183D02*
X632405Y204183D01*
X632405Y207768D01*
X632578Y208415D01*
X632913Y208994D01*
X633386Y209467D01*
X633965Y209802D01*
X634612Y209975D01*
X636697Y209975D01*
X636697Y204183D01*
X632405Y204183D01*
G37*
%LPD*%
%LPC*%
G36*
X142379Y184251D02*
X142379Y184251D01*
X142379Y187836D01*
X142552Y188483D01*
X142887Y189062D01*
X143360Y189535D01*
X143939Y189870D01*
X144586Y190043D01*
X146671Y190043D01*
X146671Y184251D01*
X142379Y184251D01*
G37*
%LPD*%
%LPC*%
G36*
X142443Y65737D02*
X142443Y65737D01*
X142443Y69322D01*
X142616Y69969D01*
X142951Y70548D01*
X143424Y71021D01*
X144003Y71356D01*
X144650Y71529D01*
X146735Y71529D01*
X146735Y65737D01*
X142443Y65737D01*
G37*
%LPD*%
%LPC*%
G36*
X144586Y174961D02*
X144586Y174961D01*
X143939Y175134D01*
X143360Y175469D01*
X142887Y175942D01*
X142552Y176521D01*
X142379Y177168D01*
X142379Y180753D01*
X146671Y180753D01*
X146671Y174961D01*
X144586Y174961D01*
G37*
%LPD*%
%LPC*%
G36*
X634612Y194893D02*
X634612Y194893D01*
X633965Y195066D01*
X633386Y195401D01*
X632913Y195874D01*
X632578Y196453D01*
X632405Y197100D01*
X632405Y200685D01*
X636697Y200685D01*
X636697Y194893D01*
X634612Y194893D01*
G37*
%LPD*%
%LPC*%
G36*
X144650Y56447D02*
X144650Y56447D01*
X144003Y56620D01*
X143424Y56955D01*
X142951Y57428D01*
X142616Y58007D01*
X142443Y58654D01*
X142443Y62239D01*
X146735Y62239D01*
X146735Y56447D01*
X144650Y56447D01*
G37*
%LPD*%
%LPC*%
G36*
X634476Y36149D02*
X634476Y36149D01*
X633829Y36322D01*
X633250Y36657D01*
X632777Y37130D01*
X632442Y37709D01*
X632269Y38356D01*
X632269Y41941D01*
X636561Y41941D01*
X636561Y36149D01*
X634476Y36149D01*
G37*
%LPD*%
D10*
X26940Y119760D02*
X39020Y119760D01*
X39020Y139760D02*
X26940Y139760D01*
X26940Y159760D02*
X39020Y159760D01*
X39020Y179760D02*
X26940Y179760D01*
D11*
X259532Y55254D03*
X276532Y55254D03*
D12*
X601446Y202434D03*
X601446Y262434D03*
X638446Y202434D03*
X638446Y262434D03*
X111484Y63988D03*
X111484Y123988D03*
X148484Y63988D03*
X148484Y123988D03*
X111420Y182502D03*
X111420Y242502D03*
X148420Y182502D03*
X148420Y242502D03*
X601310Y43690D03*
X601310Y103690D03*
X638310Y43690D03*
X638310Y103690D03*
D11*
X241500Y122524D03*
X258500Y122524D03*
X259548Y190302D03*
X276548Y190302D03*
X309024Y239524D03*
X326024Y239524D03*
X376516Y257746D03*
X393516Y257746D03*
X444008Y239524D03*
X461008Y239524D03*
X493262Y190270D03*
X510262Y190270D03*
X511484Y122508D03*
X528484Y122508D03*
X493500Y55254D03*
X510500Y55254D03*
D13*
X625760Y180944D03*
X625760Y192944D03*
X613760Y180944D03*
X613760Y192944D03*
D14*
X98806Y265430D03*
X254508Y240538D03*
X212598Y247650D03*
X653288Y260604D03*
X585470Y260858D03*
X124079Y226441D03*
X130556Y31242D03*
X141224Y158496D03*
X712978Y182880D03*
X447294Y57658D03*
X438658Y104394D03*
X384810Y44704D03*
X649224Y28956D03*
X348996Y50800D03*
X536702Y257810D03*
X377952Y168910D03*
D15*
X617220Y231902D03*
X531876Y79248D03*
D16*
X668528Y243586D02*
X723646Y188468D01*
X668528Y243586D02*
X654050Y243586D01*
D14*
X654050Y243586D03*
X504444Y98298D03*
X485140Y98044D03*
D17*
X504190Y98044D02*
X504444Y98298D01*
X504190Y98044D02*
X485140Y98044D01*
D16*
X723646Y100838D02*
X723646Y188468D01*
X723646Y100838D02*
X713994Y91186D01*
X702818Y91186D01*
D15*
X702818Y91186D03*
D14*
X202438Y86360D03*
D17*
X207010Y81788D01*
X207010Y39878D02*
X216154Y30734D01*
X614680Y30734D01*
X618236Y34290D01*
D14*
X618236Y34290D03*
D17*
X207010Y39878D02*
X207010Y81788D01*
D14*
X195834Y71374D03*
D17*
X195834Y41910D01*
X212344Y25400D01*
X623062Y25400D01*
X627126Y29464D01*
D14*
X627126Y29464D03*
D17*
X36704Y119760D02*
X32980Y119760D01*
X36704Y119760D02*
X94488Y61976D01*
X94488Y31750D01*
X112268Y13970D01*
X680466Y30734D02*
X680466Y100076D01*
D14*
X680466Y100076D03*
D17*
X663702Y13970D02*
X112268Y13970D01*
X663702Y13970D02*
X680466Y30734D01*
X38548Y139760D02*
X32980Y139760D01*
X54864Y123444D02*
X54864Y109982D01*
X54864Y123444D02*
X38548Y139760D01*
X54864Y109982D02*
X99822Y65024D01*
X99822Y35052D01*
X115570Y19304D01*
X661924Y19304D02*
X675894Y33274D01*
X675894Y86868D01*
X671576Y91186D01*
X661924Y19304D02*
X115570Y19304D01*
D14*
X671576Y91186D03*
X198882Y254762D03*
D17*
X283210Y254762D01*
X290576Y262128D01*
D14*
X290576Y262128D03*
D17*
X583408Y220472D02*
X601446Y202434D01*
X583408Y220472D02*
X578104Y220472D01*
D14*
X578104Y220472D03*
D17*
X601446Y202434D02*
X601446Y166142D01*
X619760Y147828D01*
D15*
X619760Y147828D03*
D17*
X611376Y43690D02*
X601310Y43690D01*
X611376Y43690D02*
X611378Y43688D01*
D14*
X611378Y43688D03*
X111252Y51816D03*
D17*
X111252Y63756D02*
X111484Y63988D01*
X111252Y63756D02*
X111252Y51816D01*
D14*
X477266Y38100D03*
D17*
X581660Y38100D01*
X597916Y54356D01*
X647700Y54356D01*
X656082Y62738D01*
X656082Y71628D01*
D14*
X656082Y71628D03*
X109474Y199390D03*
D17*
X109474Y184448D01*
X111420Y182502D01*
D14*
X161798Y231394D03*
D17*
X161798Y254762D01*
D14*
X161798Y254762D03*
X287528Y55626D03*
D17*
X287156Y55254D01*
X276532Y55254D01*
X259532Y55254D02*
X241500Y73286D01*
X241500Y122524D01*
X241500Y172254D01*
X259548Y190302D01*
X269652Y200406D01*
X290830Y200406D01*
D14*
X290830Y200406D03*
D17*
X309024Y239524D02*
X327246Y257746D01*
X376516Y257746D01*
X386486Y267716D01*
D14*
X486156Y228600D03*
D17*
X486156Y235712D01*
X443992Y250444D02*
X441960Y250444D01*
X443992Y250444D02*
X471424Y250444D01*
X486156Y235712D01*
X441960Y250444D02*
X424688Y267716D01*
X386486Y267716D01*
X444008Y250428D02*
X444008Y239524D01*
X444008Y250428D02*
X443992Y250444D01*
X493500Y73384D02*
X493500Y55254D01*
X493500Y73384D02*
X511556Y91440D01*
X511556Y122436D01*
X511484Y122508D01*
D14*
X516908Y166624D03*
D17*
X511484Y122508D02*
X496744Y122508D01*
X493262Y166624D02*
X493262Y190270D01*
X493262Y166624D02*
X493262Y125990D01*
X496744Y122508D01*
X493262Y166624D02*
X516908Y166624D01*
D14*
X338074Y228854D03*
D17*
X338074Y237236D01*
X335786Y239524D02*
X326024Y239524D01*
X335786Y239524D02*
X338074Y237236D01*
D14*
X523240Y179070D03*
D17*
X523240Y187198D01*
X520168Y190270D02*
X510262Y190270D01*
X520168Y190270D02*
X523240Y187198D01*
D14*
X270510Y112014D03*
D17*
X270510Y120396D01*
X268382Y122524D02*
X258500Y122524D01*
X268382Y122524D02*
X270510Y120396D01*
D14*
X405638Y247650D03*
D17*
X405638Y255016D01*
X402844Y257810D01*
X393580Y257810D01*
X393516Y257746D01*
D14*
X541782Y112014D03*
D17*
X541782Y120142D01*
X539242Y122682D01*
X528658Y122682D01*
X528484Y122508D01*
D14*
X287782Y173990D03*
D17*
X287782Y188468D01*
X285948Y190302D02*
X276548Y190302D01*
X285948Y190302D02*
X287782Y188468D01*
D14*
X474472Y228600D03*
D17*
X474472Y236474D01*
X471422Y239524D02*
X461008Y239524D01*
X471422Y239524D02*
X474472Y236474D01*
X510618Y55372D02*
X510500Y55254D01*
X510618Y55372D02*
X524256Y55372D01*
D14*
X524256Y55372D03*
X259588Y208788D03*
D17*
X283464Y208788D01*
D14*
X283464Y208788D03*
X384810Y83820D03*
D18*
X400812Y83820D01*
X417830Y66802D02*
X417830Y57658D01*
X417830Y66802D02*
X400812Y83820D01*
D14*
X417830Y57658D03*
D18*
X384810Y83820D02*
X375666Y83820D01*
X373126Y86360D01*
X363474Y86360D01*
D14*
X363474Y86360D03*
X549910Y70358D03*
D17*
X549910Y76200D01*
X588518Y114808D01*
X639064Y114808D01*
D15*
X639064Y114808D03*
D14*
X431800Y174244D03*
X432054Y208788D03*
D17*
X432054Y174498D01*
X431800Y174244D01*
D15*
X542544Y82804D03*
D17*
X549148Y82804D02*
X586232Y119888D01*
X549148Y82804D02*
X542544Y82804D01*
X586232Y119888D02*
X633730Y119888D01*
X640080Y126238D02*
X647700Y126238D01*
D15*
X647700Y126238D03*
D17*
X640080Y126238D02*
X633730Y119888D01*
D14*
X421132Y208788D03*
D17*
X421132Y174244D01*
D14*
X421132Y174244D03*
X652272Y83312D03*
D17*
X648716Y79756D01*
X648716Y71374D01*
X637032Y59690D01*
X595884Y59690D02*
X579120Y42926D01*
X484124Y42926D01*
X481076Y45974D01*
X474218Y45974D01*
X464312Y36068D01*
X376936Y36068D01*
X362204Y50800D02*
X362204Y67564D01*
D14*
X362204Y67564D03*
D17*
X595884Y59690D02*
X637032Y59690D01*
X376936Y36068D02*
X362204Y50800D01*
D14*
X510794Y68834D03*
D17*
X534416Y68834D01*
X541020Y62230D01*
X591058Y62230D01*
X594614Y65786D02*
X629666Y65786D01*
X636016Y72136D01*
D15*
X636016Y72136D03*
D17*
X594614Y65786D02*
X591058Y62230D01*
D15*
X566674Y248158D03*
X645922Y220472D03*
D17*
X618236Y248158D02*
X566674Y248158D01*
X618236Y248158D02*
X645922Y220472D01*
D15*
X641350Y81026D03*
D17*
X603758Y81026D01*
X592836Y91948D01*
D15*
X592836Y91948D03*
M02*
