G04 EAGLE Gerber RS-274X export*
G75*
%MOMM*%
%FSLAX34Y34*%
%LPD*%
%INBottom Copper*%
%IPPOS*%
%AMOC8*
5,1,8,0,0,1.08239X$1,22.5*%
G01*
%ADD10R,0.900000X0.800000*%
%ADD11C,1.600000*%
%ADD12R,0.762000X2.413000*%
%ADD13C,1.208000*%
%ADD14R,1.000000X1.000000*%
%ADD15R,0.770000X0.420000*%
%ADD16C,0.490000*%
%ADD17R,0.800000X0.600000*%
%ADD18R,0.650000X1.050000*%
%ADD19R,0.800000X0.900000*%
%ADD20R,1.150000X0.270000*%
%ADD21R,3.750000X3.750000*%
%ADD22R,0.270000X1.150000*%
%ADD23C,0.808000*%
%ADD24C,0.609600*%
%ADD25C,0.508000*%
%ADD26C,0.406400*%
%ADD27C,0.762000*%
%ADD28C,0.203200*%
%ADD29C,0.756400*%
%ADD30C,0.304800*%
%ADD31C,0.266700*%
%ADD32C,0.177800*%


D10*
X397924Y76962D03*
X417924Y86462D03*
X417924Y67462D03*
X371696Y76962D03*
X351696Y67462D03*
X351696Y86462D03*
X373220Y132080D03*
X353220Y122580D03*
X353220Y141580D03*
X396400Y132080D03*
X416400Y141580D03*
X416400Y122580D03*
D11*
X154940Y170180D03*
X154940Y144780D03*
X180340Y170180D03*
X180340Y144780D03*
X129540Y144780D03*
D12*
X181610Y51562D03*
X181610Y90678D03*
X168910Y51562D03*
X168910Y90678D03*
X156210Y51562D03*
X156210Y90678D03*
X143510Y51562D03*
X143510Y90678D03*
X130810Y51562D03*
X130810Y90678D03*
D13*
X39020Y119760D02*
X26940Y119760D01*
X26940Y139760D02*
X39020Y139760D01*
X39020Y159760D02*
X26940Y159760D01*
X26940Y179760D02*
X39020Y179760D01*
D14*
X611632Y243468D03*
X611632Y260468D03*
X352180Y160020D03*
X369180Y160020D03*
X449580Y121530D03*
X449580Y104530D03*
D15*
X243180Y241150D03*
X243180Y247650D03*
X243180Y254150D03*
X224180Y241150D03*
X224180Y247650D03*
X224180Y254150D03*
D16*
X149330Y279230D02*
X140230Y279230D01*
X149330Y279230D02*
X149330Y251630D01*
X140230Y251630D01*
X140230Y279230D01*
X140230Y256285D02*
X149330Y256285D01*
X149330Y260940D02*
X140230Y260940D01*
X140230Y265595D02*
X149330Y265595D01*
X149330Y270250D02*
X140230Y270250D01*
X140230Y274905D02*
X149330Y274905D01*
X118850Y279230D02*
X109750Y279230D01*
X118850Y279230D02*
X118850Y251630D01*
X109750Y251630D01*
X109750Y279230D01*
X109750Y256285D02*
X118850Y256285D01*
X118850Y260940D02*
X109750Y260940D01*
X109750Y265595D02*
X118850Y265595D01*
X118850Y270250D02*
X109750Y270250D01*
X109750Y274905D02*
X118850Y274905D01*
X364004Y46820D02*
X373104Y46820D01*
X373104Y19220D01*
X364004Y19220D01*
X364004Y46820D01*
X364004Y23875D02*
X373104Y23875D01*
X373104Y28530D02*
X364004Y28530D01*
X364004Y33185D02*
X373104Y33185D01*
X373104Y37840D02*
X364004Y37840D01*
X364004Y42495D02*
X373104Y42495D01*
X396770Y46820D02*
X405870Y46820D01*
X405870Y19220D01*
X396770Y19220D01*
X396770Y46820D01*
X396770Y23875D02*
X405870Y23875D01*
X405870Y28530D02*
X396770Y28530D01*
X396770Y33185D02*
X405870Y33185D01*
X405870Y37840D02*
X396770Y37840D01*
X396770Y42495D02*
X405870Y42495D01*
D17*
X124040Y237490D03*
X135040Y237490D03*
D18*
X474390Y60120D03*
X495890Y60120D03*
X474390Y18620D03*
X495890Y18620D03*
X579710Y18620D03*
X558210Y18620D03*
X579710Y60120D03*
X558210Y60120D03*
X662260Y18620D03*
X640760Y18620D03*
X662260Y60120D03*
X640760Y60120D03*
D14*
X384810Y55762D03*
X384810Y72762D03*
X193920Y223520D03*
X176920Y223520D03*
X337820Y123580D03*
X337820Y140580D03*
X337820Y50682D03*
X337820Y67682D03*
X432816Y57794D03*
X432816Y74794D03*
X431800Y140580D03*
X431800Y123580D03*
X276470Y44450D03*
X259470Y44450D03*
X258690Y111760D03*
X241690Y111760D03*
X276470Y180340D03*
X259470Y180340D03*
X326000Y228600D03*
X309000Y228600D03*
X393310Y247650D03*
X376310Y247650D03*
X461890Y228600D03*
X444890Y228600D03*
X510150Y179070D03*
X493150Y179070D03*
X529200Y111760D03*
X512200Y111760D03*
X510404Y80010D03*
X493404Y80010D03*
X595240Y78740D03*
X578240Y78740D03*
X121040Y199390D03*
X138040Y199390D03*
X143392Y22606D03*
X160392Y22606D03*
X474472Y78114D03*
X474472Y95114D03*
D11*
X525526Y232156D03*
D14*
X225180Y224790D03*
X242180Y224790D03*
D19*
X185420Y262730D03*
X194920Y242730D03*
X175920Y242730D03*
D16*
X722800Y121390D02*
X722800Y112290D01*
X722800Y121390D02*
X750400Y121390D01*
X750400Y112290D01*
X722800Y112290D01*
X722800Y116945D02*
X750400Y116945D01*
X722800Y145310D02*
X722800Y154410D01*
X750400Y154410D01*
X750400Y145310D01*
X722800Y145310D01*
X722800Y149965D02*
X750400Y149965D01*
X722800Y178330D02*
X722800Y187430D01*
X750400Y187430D01*
X750400Y178330D01*
X722800Y178330D01*
X722800Y182985D02*
X750400Y182985D01*
D11*
X550926Y232156D03*
X550926Y257556D03*
D14*
X674878Y18424D03*
X674878Y35424D03*
X592582Y18170D03*
X592582Y35170D03*
X709540Y116840D03*
X692540Y116840D03*
X709540Y149860D03*
X692540Y149860D03*
X150250Y115570D03*
X167250Y115570D03*
X184540Y115570D03*
X201540Y115570D03*
X642112Y243468D03*
X642112Y260468D03*
X626872Y243468D03*
X626872Y260468D03*
X596392Y243468D03*
X596392Y260468D03*
D20*
X646760Y169444D03*
D21*
X619760Y186944D03*
D20*
X646760Y174444D03*
X646760Y179444D03*
X646760Y184444D03*
X646760Y189444D03*
X646760Y194444D03*
X646760Y199444D03*
X646760Y204444D03*
D22*
X637260Y213944D03*
X632260Y213944D03*
X627260Y213944D03*
X622260Y213944D03*
X617260Y213944D03*
X612260Y213944D03*
X607260Y213944D03*
X602260Y213944D03*
D20*
X592760Y204444D03*
X592760Y199444D03*
X592760Y194444D03*
X592760Y189444D03*
X592760Y184444D03*
X592760Y179444D03*
X592760Y174444D03*
X592760Y169444D03*
D22*
X602260Y159944D03*
X607260Y159944D03*
X612260Y159944D03*
X617260Y159944D03*
X622260Y159944D03*
X627260Y159944D03*
X632260Y159944D03*
X637260Y159944D03*
D23*
X625760Y180944D03*
X625760Y192944D03*
X613760Y180944D03*
X613760Y192944D03*
D24*
X176920Y241730D02*
X175920Y242730D01*
X176920Y241730D02*
X176920Y223520D01*
X140280Y242730D02*
X135040Y237490D01*
X140280Y242730D02*
X145034Y242730D01*
X175920Y242730D01*
X144780Y242984D02*
X144780Y265430D01*
X144780Y242984D02*
X145034Y242730D01*
X209940Y209550D02*
X225180Y224790D01*
X176920Y223520D02*
X176920Y213986D01*
X181356Y209550D01*
X209940Y209550D01*
D25*
X225180Y224790D02*
X225180Y240150D01*
D26*
X224180Y241150D01*
D24*
X114300Y265430D02*
X98806Y265430D01*
D27*
X98806Y265430D03*
D24*
X114300Y247230D02*
X124040Y237490D01*
X114300Y247230D02*
X114300Y265430D01*
D26*
X243180Y247650D02*
X248920Y247650D01*
D27*
X254508Y240538D03*
D26*
X254508Y242062D02*
X248920Y247650D01*
X254508Y242062D02*
X254508Y240538D01*
X243180Y247650D02*
X224180Y247650D01*
X212598Y247650D01*
D27*
X212598Y247650D03*
D24*
X596392Y260468D02*
X611632Y260468D01*
X626872Y260468D01*
X642112Y260468D01*
D27*
X653288Y260604D03*
X585470Y260858D03*
D28*
X168910Y51562D02*
X156210Y51562D01*
D24*
X124040Y226402D02*
X124040Y237490D01*
X124079Y226441D02*
X124040Y226402D01*
D27*
X124079Y226441D03*
D28*
X130810Y51562D02*
X130556Y51308D01*
X130556Y31242D01*
D27*
X130556Y31242D03*
D28*
X156210Y36068D02*
X156210Y51562D01*
X156210Y36068D02*
X151384Y31242D01*
X130556Y31242D01*
X154940Y144780D02*
X141224Y158496D01*
D27*
X141224Y158496D03*
D28*
X134874Y158496D01*
X133604Y159766D01*
X32986Y159766D01*
X32980Y159760D01*
X712978Y182880D02*
X736600Y182880D01*
D27*
X712978Y182880D03*
D28*
X447158Y57794D02*
X432816Y57794D01*
X447158Y57794D02*
X447294Y57658D01*
D27*
X447294Y57658D03*
D28*
X449580Y104530D02*
X438794Y104530D01*
X438658Y104394D01*
D27*
X438658Y104394D03*
D24*
X384810Y55762D02*
X384810Y44704D01*
D27*
X384810Y44704D03*
D28*
X640760Y18620D02*
X640760Y15412D01*
X633304Y7956D01*
X566592Y7956D01*
X640760Y18620D02*
X640760Y20492D01*
X649224Y28956D01*
D27*
X649224Y28956D03*
D28*
X348878Y50682D02*
X337820Y50682D01*
X348878Y50682D02*
X348996Y50800D01*
D27*
X348996Y50800D03*
D28*
X150250Y115570D02*
X150250Y127136D01*
X154940Y131826D01*
X154940Y144780D01*
X550672Y257810D02*
X550926Y257556D01*
X550672Y257810D02*
X536702Y257810D01*
D27*
X536702Y257810D03*
D28*
X378003Y168843D02*
X369180Y160020D01*
X378003Y168843D02*
X377952Y168910D01*
D27*
X377952Y168910D03*
D28*
X558210Y18620D02*
X558210Y16338D01*
X566592Y7956D01*
X617260Y213944D02*
X617260Y231862D01*
X617220Y231902D01*
D29*
X617220Y231902D03*
D28*
X653152Y260468D02*
X653288Y260604D01*
D24*
X653152Y260468D02*
X642112Y260468D01*
X596002Y260858D02*
X585470Y260858D01*
D28*
X596002Y260858D02*
X596392Y260468D01*
X495890Y60120D02*
X508258Y47752D01*
X528574Y47752D01*
X531876Y51054D01*
D29*
X531876Y79248D03*
D28*
X531876Y51054D01*
D26*
X254776Y254150D02*
X243180Y254150D01*
D24*
X285750Y273050D02*
X558546Y273050D01*
X588128Y243468D01*
X596392Y243468D01*
X609092Y243468D01*
X611632Y243468D01*
X624586Y243468D01*
X626872Y243468D01*
X642112Y243468D01*
X271526Y254000D02*
X271526Y224790D01*
X242180Y224790D01*
X254776Y254150D02*
X271376Y254150D01*
X271526Y254000D01*
X271526Y258826D02*
X285750Y273050D01*
X271526Y258826D02*
X271526Y254000D01*
X353220Y158980D02*
X353220Y141580D01*
X353220Y158980D02*
X352180Y160020D01*
X416400Y122580D02*
X430800Y122580D01*
X431800Y123580D01*
X438776Y123580D01*
X440826Y121530D02*
X449580Y121530D01*
X440826Y121530D02*
X438776Y123580D01*
D28*
X155194Y199390D02*
X138040Y199390D01*
X155194Y199390D02*
X211836Y199390D01*
X226822Y199390D01*
X242316Y214884D01*
X242316Y224654D01*
X242180Y224790D01*
X154940Y199136D02*
X154940Y170180D01*
X154940Y199136D02*
X155194Y199390D01*
X181610Y51562D02*
X197104Y51562D01*
X211836Y115570D02*
X211836Y199390D01*
X211836Y115570D02*
X211836Y66294D01*
X197104Y51562D01*
X201540Y115570D02*
X211836Y115570D01*
D24*
X337820Y140580D02*
X338820Y141580D01*
X353220Y141580D01*
D30*
X674878Y57912D02*
X674878Y35424D01*
X674878Y57912D02*
X692658Y75692D01*
X692658Y90932D01*
X692658Y116722D01*
D28*
X692540Y116840D01*
D30*
X692540Y149860D01*
D27*
X654050Y243586D03*
D30*
X642230Y243586D01*
X642112Y243468D01*
D28*
X467242Y121530D02*
X449580Y121530D01*
X474472Y114300D02*
X474472Y95114D01*
X474472Y114300D02*
X467242Y121530D01*
X548894Y98298D02*
X568452Y78740D01*
X548894Y98298D02*
X504444Y98298D01*
D27*
X504444Y98298D03*
X485140Y98044D03*
D28*
X477402Y98044D01*
X474472Y95114D01*
D24*
X449580Y170688D02*
X436372Y183896D01*
X352180Y183896D02*
X291846Y183896D01*
X352180Y183896D02*
X436372Y183896D01*
X449580Y170688D02*
X449580Y121530D01*
X352180Y160020D02*
X352180Y183896D01*
D28*
X176784Y22606D02*
X160392Y22606D01*
X176784Y22606D02*
X181610Y27432D01*
X181610Y51562D01*
D31*
X612260Y213944D02*
X612260Y224924D01*
D30*
X608838Y228346D01*
X608838Y243214D01*
D28*
X609092Y243468D01*
D31*
X622260Y225258D02*
X622260Y213944D01*
D30*
X622260Y225258D02*
X625348Y228346D01*
X625348Y242706D01*
D28*
X624586Y243468D01*
D29*
X702818Y91186D03*
D30*
X702564Y90932D01*
X692658Y90932D01*
D28*
X578240Y78740D02*
X568452Y78740D01*
X592328Y35424D02*
X592582Y35170D01*
X588772Y68208D02*
X578240Y78740D01*
X592328Y53594D02*
X592328Y35424D01*
X592328Y53594D02*
X588772Y57150D01*
X588772Y68208D01*
D24*
X271526Y204216D02*
X271526Y224790D01*
X271526Y204216D02*
X291846Y183896D01*
D28*
X130810Y90678D02*
X129540Y91948D01*
X129540Y144780D01*
X592132Y18620D02*
X592582Y18170D01*
X592132Y18620D02*
X579710Y18620D01*
X130810Y90678D02*
X122174Y90678D01*
X102870Y71374D01*
X102870Y31496D01*
X126746Y7620D01*
X413766Y7620D01*
X434086Y27940D01*
X579710Y26080D02*
X579710Y18620D01*
X577850Y27940D02*
X434086Y27940D01*
X577850Y27940D02*
X579710Y26080D01*
D32*
X592582Y18170D02*
X627008Y18170D01*
X634492Y25654D02*
X634492Y41910D01*
X627260Y49142D02*
X627260Y159944D01*
X634492Y25654D02*
X627008Y18170D01*
X634492Y41910D02*
X627260Y49142D01*
D28*
X184540Y115570D02*
X184540Y125612D01*
X197104Y138176D01*
X197104Y153416D01*
X180340Y170180D01*
X181610Y112640D02*
X181610Y90678D01*
X181610Y112640D02*
X184540Y115570D01*
X181610Y90678D02*
X198120Y90678D01*
X202438Y86360D01*
D27*
X202438Y86360D03*
X618236Y34290D03*
D28*
X618236Y126746D01*
X607260Y137722D02*
X607260Y159944D01*
X607260Y137722D02*
X618236Y126746D01*
X167250Y131690D02*
X167250Y115570D01*
X167250Y131690D02*
X180340Y144780D01*
X168910Y113910D02*
X168910Y90678D01*
X168910Y113910D02*
X167250Y115570D01*
X168910Y90678D02*
X168910Y75692D01*
X173228Y71374D01*
X195834Y71374D01*
D27*
X195834Y71374D03*
X627126Y29464D03*
D28*
X612260Y140088D02*
X612260Y159944D01*
X627126Y42418D02*
X627126Y29464D01*
X627126Y42418D02*
X623062Y46482D01*
X623062Y129286D02*
X612260Y140088D01*
X623062Y129286D02*
X623062Y46482D01*
D27*
X680466Y100076D03*
D28*
X680466Y106680D02*
X676910Y110236D01*
X676910Y185166D01*
X680466Y106680D02*
X680466Y100076D01*
X667632Y194444D02*
X646760Y194444D01*
X667632Y194444D02*
X676910Y185166D01*
D27*
X671576Y91186D03*
D28*
X671576Y182880D01*
X665012Y189444D02*
X646760Y189444D01*
X665012Y189444D02*
X671576Y182880D01*
D24*
X194920Y224520D02*
X194920Y242730D01*
X194920Y224520D02*
X193920Y223520D01*
D28*
X194920Y242730D02*
X194920Y250800D01*
X198882Y254762D01*
D27*
X198882Y254762D03*
X290576Y262128D03*
D28*
X525526Y253492D02*
X525526Y232156D01*
D27*
X578104Y220472D03*
D29*
X619760Y147828D03*
D28*
X622260Y150328D01*
X622260Y159944D01*
X537210Y220472D02*
X525526Y232156D01*
X537210Y220472D02*
X578104Y220472D01*
X525526Y253492D02*
X516890Y262128D01*
X290576Y262128D01*
X595240Y78740D02*
X595376Y78604D01*
X595376Y59690D01*
D27*
X611378Y43688D03*
D28*
X595376Y59690D01*
D32*
X595240Y78740D02*
X602260Y85760D01*
X602260Y159944D01*
D28*
X111252Y51816D02*
X111252Y36322D01*
D27*
X111252Y51816D03*
D28*
X437134Y38100D02*
X477266Y38100D01*
D27*
X477266Y38100D03*
X656082Y71628D03*
D28*
X437134Y38100D02*
X411486Y12452D01*
X681990Y112268D02*
X681990Y187452D01*
X687832Y106426D02*
X687832Y78994D01*
X687832Y106426D02*
X681990Y112268D01*
X680466Y71628D02*
X656082Y71628D01*
X680466Y71628D02*
X687832Y78994D01*
X143392Y22606D02*
X124968Y22606D01*
X111252Y36322D01*
X143392Y22606D02*
X153546Y12452D01*
X411486Y12452D01*
X646760Y199444D02*
X669998Y199444D01*
X681990Y187452D01*
X121040Y199390D02*
X109474Y199390D01*
D27*
X109474Y199390D03*
D28*
X153044Y231394D02*
X161798Y231394D01*
D27*
X161798Y231394D03*
X161798Y254762D03*
D28*
X192532Y285496D01*
X153044Y231394D02*
X121040Y199390D01*
X192532Y285496D02*
X646430Y285496D01*
X667004Y264922D01*
X667004Y238506D01*
X656336Y227838D02*
X638810Y227838D01*
X632260Y221288D01*
X632260Y213944D01*
X656336Y227838D02*
X667004Y238506D01*
X281178Y280416D02*
X263492Y262730D01*
X281178Y280416D02*
X644906Y280416D01*
X224282Y262730D02*
X185420Y262730D01*
X224282Y262730D02*
X263492Y262730D01*
X224282Y262730D02*
X224180Y262628D01*
X224180Y254150D01*
X644906Y280416D02*
X662686Y262636D01*
X662686Y240030D01*
X655828Y233172D01*
X637445Y233172D01*
X627260Y222987D01*
X627260Y213944D01*
D27*
X287528Y55626D03*
D28*
X284480Y44450D02*
X276470Y44450D01*
X284480Y44450D02*
X287528Y47498D01*
X287528Y55626D01*
D27*
X290830Y200406D03*
D28*
X300228Y191008D02*
X439674Y191008D01*
X300228Y191008D02*
X290830Y200406D01*
X439674Y191008D02*
X441238Y189444D01*
X592760Y189444D01*
D27*
X486156Y228600D03*
D28*
X510312Y204444D01*
X592760Y204444D01*
D27*
X516908Y166624D03*
D28*
X522478Y166624D01*
X540298Y184444D01*
X592760Y184444D01*
X326254Y228854D02*
X326000Y228600D01*
X326254Y228854D02*
X338074Y228854D01*
D27*
X338074Y228854D03*
D28*
X510150Y179070D02*
X523240Y179070D01*
D27*
X523240Y179070D03*
D28*
X258944Y112014D02*
X258690Y111760D01*
X258944Y112014D02*
X270510Y112014D01*
D27*
X270510Y112014D03*
D28*
X393310Y247650D02*
X405638Y247650D01*
D27*
X405638Y247650D03*
D28*
X529454Y112014D02*
X529200Y111760D01*
X529454Y112014D02*
X541782Y112014D01*
D27*
X541782Y112014D03*
D28*
X287782Y173990D02*
X282820Y173990D01*
X276470Y180340D01*
D27*
X287782Y173990D03*
D28*
X461890Y228600D02*
X474472Y228600D01*
D27*
X474472Y228600D03*
X524256Y55372D03*
D28*
X524256Y74676D01*
X518922Y80010D01*
X510404Y80010D01*
X493404Y178816D02*
X493150Y179070D01*
X504326Y158750D02*
X512200Y158750D01*
X512200Y111760D01*
X504326Y158750D02*
X493404Y169672D01*
X493404Y178816D01*
X496570Y105156D02*
X496570Y83176D01*
X496570Y105156D02*
X503174Y111760D01*
X512200Y111760D01*
X496570Y83176D02*
X493404Y80010D01*
X542664Y179444D02*
X592760Y179444D01*
X521970Y158750D02*
X512200Y158750D01*
X521970Y158750D02*
X542664Y179444D01*
X376428Y247532D02*
X376310Y247650D01*
X317500Y229870D02*
X316230Y228600D01*
X317500Y229870D02*
X317500Y235966D01*
X329066Y247532D01*
X316230Y228600D02*
X309000Y228600D01*
X329066Y247532D02*
X376428Y247532D01*
X376428Y212344D01*
X387604Y201168D02*
X445008Y201168D01*
X446732Y199444D01*
X387604Y201168D02*
X376428Y212344D01*
X446732Y199444D02*
X592760Y199444D01*
X444890Y201286D02*
X444890Y228600D01*
X444890Y201286D02*
X445008Y201168D01*
X259470Y180340D02*
X241690Y162560D01*
X241690Y111760D01*
X241690Y62230D01*
X259470Y44450D01*
X259470Y180340D02*
X259588Y180458D01*
X259588Y208788D01*
D27*
X259588Y208788D03*
X283464Y208788D03*
D28*
X442468Y196088D02*
X444112Y194444D01*
X592760Y194444D01*
X294386Y208788D02*
X283464Y208788D01*
X307086Y196088D02*
X442468Y196088D01*
X307086Y196088D02*
X294386Y208788D01*
D24*
X384810Y83820D02*
X384810Y72762D01*
D27*
X384810Y83820D03*
X417830Y57658D03*
D24*
X417830Y67368D01*
X417924Y67462D01*
D27*
X363474Y86360D03*
D24*
X351798Y86360D01*
X351696Y86462D01*
D28*
X549910Y70358D02*
X549910Y52578D01*
D27*
X549910Y70358D03*
D28*
X417830Y57658D02*
X417830Y52578D01*
X469900Y42672D02*
X472948Y45720D01*
X481838Y45720D01*
X489712Y37846D01*
X535178Y37846D01*
X427736Y42672D02*
X417830Y52578D01*
X427736Y42672D02*
X469900Y42672D01*
X535178Y37846D02*
X549910Y52578D01*
D29*
X639064Y114808D03*
D28*
X639064Y123190D01*
X637260Y124994D02*
X637260Y159944D01*
X637260Y124994D02*
X639064Y123190D01*
D24*
X397924Y76962D02*
X397924Y59276D01*
X401320Y55880D02*
X401320Y33020D01*
X401320Y55880D02*
X397924Y59276D01*
X396400Y78486D02*
X396400Y132080D01*
X396400Y78486D02*
X397924Y76962D01*
X371696Y76962D02*
X371696Y60038D01*
X368554Y56896D01*
X368554Y33020D01*
X373220Y78486D02*
X373220Y132080D01*
X373220Y78486D02*
X371696Y76962D01*
D28*
X416400Y141580D02*
X430800Y141580D01*
X431800Y140580D01*
X431800Y174244D01*
D27*
X431800Y174244D03*
D28*
X445008Y244348D02*
X482092Y244348D01*
X445008Y244348D02*
X432054Y231394D01*
X432054Y208788D01*
D27*
X432054Y208788D03*
D28*
X589356Y213944D02*
X602260Y213944D01*
X589356Y213944D02*
X584200Y208788D01*
X517652Y208788D02*
X482092Y244348D01*
X517652Y208788D02*
X584200Y208788D01*
X429158Y86462D02*
X417924Y86462D01*
X429158Y86462D02*
X432816Y82804D01*
X432816Y74794D01*
X443874Y74794D01*
X468122Y50546D01*
X484632Y50546D02*
X492506Y42672D01*
X531622Y42672D01*
X542544Y53594D02*
X542544Y82804D01*
D29*
X542544Y82804D03*
X647700Y126238D03*
D28*
X654304Y126238D02*
X660908Y132842D01*
X654304Y126238D02*
X647700Y126238D01*
X646760Y179444D02*
X659010Y179444D01*
X484632Y50546D02*
X468122Y50546D01*
X531622Y42672D02*
X542544Y53594D01*
X660908Y132842D02*
X660908Y177546D01*
X659010Y179444D01*
X352220Y123580D02*
X337820Y123580D01*
X352220Y123580D02*
X353220Y122580D01*
X442976Y250444D02*
X483616Y250444D01*
X421132Y228600D02*
X421132Y208788D01*
D27*
X421132Y208788D03*
X421132Y174244D03*
D28*
X421132Y159766D01*
X411734Y150368D01*
X376682Y150368D02*
X363474Y137160D01*
X363474Y132834D01*
X353220Y122580D01*
X421132Y228600D02*
X442976Y250444D01*
X411734Y150368D02*
X376682Y150368D01*
X607260Y213944D02*
X607260Y221288D01*
X604520Y224028D01*
X592582Y224028D01*
X581660Y213106D02*
X520954Y213106D01*
X483616Y250444D01*
X581660Y213106D02*
X592582Y224028D01*
X351476Y67682D02*
X337820Y67682D01*
X351476Y67682D02*
X351696Y67462D01*
D27*
X652272Y83312D03*
X362204Y67564D03*
D28*
X362102Y67462D01*
X351696Y67462D01*
X646760Y184444D02*
X662392Y184444D01*
X666242Y180594D01*
X666242Y97282D01*
X652272Y83312D01*
X474472Y78114D02*
X474472Y68580D01*
X474472Y60202D01*
X474390Y60120D01*
X474472Y68580D02*
X474726Y68834D01*
X510794Y68834D01*
D27*
X510794Y68834D03*
D29*
X636016Y72136D03*
D28*
X632260Y75892D01*
X632260Y159944D01*
X709540Y116840D02*
X736600Y116840D01*
X709540Y116840D02*
X701040Y125340D01*
X701040Y175768D01*
X672364Y204444D02*
X646760Y204444D01*
X672364Y204444D02*
X701040Y175768D01*
X709540Y149860D02*
X736600Y149860D01*
X709540Y149860D02*
X708914Y150486D01*
X708914Y175006D01*
X645922Y213944D02*
X637260Y213944D01*
X645922Y213944D02*
X669976Y213944D01*
X708914Y175006D01*
X566674Y247904D02*
X550926Y232156D01*
X566674Y247904D02*
X566674Y248158D01*
D29*
X566674Y248158D03*
X645922Y220472D03*
D28*
X645922Y213944D01*
X662456Y18424D02*
X674878Y18424D01*
X662456Y18424D02*
X662260Y18620D01*
X662178Y18702D01*
X662178Y38862D01*
X647954Y74422D02*
X641350Y81026D01*
D29*
X641350Y81026D03*
X592836Y91948D03*
D28*
X592760Y92024D02*
X592760Y169444D01*
X592760Y92024D02*
X592836Y91948D01*
X647954Y53086D02*
X662178Y38862D01*
X647954Y53086D02*
X647954Y74422D01*
M02*
