M48
;GenerationSoftware,Autodesk,EAGLE,9.5.1*%
;CreationDate,2019-12-09T03:07:22Z*%
FMAT,2
ICI,OFF
METRIC,TZ,000.000
T5C0.300
T4C0.350
T3C0.356
T2C0.700
T1C2.286
%
G90
M71
T1
X72496Y4509
X72496Y25134
X4500Y4509
X4500Y25134
T2
X3298Y11976
X3298Y13976
X3298Y15976
X3298Y17976
T3
X58547Y26086
X12408Y22644
X13056Y3124
X14122Y15850
X71298Y18288
X44729Y5766
X43866Y10439
X38481Y4470
X64922Y2896
X34900Y5080
X53670Y25781
X37795Y16891
X65405Y24359
X50444Y9830
X48514Y9804
X20244Y8636
X61824Y3429
X19583Y7137
X62713Y2946
X68047Y10008
X67158Y9119
X19888Y25476
X29058Y26213
X57810Y22047
X61138Y4369
X11125Y5182
X47727Y3810
X65608Y7163
X10947Y19939
X16180Y23139
X16180Y25476
X28753Y5563
X29083Y20041
X48616Y22860
X51691Y16662
X33807Y22885
X52324Y17907
X27051Y11201
X40564Y24765
X54178Y11201
X28778Y17399
X47447Y22860
X52426Y5537
X25959Y20879
X28346Y20879
X38481Y8382
X41783Y5766
X36347Y8636
X54991Y7036
X43180Y17424
X43205Y20879
X42113Y20879
X65227Y8331
X36220Y6756
X51079Y6883
X42113Y17424
X9881Y26543
X25451Y24054
X21260Y24765
X65329Y26060
T4
X56667Y24816
X64592Y22047
X64135Y8103
X59284Y9195
X70282Y9119
X61976Y14783
X53188Y7925
X61722Y23190
X54254Y8280
X64770Y12624
X63906Y11481
X63602Y7214
T5
X62576Y18094
X62576Y19294
X61376Y18094
X61376Y19294
M30