G04 EAGLE Gerber RS-274X export*
G75*
%MOMM*%
%FSLAX34Y34*%
%LPD*%
%IN*%
%IPPOS*%
%AMOC8*
5,1,8,0,0,1.08239X$1,22.5*%
G01*
%ADD10C,0.254000*%


D10*
X0Y89D02*
X770000Y89D01*
X770000Y296311D01*
X0Y296311D01*
X0Y89D01*
X56430Y250887D02*
X56360Y249992D01*
X56219Y249105D01*
X56009Y248232D01*
X55732Y247377D01*
X55388Y246548D01*
X54980Y245747D01*
X54511Y244981D01*
X53983Y244255D01*
X53400Y243572D01*
X52765Y242937D01*
X52082Y242353D01*
X51355Y241825D01*
X50589Y241356D01*
X49789Y240948D01*
X48959Y240605D01*
X48105Y240327D01*
X47232Y240117D01*
X46345Y239977D01*
X45449Y239907D01*
X44551Y239907D01*
X43656Y239977D01*
X42768Y240117D01*
X41895Y240327D01*
X41041Y240605D01*
X40211Y240948D01*
X39411Y241356D01*
X38645Y241825D01*
X37918Y242353D01*
X37235Y242937D01*
X36600Y243572D01*
X36017Y244255D01*
X35489Y244981D01*
X35020Y245747D01*
X34612Y246548D01*
X34268Y247377D01*
X33991Y248232D01*
X33781Y249105D01*
X33640Y249992D01*
X33570Y250887D01*
X33570Y251786D01*
X33640Y252681D01*
X33781Y253568D01*
X33991Y254441D01*
X34268Y255296D01*
X34612Y256125D01*
X35020Y256926D01*
X35489Y257692D01*
X36017Y258418D01*
X36600Y259101D01*
X37235Y259736D01*
X37918Y260320D01*
X38645Y260848D01*
X39411Y261317D01*
X40211Y261725D01*
X41041Y262068D01*
X41895Y262346D01*
X42768Y262556D01*
X43656Y262696D01*
X44551Y262767D01*
X45449Y262767D01*
X46345Y262696D01*
X47232Y262556D01*
X48105Y262346D01*
X48959Y262068D01*
X49789Y261725D01*
X50589Y261317D01*
X51355Y260848D01*
X52082Y260320D01*
X52765Y259736D01*
X53400Y259101D01*
X53983Y258418D01*
X54511Y257692D01*
X54980Y256926D01*
X55388Y256125D01*
X55732Y255296D01*
X56009Y254441D01*
X56219Y253568D01*
X56360Y252681D01*
X56430Y251786D01*
X56430Y250887D01*
X56430Y44639D02*
X56360Y43744D01*
X56219Y42857D01*
X56009Y41984D01*
X55732Y41129D01*
X55388Y40300D01*
X54980Y39499D01*
X54511Y38733D01*
X53983Y38007D01*
X53400Y37324D01*
X52765Y36689D01*
X52082Y36105D01*
X51355Y35577D01*
X50589Y35108D01*
X49789Y34700D01*
X48959Y34357D01*
X48105Y34079D01*
X47232Y33869D01*
X46345Y33729D01*
X45449Y33659D01*
X44551Y33659D01*
X43656Y33729D01*
X42768Y33869D01*
X41895Y34079D01*
X41041Y34357D01*
X40211Y34700D01*
X39411Y35108D01*
X38645Y35577D01*
X37918Y36105D01*
X37235Y36689D01*
X36600Y37324D01*
X36017Y38007D01*
X35489Y38733D01*
X35020Y39499D01*
X34612Y40300D01*
X34268Y41129D01*
X33991Y41984D01*
X33781Y42857D01*
X33640Y43744D01*
X33570Y44639D01*
X33570Y45538D01*
X33640Y46433D01*
X33781Y47320D01*
X33991Y48193D01*
X34268Y49048D01*
X34612Y49877D01*
X35020Y50678D01*
X35489Y51444D01*
X36017Y52170D01*
X36600Y52853D01*
X37235Y53488D01*
X37918Y54072D01*
X38645Y54600D01*
X39411Y55069D01*
X40211Y55477D01*
X41041Y55820D01*
X41895Y56098D01*
X42768Y56308D01*
X43656Y56448D01*
X44551Y56519D01*
X45449Y56519D01*
X46345Y56448D01*
X47232Y56308D01*
X48105Y56098D01*
X48959Y55820D01*
X49789Y55477D01*
X50589Y55069D01*
X51355Y54600D01*
X52082Y54072D01*
X52765Y53488D01*
X53400Y52853D01*
X53983Y52170D01*
X54511Y51444D01*
X54980Y50678D01*
X55388Y49877D01*
X55732Y49048D01*
X56009Y48193D01*
X56219Y47320D01*
X56360Y46433D01*
X56430Y45538D01*
X56430Y44639D01*
X736388Y250887D02*
X736318Y249992D01*
X736177Y249105D01*
X735967Y248232D01*
X735690Y247377D01*
X735346Y246548D01*
X734938Y245747D01*
X734469Y244981D01*
X733941Y244255D01*
X733358Y243572D01*
X732723Y242937D01*
X732040Y242353D01*
X731313Y241825D01*
X730547Y241356D01*
X729747Y240948D01*
X728917Y240605D01*
X728063Y240327D01*
X727190Y240117D01*
X726303Y239977D01*
X725407Y239907D01*
X724509Y239907D01*
X723614Y239977D01*
X722726Y240117D01*
X721853Y240327D01*
X720999Y240605D01*
X720169Y240948D01*
X719369Y241356D01*
X718603Y241825D01*
X717876Y242353D01*
X717193Y242937D01*
X716558Y243572D01*
X715975Y244255D01*
X715447Y244981D01*
X714978Y245747D01*
X714570Y246548D01*
X714226Y247377D01*
X713949Y248232D01*
X713739Y249105D01*
X713598Y249992D01*
X713528Y250887D01*
X713528Y251786D01*
X713598Y252681D01*
X713739Y253568D01*
X713949Y254441D01*
X714226Y255296D01*
X714570Y256125D01*
X714978Y256926D01*
X715447Y257692D01*
X715975Y258418D01*
X716558Y259101D01*
X717193Y259736D01*
X717876Y260320D01*
X718603Y260848D01*
X719369Y261317D01*
X720169Y261725D01*
X720999Y262068D01*
X721853Y262346D01*
X722726Y262556D01*
X723614Y262696D01*
X724509Y262767D01*
X725407Y262767D01*
X726303Y262696D01*
X727190Y262556D01*
X728063Y262346D01*
X728917Y262068D01*
X729747Y261725D01*
X730547Y261317D01*
X731313Y260848D01*
X732040Y260320D01*
X732723Y259736D01*
X733358Y259101D01*
X733941Y258418D01*
X734469Y257692D01*
X734938Y256926D01*
X735346Y256125D01*
X735690Y255296D01*
X735967Y254441D01*
X736177Y253568D01*
X736318Y252681D01*
X736388Y251786D01*
X736388Y250887D01*
X736388Y44639D02*
X736318Y43744D01*
X736177Y42857D01*
X735967Y41984D01*
X735690Y41129D01*
X735346Y40300D01*
X734938Y39499D01*
X734469Y38733D01*
X733941Y38007D01*
X733358Y37324D01*
X732723Y36689D01*
X732040Y36105D01*
X731313Y35577D01*
X730547Y35108D01*
X729747Y34700D01*
X728917Y34357D01*
X728063Y34079D01*
X727190Y33869D01*
X726303Y33729D01*
X725407Y33659D01*
X724509Y33659D01*
X723614Y33729D01*
X722726Y33869D01*
X721853Y34079D01*
X720999Y34357D01*
X720169Y34700D01*
X719369Y35108D01*
X718603Y35577D01*
X717876Y36105D01*
X717193Y36689D01*
X716558Y37324D01*
X715975Y38007D01*
X715447Y38733D01*
X714978Y39499D01*
X714570Y40300D01*
X714226Y41129D01*
X713949Y41984D01*
X713739Y42857D01*
X713598Y43744D01*
X713528Y44639D01*
X713528Y45538D01*
X713598Y46433D01*
X713739Y47320D01*
X713949Y48193D01*
X714226Y49048D01*
X714570Y49877D01*
X714978Y50678D01*
X715447Y51444D01*
X715975Y52170D01*
X716558Y52853D01*
X717193Y53488D01*
X717876Y54072D01*
X718603Y54600D01*
X719369Y55069D01*
X720169Y55477D01*
X720999Y55820D01*
X721853Y56098D01*
X722726Y56308D01*
X723614Y56448D01*
X724509Y56519D01*
X725407Y56519D01*
X726303Y56448D01*
X727190Y56308D01*
X728063Y56098D01*
X728917Y55820D01*
X729747Y55477D01*
X730547Y55069D01*
X731313Y54600D01*
X732040Y54072D01*
X732723Y53488D01*
X733358Y52853D01*
X733941Y52170D01*
X734469Y51444D01*
X734938Y50678D01*
X735346Y49877D01*
X735690Y49048D01*
X735967Y48193D01*
X736177Y47320D01*
X736318Y46433D01*
X736388Y45538D01*
X736388Y44639D01*
M02*
