G04 EAGLE Gerber RS-274X export*
G75*
%MOMM*%
%FSLAX34Y34*%
%LPD*%
%INSilkscreen Top*%
%IPPOS*%
%AMOC8*
5,1,8,0,0,1.08239X$1,22.5*%
G01*
%ADD10C,0.100000*%
%ADD11C,0.127000*%
%ADD12C,0.101600*%
%ADD13C,0.300000*%
%ADD14C,0.076200*%


D10*
X194227Y143832D02*
X65774Y143832D01*
X54227Y123832D01*
X118453Y12589D01*
X141547Y12589D01*
X205774Y123832D01*
X194227Y143832D01*
X54227Y182568D02*
X118453Y293811D01*
X54227Y182568D02*
X65774Y162568D01*
X194227Y162568D01*
X205774Y182568D01*
X141547Y293811D01*
X118453Y293811D01*
X550000Y232568D02*
X550021Y234286D01*
X550084Y236003D01*
X550190Y237718D01*
X550337Y239429D01*
X550526Y241137D01*
X550758Y242839D01*
X551031Y244535D01*
X551345Y246224D01*
X551701Y247905D01*
X552098Y249577D01*
X552536Y251238D01*
X553014Y252888D01*
X553533Y254526D01*
X554092Y256150D01*
X554691Y257761D01*
X555328Y259356D01*
X556005Y260935D01*
X556721Y262497D01*
X557474Y264041D01*
X558266Y265566D01*
X559094Y267071D01*
X559959Y268555D01*
X560860Y270018D01*
X561797Y271458D01*
X562769Y272875D01*
X563775Y274267D01*
X564816Y275634D01*
X565889Y276976D01*
X566995Y278290D01*
X568133Y279577D01*
X569303Y280836D01*
X570503Y282065D01*
X571732Y283265D01*
X572991Y284435D01*
X574278Y285573D01*
X575592Y286679D01*
X576934Y287752D01*
X578301Y288793D01*
X579693Y289799D01*
X581110Y290771D01*
X582550Y291708D01*
X584013Y292609D01*
X585497Y293474D01*
X587002Y294302D01*
X588527Y295094D01*
X590071Y295847D01*
X591633Y296563D01*
X593212Y297240D01*
X594807Y297877D01*
X596418Y298476D01*
X598042Y299035D01*
X599680Y299554D01*
X601330Y300032D01*
X602991Y300470D01*
X604663Y300867D01*
X606344Y301223D01*
X608033Y301537D01*
X609729Y301810D01*
X611431Y302042D01*
X613139Y302231D01*
X614850Y302378D01*
X616565Y302484D01*
X618282Y302547D01*
X620000Y302568D01*
X621718Y302547D01*
X623435Y302484D01*
X625150Y302378D01*
X626861Y302231D01*
X628569Y302042D01*
X630271Y301810D01*
X631967Y301537D01*
X633656Y301223D01*
X635337Y300867D01*
X637009Y300470D01*
X638670Y300032D01*
X640320Y299554D01*
X641958Y299035D01*
X643582Y298476D01*
X645193Y297877D01*
X646788Y297240D01*
X648367Y296563D01*
X649929Y295847D01*
X651473Y295094D01*
X652998Y294302D01*
X654503Y293474D01*
X655987Y292609D01*
X657450Y291708D01*
X658890Y290771D01*
X660307Y289799D01*
X661699Y288793D01*
X663066Y287752D01*
X664408Y286679D01*
X665722Y285573D01*
X667009Y284435D01*
X668268Y283265D01*
X669497Y282065D01*
X670697Y280836D01*
X671867Y279577D01*
X673005Y278290D01*
X674111Y276976D01*
X675184Y275634D01*
X676225Y274267D01*
X677231Y272875D01*
X678203Y271458D01*
X679140Y270018D01*
X680041Y268555D01*
X680906Y267071D01*
X681734Y265566D01*
X682526Y264041D01*
X683279Y262497D01*
X683995Y260935D01*
X684672Y259356D01*
X685309Y257761D01*
X685908Y256150D01*
X686467Y254526D01*
X686986Y252888D01*
X687464Y251238D01*
X687902Y249577D01*
X688299Y247905D01*
X688655Y246224D01*
X688969Y244535D01*
X689242Y242839D01*
X689474Y241137D01*
X689663Y239429D01*
X689810Y237718D01*
X689916Y236003D01*
X689979Y234286D01*
X690000Y232568D01*
X689979Y230850D01*
X689916Y229133D01*
X689810Y227418D01*
X689663Y225707D01*
X689474Y223999D01*
X689242Y222297D01*
X688969Y220601D01*
X688655Y218912D01*
X688299Y217231D01*
X687902Y215559D01*
X687464Y213898D01*
X686986Y212248D01*
X686467Y210610D01*
X685908Y208986D01*
X685309Y207375D01*
X684672Y205780D01*
X683995Y204201D01*
X683279Y202639D01*
X682526Y201095D01*
X681734Y199570D01*
X680906Y198065D01*
X680041Y196581D01*
X679140Y195118D01*
X678203Y193678D01*
X677231Y192261D01*
X676225Y190869D01*
X675184Y189502D01*
X674111Y188160D01*
X673005Y186846D01*
X671867Y185559D01*
X670697Y184300D01*
X669497Y183071D01*
X668268Y181871D01*
X667009Y180701D01*
X665722Y179563D01*
X664408Y178457D01*
X663066Y177384D01*
X661699Y176343D01*
X660307Y175337D01*
X658890Y174365D01*
X657450Y173428D01*
X655987Y172527D01*
X654503Y171662D01*
X652998Y170834D01*
X651473Y170042D01*
X649929Y169289D01*
X648367Y168573D01*
X646788Y167896D01*
X645193Y167259D01*
X643582Y166660D01*
X641958Y166101D01*
X640320Y165582D01*
X638670Y165104D01*
X637009Y164666D01*
X635337Y164269D01*
X633656Y163913D01*
X631967Y163599D01*
X630271Y163326D01*
X628569Y163094D01*
X626861Y162905D01*
X625150Y162758D01*
X623435Y162652D01*
X621718Y162589D01*
X620000Y162568D01*
X618282Y162589D01*
X616565Y162652D01*
X614850Y162758D01*
X613139Y162905D01*
X611431Y163094D01*
X609729Y163326D01*
X608033Y163599D01*
X606344Y163913D01*
X604663Y164269D01*
X602991Y164666D01*
X601330Y165104D01*
X599680Y165582D01*
X598042Y166101D01*
X596418Y166660D01*
X594807Y167259D01*
X593212Y167896D01*
X591633Y168573D01*
X590071Y169289D01*
X588527Y170042D01*
X587002Y170834D01*
X585497Y171662D01*
X584013Y172527D01*
X582550Y173428D01*
X581110Y174365D01*
X579693Y175337D01*
X578301Y176343D01*
X576934Y177384D01*
X575592Y178457D01*
X574278Y179563D01*
X572991Y180701D01*
X571732Y181871D01*
X570503Y183071D01*
X569303Y184300D01*
X568133Y185559D01*
X566995Y186846D01*
X565889Y188160D01*
X564816Y189502D01*
X563775Y190869D01*
X562769Y192261D01*
X561797Y193678D01*
X560860Y195118D01*
X559959Y196581D01*
X559094Y198065D01*
X558266Y199570D01*
X557474Y201095D01*
X556721Y202639D01*
X556005Y204201D01*
X555328Y205780D01*
X554691Y207375D01*
X554092Y208986D01*
X553533Y210610D01*
X553014Y212248D01*
X552536Y213898D01*
X552098Y215559D01*
X551701Y217231D01*
X551345Y218912D01*
X551031Y220601D01*
X550758Y222297D01*
X550526Y223999D01*
X550337Y225707D01*
X550190Y227418D01*
X550084Y229133D01*
X550021Y230850D01*
X550000Y232568D01*
X550000Y73832D02*
X550021Y75550D01*
X550084Y77267D01*
X550190Y78982D01*
X550337Y80693D01*
X550526Y82401D01*
X550758Y84103D01*
X551031Y85799D01*
X551345Y87488D01*
X551701Y89169D01*
X552098Y90841D01*
X552536Y92502D01*
X553014Y94152D01*
X553533Y95790D01*
X554092Y97414D01*
X554691Y99025D01*
X555328Y100620D01*
X556005Y102199D01*
X556721Y103761D01*
X557474Y105305D01*
X558266Y106830D01*
X559094Y108335D01*
X559959Y109819D01*
X560860Y111282D01*
X561797Y112722D01*
X562769Y114139D01*
X563775Y115531D01*
X564816Y116898D01*
X565889Y118240D01*
X566995Y119554D01*
X568133Y120841D01*
X569303Y122100D01*
X570503Y123329D01*
X571732Y124529D01*
X572991Y125699D01*
X574278Y126837D01*
X575592Y127943D01*
X576934Y129016D01*
X578301Y130057D01*
X579693Y131063D01*
X581110Y132035D01*
X582550Y132972D01*
X584013Y133873D01*
X585497Y134738D01*
X587002Y135566D01*
X588527Y136358D01*
X590071Y137111D01*
X591633Y137827D01*
X593212Y138504D01*
X594807Y139141D01*
X596418Y139740D01*
X598042Y140299D01*
X599680Y140818D01*
X601330Y141296D01*
X602991Y141734D01*
X604663Y142131D01*
X606344Y142487D01*
X608033Y142801D01*
X609729Y143074D01*
X611431Y143306D01*
X613139Y143495D01*
X614850Y143642D01*
X616565Y143748D01*
X618282Y143811D01*
X620000Y143832D01*
X621718Y143811D01*
X623435Y143748D01*
X625150Y143642D01*
X626861Y143495D01*
X628569Y143306D01*
X630271Y143074D01*
X631967Y142801D01*
X633656Y142487D01*
X635337Y142131D01*
X637009Y141734D01*
X638670Y141296D01*
X640320Y140818D01*
X641958Y140299D01*
X643582Y139740D01*
X645193Y139141D01*
X646788Y138504D01*
X648367Y137827D01*
X649929Y137111D01*
X651473Y136358D01*
X652998Y135566D01*
X654503Y134738D01*
X655987Y133873D01*
X657450Y132972D01*
X658890Y132035D01*
X660307Y131063D01*
X661699Y130057D01*
X663066Y129016D01*
X664408Y127943D01*
X665722Y126837D01*
X667009Y125699D01*
X668268Y124529D01*
X669497Y123329D01*
X670697Y122100D01*
X671867Y120841D01*
X673005Y119554D01*
X674111Y118240D01*
X675184Y116898D01*
X676225Y115531D01*
X677231Y114139D01*
X678203Y112722D01*
X679140Y111282D01*
X680041Y109819D01*
X680906Y108335D01*
X681734Y106830D01*
X682526Y105305D01*
X683279Y103761D01*
X683995Y102199D01*
X684672Y100620D01*
X685309Y99025D01*
X685908Y97414D01*
X686467Y95790D01*
X686986Y94152D01*
X687464Y92502D01*
X687902Y90841D01*
X688299Y89169D01*
X688655Y87488D01*
X688969Y85799D01*
X689242Y84103D01*
X689474Y82401D01*
X689663Y80693D01*
X689810Y78982D01*
X689916Y77267D01*
X689979Y75550D01*
X690000Y73832D01*
X689979Y72114D01*
X689916Y70397D01*
X689810Y68682D01*
X689663Y66971D01*
X689474Y65263D01*
X689242Y63561D01*
X688969Y61865D01*
X688655Y60176D01*
X688299Y58495D01*
X687902Y56823D01*
X687464Y55162D01*
X686986Y53512D01*
X686467Y51874D01*
X685908Y50250D01*
X685309Y48639D01*
X684672Y47044D01*
X683995Y45465D01*
X683279Y43903D01*
X682526Y42359D01*
X681734Y40834D01*
X680906Y39329D01*
X680041Y37845D01*
X679140Y36382D01*
X678203Y34942D01*
X677231Y33525D01*
X676225Y32133D01*
X675184Y30766D01*
X674111Y29424D01*
X673005Y28110D01*
X671867Y26823D01*
X670697Y25564D01*
X669497Y24335D01*
X668268Y23135D01*
X667009Y21965D01*
X665722Y20827D01*
X664408Y19721D01*
X663066Y18648D01*
X661699Y17607D01*
X660307Y16601D01*
X658890Y15629D01*
X657450Y14692D01*
X655987Y13791D01*
X654503Y12926D01*
X652998Y12098D01*
X651473Y11306D01*
X649929Y10553D01*
X648367Y9837D01*
X646788Y9160D01*
X645193Y8523D01*
X643582Y7924D01*
X641958Y7365D01*
X640320Y6846D01*
X638670Y6368D01*
X637009Y5930D01*
X635337Y5533D01*
X633656Y5177D01*
X631967Y4863D01*
X630271Y4590D01*
X628569Y4358D01*
X626861Y4169D01*
X625150Y4022D01*
X623435Y3916D01*
X621718Y3853D01*
X620000Y3832D01*
X618282Y3853D01*
X616565Y3916D01*
X614850Y4022D01*
X613139Y4169D01*
X611431Y4358D01*
X609729Y4590D01*
X608033Y4863D01*
X606344Y5177D01*
X604663Y5533D01*
X602991Y5930D01*
X601330Y6368D01*
X599680Y6846D01*
X598042Y7365D01*
X596418Y7924D01*
X594807Y8523D01*
X593212Y9160D01*
X591633Y9837D01*
X590071Y10553D01*
X588527Y11306D01*
X587002Y12098D01*
X585497Y12926D01*
X584013Y13791D01*
X582550Y14692D01*
X581110Y15629D01*
X579693Y16601D01*
X578301Y17607D01*
X576934Y18648D01*
X575592Y19721D01*
X574278Y20827D01*
X572991Y21965D01*
X571732Y23135D01*
X570503Y24335D01*
X569303Y25564D01*
X568133Y26823D01*
X566995Y28110D01*
X565889Y29424D01*
X564816Y30766D01*
X563775Y32133D01*
X562769Y33525D01*
X561797Y34942D01*
X560860Y36382D01*
X559959Y37845D01*
X559094Y39329D01*
X558266Y40834D01*
X557474Y42359D01*
X556721Y43903D01*
X556005Y45465D01*
X555328Y47044D01*
X554691Y48639D01*
X554092Y50250D01*
X553533Y51874D01*
X553014Y53512D01*
X552536Y55162D01*
X552098Y56823D01*
X551701Y58495D01*
X551345Y60176D01*
X551031Y61865D01*
X550758Y63561D01*
X550526Y65263D01*
X550337Y66971D01*
X550190Y68682D01*
X550084Y70397D01*
X550021Y72114D01*
X550000Y73832D01*
X250587Y55089D02*
X250592Y55518D01*
X250608Y55948D01*
X250634Y56376D01*
X250671Y56804D01*
X250719Y57231D01*
X250776Y57657D01*
X250845Y58081D01*
X250923Y58503D01*
X251012Y58923D01*
X251111Y59341D01*
X251221Y59756D01*
X251341Y60169D01*
X251470Y60578D01*
X251610Y60985D01*
X251760Y61387D01*
X251919Y61786D01*
X252088Y62181D01*
X252267Y62571D01*
X252456Y62957D01*
X252653Y63338D01*
X252860Y63715D01*
X253077Y64086D01*
X253302Y64451D01*
X253536Y64811D01*
X253779Y65166D01*
X254031Y65514D01*
X254291Y65856D01*
X254559Y66191D01*
X254836Y66520D01*
X255120Y66841D01*
X255413Y67156D01*
X255713Y67463D01*
X256020Y67763D01*
X256335Y68056D01*
X256656Y68340D01*
X256985Y68617D01*
X257320Y68885D01*
X257662Y69145D01*
X258010Y69397D01*
X258365Y69640D01*
X258725Y69874D01*
X259090Y70099D01*
X259461Y70316D01*
X259838Y70523D01*
X260219Y70720D01*
X260605Y70909D01*
X260995Y71088D01*
X261390Y71257D01*
X261789Y71416D01*
X262191Y71566D01*
X262598Y71706D01*
X263007Y71835D01*
X263420Y71955D01*
X263835Y72065D01*
X264253Y72164D01*
X264673Y72253D01*
X265095Y72331D01*
X265519Y72400D01*
X265945Y72457D01*
X266372Y72505D01*
X266800Y72542D01*
X267228Y72568D01*
X267658Y72584D01*
X268087Y72589D01*
X268516Y72584D01*
X268946Y72568D01*
X269374Y72542D01*
X269802Y72505D01*
X270229Y72457D01*
X270655Y72400D01*
X271079Y72331D01*
X271501Y72253D01*
X271921Y72164D01*
X272339Y72065D01*
X272754Y71955D01*
X273167Y71835D01*
X273576Y71706D01*
X273983Y71566D01*
X274385Y71416D01*
X274784Y71257D01*
X275179Y71088D01*
X275569Y70909D01*
X275955Y70720D01*
X276336Y70523D01*
X276713Y70316D01*
X277084Y70099D01*
X277449Y69874D01*
X277809Y69640D01*
X278164Y69397D01*
X278512Y69145D01*
X278854Y68885D01*
X279189Y68617D01*
X279518Y68340D01*
X279839Y68056D01*
X280154Y67763D01*
X280461Y67463D01*
X280761Y67156D01*
X281054Y66841D01*
X281338Y66520D01*
X281615Y66191D01*
X281883Y65856D01*
X282143Y65514D01*
X282395Y65166D01*
X282638Y64811D01*
X282872Y64451D01*
X283097Y64086D01*
X283314Y63715D01*
X283521Y63338D01*
X283718Y62957D01*
X283907Y62571D01*
X284086Y62181D01*
X284255Y61786D01*
X284414Y61387D01*
X284564Y60985D01*
X284704Y60578D01*
X284833Y60169D01*
X284953Y59756D01*
X285063Y59341D01*
X285162Y58923D01*
X285251Y58503D01*
X285329Y58081D01*
X285398Y57657D01*
X285455Y57231D01*
X285503Y56804D01*
X285540Y56376D01*
X285566Y55948D01*
X285582Y55518D01*
X285587Y55089D01*
X285582Y54660D01*
X285566Y54230D01*
X285540Y53802D01*
X285503Y53374D01*
X285455Y52947D01*
X285398Y52521D01*
X285329Y52097D01*
X285251Y51675D01*
X285162Y51255D01*
X285063Y50837D01*
X284953Y50422D01*
X284833Y50009D01*
X284704Y49600D01*
X284564Y49193D01*
X284414Y48791D01*
X284255Y48392D01*
X284086Y47997D01*
X283907Y47607D01*
X283718Y47221D01*
X283521Y46840D01*
X283314Y46463D01*
X283097Y46092D01*
X282872Y45727D01*
X282638Y45367D01*
X282395Y45012D01*
X282143Y44664D01*
X281883Y44322D01*
X281615Y43987D01*
X281338Y43658D01*
X281054Y43337D01*
X280761Y43022D01*
X280461Y42715D01*
X280154Y42415D01*
X279839Y42122D01*
X279518Y41838D01*
X279189Y41561D01*
X278854Y41293D01*
X278512Y41033D01*
X278164Y40781D01*
X277809Y40538D01*
X277449Y40304D01*
X277084Y40079D01*
X276713Y39862D01*
X276336Y39655D01*
X275955Y39458D01*
X275569Y39269D01*
X275179Y39090D01*
X274784Y38921D01*
X274385Y38762D01*
X273983Y38612D01*
X273576Y38472D01*
X273167Y38343D01*
X272754Y38223D01*
X272339Y38113D01*
X271921Y38014D01*
X271501Y37925D01*
X271079Y37847D01*
X270655Y37778D01*
X270229Y37721D01*
X269802Y37673D01*
X269374Y37636D01*
X268946Y37610D01*
X268516Y37594D01*
X268087Y37589D01*
X267658Y37594D01*
X267228Y37610D01*
X266800Y37636D01*
X266372Y37673D01*
X265945Y37721D01*
X265519Y37778D01*
X265095Y37847D01*
X264673Y37925D01*
X264253Y38014D01*
X263835Y38113D01*
X263420Y38223D01*
X263007Y38343D01*
X262598Y38472D01*
X262191Y38612D01*
X261789Y38762D01*
X261390Y38921D01*
X260995Y39090D01*
X260605Y39269D01*
X260219Y39458D01*
X259838Y39655D01*
X259461Y39862D01*
X259090Y40079D01*
X258725Y40304D01*
X258365Y40538D01*
X258010Y40781D01*
X257662Y41033D01*
X257320Y41293D01*
X256985Y41561D01*
X256656Y41838D01*
X256335Y42122D01*
X256020Y42415D01*
X255713Y42715D01*
X255413Y43022D01*
X255120Y43337D01*
X254836Y43658D01*
X254559Y43987D01*
X254291Y44322D01*
X254031Y44664D01*
X253779Y45012D01*
X253536Y45367D01*
X253302Y45727D01*
X253077Y46092D01*
X252860Y46463D01*
X252653Y46840D01*
X252456Y47221D01*
X252267Y47607D01*
X252088Y47997D01*
X251919Y48392D01*
X251760Y48791D01*
X251610Y49193D01*
X251470Y49600D01*
X251341Y50009D01*
X251221Y50422D01*
X251111Y50837D01*
X251012Y51255D01*
X250923Y51675D01*
X250845Y52097D01*
X250776Y52521D01*
X250719Y52947D01*
X250671Y53374D01*
X250634Y53802D01*
X250608Y54230D01*
X250592Y54660D01*
X250587Y55089D01*
X232500Y122589D02*
X232505Y123018D01*
X232521Y123448D01*
X232547Y123876D01*
X232584Y124304D01*
X232632Y124731D01*
X232689Y125157D01*
X232758Y125581D01*
X232836Y126003D01*
X232925Y126423D01*
X233024Y126841D01*
X233134Y127256D01*
X233254Y127669D01*
X233383Y128078D01*
X233523Y128485D01*
X233673Y128887D01*
X233832Y129286D01*
X234001Y129681D01*
X234180Y130071D01*
X234369Y130457D01*
X234566Y130838D01*
X234773Y131215D01*
X234990Y131586D01*
X235215Y131951D01*
X235449Y132311D01*
X235692Y132666D01*
X235944Y133014D01*
X236204Y133356D01*
X236472Y133691D01*
X236749Y134020D01*
X237033Y134341D01*
X237326Y134656D01*
X237626Y134963D01*
X237933Y135263D01*
X238248Y135556D01*
X238569Y135840D01*
X238898Y136117D01*
X239233Y136385D01*
X239575Y136645D01*
X239923Y136897D01*
X240278Y137140D01*
X240638Y137374D01*
X241003Y137599D01*
X241374Y137816D01*
X241751Y138023D01*
X242132Y138220D01*
X242518Y138409D01*
X242908Y138588D01*
X243303Y138757D01*
X243702Y138916D01*
X244104Y139066D01*
X244511Y139206D01*
X244920Y139335D01*
X245333Y139455D01*
X245748Y139565D01*
X246166Y139664D01*
X246586Y139753D01*
X247008Y139831D01*
X247432Y139900D01*
X247858Y139957D01*
X248285Y140005D01*
X248713Y140042D01*
X249141Y140068D01*
X249571Y140084D01*
X250000Y140089D01*
X250429Y140084D01*
X250859Y140068D01*
X251287Y140042D01*
X251715Y140005D01*
X252142Y139957D01*
X252568Y139900D01*
X252992Y139831D01*
X253414Y139753D01*
X253834Y139664D01*
X254252Y139565D01*
X254667Y139455D01*
X255080Y139335D01*
X255489Y139206D01*
X255896Y139066D01*
X256298Y138916D01*
X256697Y138757D01*
X257092Y138588D01*
X257482Y138409D01*
X257868Y138220D01*
X258249Y138023D01*
X258626Y137816D01*
X258997Y137599D01*
X259362Y137374D01*
X259722Y137140D01*
X260077Y136897D01*
X260425Y136645D01*
X260767Y136385D01*
X261102Y136117D01*
X261431Y135840D01*
X261752Y135556D01*
X262067Y135263D01*
X262374Y134963D01*
X262674Y134656D01*
X262967Y134341D01*
X263251Y134020D01*
X263528Y133691D01*
X263796Y133356D01*
X264056Y133014D01*
X264308Y132666D01*
X264551Y132311D01*
X264785Y131951D01*
X265010Y131586D01*
X265227Y131215D01*
X265434Y130838D01*
X265631Y130457D01*
X265820Y130071D01*
X265999Y129681D01*
X266168Y129286D01*
X266327Y128887D01*
X266477Y128485D01*
X266617Y128078D01*
X266746Y127669D01*
X266866Y127256D01*
X266976Y126841D01*
X267075Y126423D01*
X267164Y126003D01*
X267242Y125581D01*
X267311Y125157D01*
X267368Y124731D01*
X267416Y124304D01*
X267453Y123876D01*
X267479Y123448D01*
X267495Y123018D01*
X267500Y122589D01*
X267495Y122160D01*
X267479Y121730D01*
X267453Y121302D01*
X267416Y120874D01*
X267368Y120447D01*
X267311Y120021D01*
X267242Y119597D01*
X267164Y119175D01*
X267075Y118755D01*
X266976Y118337D01*
X266866Y117922D01*
X266746Y117509D01*
X266617Y117100D01*
X266477Y116693D01*
X266327Y116291D01*
X266168Y115892D01*
X265999Y115497D01*
X265820Y115107D01*
X265631Y114721D01*
X265434Y114340D01*
X265227Y113963D01*
X265010Y113592D01*
X264785Y113227D01*
X264551Y112867D01*
X264308Y112512D01*
X264056Y112164D01*
X263796Y111822D01*
X263528Y111487D01*
X263251Y111158D01*
X262967Y110837D01*
X262674Y110522D01*
X262374Y110215D01*
X262067Y109915D01*
X261752Y109622D01*
X261431Y109338D01*
X261102Y109061D01*
X260767Y108793D01*
X260425Y108533D01*
X260077Y108281D01*
X259722Y108038D01*
X259362Y107804D01*
X258997Y107579D01*
X258626Y107362D01*
X258249Y107155D01*
X257868Y106958D01*
X257482Y106769D01*
X257092Y106590D01*
X256697Y106421D01*
X256298Y106262D01*
X255896Y106112D01*
X255489Y105972D01*
X255080Y105843D01*
X254667Y105723D01*
X254252Y105613D01*
X253834Y105514D01*
X253414Y105425D01*
X252992Y105347D01*
X252568Y105278D01*
X252142Y105221D01*
X251715Y105173D01*
X251287Y105136D01*
X250859Y105110D01*
X250429Y105094D01*
X250000Y105089D01*
X249571Y105094D01*
X249141Y105110D01*
X248713Y105136D01*
X248285Y105173D01*
X247858Y105221D01*
X247432Y105278D01*
X247008Y105347D01*
X246586Y105425D01*
X246166Y105514D01*
X245748Y105613D01*
X245333Y105723D01*
X244920Y105843D01*
X244511Y105972D01*
X244104Y106112D01*
X243702Y106262D01*
X243303Y106421D01*
X242908Y106590D01*
X242518Y106769D01*
X242132Y106958D01*
X241751Y107155D01*
X241374Y107362D01*
X241003Y107579D01*
X240638Y107804D01*
X240278Y108038D01*
X239923Y108281D01*
X239575Y108533D01*
X239233Y108793D01*
X238898Y109061D01*
X238569Y109338D01*
X238248Y109622D01*
X237933Y109915D01*
X237626Y110215D01*
X237326Y110522D01*
X237033Y110837D01*
X236749Y111158D01*
X236472Y111487D01*
X236204Y111822D01*
X235944Y112164D01*
X235692Y112512D01*
X235449Y112867D01*
X235215Y113227D01*
X234990Y113592D01*
X234773Y113963D01*
X234566Y114340D01*
X234369Y114721D01*
X234180Y115107D01*
X234001Y115497D01*
X233832Y115892D01*
X233673Y116291D01*
X233523Y116693D01*
X233383Y117100D01*
X233254Y117509D01*
X233134Y117922D01*
X233024Y118337D01*
X232925Y118755D01*
X232836Y119175D01*
X232758Y119597D01*
X232689Y120021D01*
X232632Y120447D01*
X232584Y120874D01*
X232547Y121302D01*
X232521Y121730D01*
X232505Y122160D01*
X232500Y122589D01*
X250587Y190089D02*
X250592Y190518D01*
X250608Y190948D01*
X250634Y191376D01*
X250671Y191804D01*
X250719Y192231D01*
X250776Y192657D01*
X250845Y193081D01*
X250923Y193503D01*
X251012Y193923D01*
X251111Y194341D01*
X251221Y194756D01*
X251341Y195169D01*
X251470Y195578D01*
X251610Y195985D01*
X251760Y196387D01*
X251919Y196786D01*
X252088Y197181D01*
X252267Y197571D01*
X252456Y197957D01*
X252653Y198338D01*
X252860Y198715D01*
X253077Y199086D01*
X253302Y199451D01*
X253536Y199811D01*
X253779Y200166D01*
X254031Y200514D01*
X254291Y200856D01*
X254559Y201191D01*
X254836Y201520D01*
X255120Y201841D01*
X255413Y202156D01*
X255713Y202463D01*
X256020Y202763D01*
X256335Y203056D01*
X256656Y203340D01*
X256985Y203617D01*
X257320Y203885D01*
X257662Y204145D01*
X258010Y204397D01*
X258365Y204640D01*
X258725Y204874D01*
X259090Y205099D01*
X259461Y205316D01*
X259838Y205523D01*
X260219Y205720D01*
X260605Y205909D01*
X260995Y206088D01*
X261390Y206257D01*
X261789Y206416D01*
X262191Y206566D01*
X262598Y206706D01*
X263007Y206835D01*
X263420Y206955D01*
X263835Y207065D01*
X264253Y207164D01*
X264673Y207253D01*
X265095Y207331D01*
X265519Y207400D01*
X265945Y207457D01*
X266372Y207505D01*
X266800Y207542D01*
X267228Y207568D01*
X267658Y207584D01*
X268087Y207589D01*
X268516Y207584D01*
X268946Y207568D01*
X269374Y207542D01*
X269802Y207505D01*
X270229Y207457D01*
X270655Y207400D01*
X271079Y207331D01*
X271501Y207253D01*
X271921Y207164D01*
X272339Y207065D01*
X272754Y206955D01*
X273167Y206835D01*
X273576Y206706D01*
X273983Y206566D01*
X274385Y206416D01*
X274784Y206257D01*
X275179Y206088D01*
X275569Y205909D01*
X275955Y205720D01*
X276336Y205523D01*
X276713Y205316D01*
X277084Y205099D01*
X277449Y204874D01*
X277809Y204640D01*
X278164Y204397D01*
X278512Y204145D01*
X278854Y203885D01*
X279189Y203617D01*
X279518Y203340D01*
X279839Y203056D01*
X280154Y202763D01*
X280461Y202463D01*
X280761Y202156D01*
X281054Y201841D01*
X281338Y201520D01*
X281615Y201191D01*
X281883Y200856D01*
X282143Y200514D01*
X282395Y200166D01*
X282638Y199811D01*
X282872Y199451D01*
X283097Y199086D01*
X283314Y198715D01*
X283521Y198338D01*
X283718Y197957D01*
X283907Y197571D01*
X284086Y197181D01*
X284255Y196786D01*
X284414Y196387D01*
X284564Y195985D01*
X284704Y195578D01*
X284833Y195169D01*
X284953Y194756D01*
X285063Y194341D01*
X285162Y193923D01*
X285251Y193503D01*
X285329Y193081D01*
X285398Y192657D01*
X285455Y192231D01*
X285503Y191804D01*
X285540Y191376D01*
X285566Y190948D01*
X285582Y190518D01*
X285587Y190089D01*
X285582Y189660D01*
X285566Y189230D01*
X285540Y188802D01*
X285503Y188374D01*
X285455Y187947D01*
X285398Y187521D01*
X285329Y187097D01*
X285251Y186675D01*
X285162Y186255D01*
X285063Y185837D01*
X284953Y185422D01*
X284833Y185009D01*
X284704Y184600D01*
X284564Y184193D01*
X284414Y183791D01*
X284255Y183392D01*
X284086Y182997D01*
X283907Y182607D01*
X283718Y182221D01*
X283521Y181840D01*
X283314Y181463D01*
X283097Y181092D01*
X282872Y180727D01*
X282638Y180367D01*
X282395Y180012D01*
X282143Y179664D01*
X281883Y179322D01*
X281615Y178987D01*
X281338Y178658D01*
X281054Y178337D01*
X280761Y178022D01*
X280461Y177715D01*
X280154Y177415D01*
X279839Y177122D01*
X279518Y176838D01*
X279189Y176561D01*
X278854Y176293D01*
X278512Y176033D01*
X278164Y175781D01*
X277809Y175538D01*
X277449Y175304D01*
X277084Y175079D01*
X276713Y174862D01*
X276336Y174655D01*
X275955Y174458D01*
X275569Y174269D01*
X275179Y174090D01*
X274784Y173921D01*
X274385Y173762D01*
X273983Y173612D01*
X273576Y173472D01*
X273167Y173343D01*
X272754Y173223D01*
X272339Y173113D01*
X271921Y173014D01*
X271501Y172925D01*
X271079Y172847D01*
X270655Y172778D01*
X270229Y172721D01*
X269802Y172673D01*
X269374Y172636D01*
X268946Y172610D01*
X268516Y172594D01*
X268087Y172589D01*
X267658Y172594D01*
X267228Y172610D01*
X266800Y172636D01*
X266372Y172673D01*
X265945Y172721D01*
X265519Y172778D01*
X265095Y172847D01*
X264673Y172925D01*
X264253Y173014D01*
X263835Y173113D01*
X263420Y173223D01*
X263007Y173343D01*
X262598Y173472D01*
X262191Y173612D01*
X261789Y173762D01*
X261390Y173921D01*
X260995Y174090D01*
X260605Y174269D01*
X260219Y174458D01*
X259838Y174655D01*
X259461Y174862D01*
X259090Y175079D01*
X258725Y175304D01*
X258365Y175538D01*
X258010Y175781D01*
X257662Y176033D01*
X257320Y176293D01*
X256985Y176561D01*
X256656Y176838D01*
X256335Y177122D01*
X256020Y177415D01*
X255713Y177715D01*
X255413Y178022D01*
X255120Y178337D01*
X254836Y178658D01*
X254559Y178987D01*
X254291Y179322D01*
X254031Y179664D01*
X253779Y180012D01*
X253536Y180367D01*
X253302Y180727D01*
X253077Y181092D01*
X252860Y181463D01*
X252653Y181840D01*
X252456Y182221D01*
X252267Y182607D01*
X252088Y182997D01*
X251919Y183392D01*
X251760Y183791D01*
X251610Y184193D01*
X251470Y184600D01*
X251341Y185009D01*
X251221Y185422D01*
X251111Y185837D01*
X251012Y186255D01*
X250923Y186675D01*
X250845Y187097D01*
X250776Y187521D01*
X250719Y187947D01*
X250671Y188374D01*
X250634Y188802D01*
X250608Y189230D01*
X250592Y189660D01*
X250587Y190089D01*
X300000Y239502D02*
X300005Y239931D01*
X300021Y240361D01*
X300047Y240789D01*
X300084Y241217D01*
X300132Y241644D01*
X300189Y242070D01*
X300258Y242494D01*
X300336Y242916D01*
X300425Y243336D01*
X300524Y243754D01*
X300634Y244169D01*
X300754Y244582D01*
X300883Y244991D01*
X301023Y245398D01*
X301173Y245800D01*
X301332Y246199D01*
X301501Y246594D01*
X301680Y246984D01*
X301869Y247370D01*
X302066Y247751D01*
X302273Y248128D01*
X302490Y248499D01*
X302715Y248864D01*
X302949Y249224D01*
X303192Y249579D01*
X303444Y249927D01*
X303704Y250269D01*
X303972Y250604D01*
X304249Y250933D01*
X304533Y251254D01*
X304826Y251569D01*
X305126Y251876D01*
X305433Y252176D01*
X305748Y252469D01*
X306069Y252753D01*
X306398Y253030D01*
X306733Y253298D01*
X307075Y253558D01*
X307423Y253810D01*
X307778Y254053D01*
X308138Y254287D01*
X308503Y254512D01*
X308874Y254729D01*
X309251Y254936D01*
X309632Y255133D01*
X310018Y255322D01*
X310408Y255501D01*
X310803Y255670D01*
X311202Y255829D01*
X311604Y255979D01*
X312011Y256119D01*
X312420Y256248D01*
X312833Y256368D01*
X313248Y256478D01*
X313666Y256577D01*
X314086Y256666D01*
X314508Y256744D01*
X314932Y256813D01*
X315358Y256870D01*
X315785Y256918D01*
X316213Y256955D01*
X316641Y256981D01*
X317071Y256997D01*
X317500Y257002D01*
X317929Y256997D01*
X318359Y256981D01*
X318787Y256955D01*
X319215Y256918D01*
X319642Y256870D01*
X320068Y256813D01*
X320492Y256744D01*
X320914Y256666D01*
X321334Y256577D01*
X321752Y256478D01*
X322167Y256368D01*
X322580Y256248D01*
X322989Y256119D01*
X323396Y255979D01*
X323798Y255829D01*
X324197Y255670D01*
X324592Y255501D01*
X324982Y255322D01*
X325368Y255133D01*
X325749Y254936D01*
X326126Y254729D01*
X326497Y254512D01*
X326862Y254287D01*
X327222Y254053D01*
X327577Y253810D01*
X327925Y253558D01*
X328267Y253298D01*
X328602Y253030D01*
X328931Y252753D01*
X329252Y252469D01*
X329567Y252176D01*
X329874Y251876D01*
X330174Y251569D01*
X330467Y251254D01*
X330751Y250933D01*
X331028Y250604D01*
X331296Y250269D01*
X331556Y249927D01*
X331808Y249579D01*
X332051Y249224D01*
X332285Y248864D01*
X332510Y248499D01*
X332727Y248128D01*
X332934Y247751D01*
X333131Y247370D01*
X333320Y246984D01*
X333499Y246594D01*
X333668Y246199D01*
X333827Y245800D01*
X333977Y245398D01*
X334117Y244991D01*
X334246Y244582D01*
X334366Y244169D01*
X334476Y243754D01*
X334575Y243336D01*
X334664Y242916D01*
X334742Y242494D01*
X334811Y242070D01*
X334868Y241644D01*
X334916Y241217D01*
X334953Y240789D01*
X334979Y240361D01*
X334995Y239931D01*
X335000Y239502D01*
X334995Y239073D01*
X334979Y238643D01*
X334953Y238215D01*
X334916Y237787D01*
X334868Y237360D01*
X334811Y236934D01*
X334742Y236510D01*
X334664Y236088D01*
X334575Y235668D01*
X334476Y235250D01*
X334366Y234835D01*
X334246Y234422D01*
X334117Y234013D01*
X333977Y233606D01*
X333827Y233204D01*
X333668Y232805D01*
X333499Y232410D01*
X333320Y232020D01*
X333131Y231634D01*
X332934Y231253D01*
X332727Y230876D01*
X332510Y230505D01*
X332285Y230140D01*
X332051Y229780D01*
X331808Y229425D01*
X331556Y229077D01*
X331296Y228735D01*
X331028Y228400D01*
X330751Y228071D01*
X330467Y227750D01*
X330174Y227435D01*
X329874Y227128D01*
X329567Y226828D01*
X329252Y226535D01*
X328931Y226251D01*
X328602Y225974D01*
X328267Y225706D01*
X327925Y225446D01*
X327577Y225194D01*
X327222Y224951D01*
X326862Y224717D01*
X326497Y224492D01*
X326126Y224275D01*
X325749Y224068D01*
X325368Y223871D01*
X324982Y223682D01*
X324592Y223503D01*
X324197Y223334D01*
X323798Y223175D01*
X323396Y223025D01*
X322989Y222885D01*
X322580Y222756D01*
X322167Y222636D01*
X321752Y222526D01*
X321334Y222427D01*
X320914Y222338D01*
X320492Y222260D01*
X320068Y222191D01*
X319642Y222134D01*
X319215Y222086D01*
X318787Y222049D01*
X318359Y222023D01*
X317929Y222007D01*
X317500Y222002D01*
X317071Y222007D01*
X316641Y222023D01*
X316213Y222049D01*
X315785Y222086D01*
X315358Y222134D01*
X314932Y222191D01*
X314508Y222260D01*
X314086Y222338D01*
X313666Y222427D01*
X313248Y222526D01*
X312833Y222636D01*
X312420Y222756D01*
X312011Y222885D01*
X311604Y223025D01*
X311202Y223175D01*
X310803Y223334D01*
X310408Y223503D01*
X310018Y223682D01*
X309632Y223871D01*
X309251Y224068D01*
X308874Y224275D01*
X308503Y224492D01*
X308138Y224717D01*
X307778Y224951D01*
X307423Y225194D01*
X307075Y225446D01*
X306733Y225706D01*
X306398Y225974D01*
X306069Y226251D01*
X305748Y226535D01*
X305433Y226828D01*
X305126Y227128D01*
X304826Y227435D01*
X304533Y227750D01*
X304249Y228071D01*
X303972Y228400D01*
X303704Y228735D01*
X303444Y229077D01*
X303192Y229425D01*
X302949Y229780D01*
X302715Y230140D01*
X302490Y230505D01*
X302273Y230876D01*
X302066Y231253D01*
X301869Y231634D01*
X301680Y232020D01*
X301501Y232410D01*
X301332Y232805D01*
X301173Y233204D01*
X301023Y233606D01*
X300883Y234013D01*
X300754Y234422D01*
X300634Y234835D01*
X300524Y235250D01*
X300425Y235668D01*
X300336Y236088D01*
X300258Y236510D01*
X300189Y236934D01*
X300132Y237360D01*
X300084Y237787D01*
X300047Y238215D01*
X300021Y238643D01*
X300005Y239073D01*
X300000Y239502D01*
X367500Y257589D02*
X367505Y258018D01*
X367521Y258448D01*
X367547Y258876D01*
X367584Y259304D01*
X367632Y259731D01*
X367689Y260157D01*
X367758Y260581D01*
X367836Y261003D01*
X367925Y261423D01*
X368024Y261841D01*
X368134Y262256D01*
X368254Y262669D01*
X368383Y263078D01*
X368523Y263485D01*
X368673Y263887D01*
X368832Y264286D01*
X369001Y264681D01*
X369180Y265071D01*
X369369Y265457D01*
X369566Y265838D01*
X369773Y266215D01*
X369990Y266586D01*
X370215Y266951D01*
X370449Y267311D01*
X370692Y267666D01*
X370944Y268014D01*
X371204Y268356D01*
X371472Y268691D01*
X371749Y269020D01*
X372033Y269341D01*
X372326Y269656D01*
X372626Y269963D01*
X372933Y270263D01*
X373248Y270556D01*
X373569Y270840D01*
X373898Y271117D01*
X374233Y271385D01*
X374575Y271645D01*
X374923Y271897D01*
X375278Y272140D01*
X375638Y272374D01*
X376003Y272599D01*
X376374Y272816D01*
X376751Y273023D01*
X377132Y273220D01*
X377518Y273409D01*
X377908Y273588D01*
X378303Y273757D01*
X378702Y273916D01*
X379104Y274066D01*
X379511Y274206D01*
X379920Y274335D01*
X380333Y274455D01*
X380748Y274565D01*
X381166Y274664D01*
X381586Y274753D01*
X382008Y274831D01*
X382432Y274900D01*
X382858Y274957D01*
X383285Y275005D01*
X383713Y275042D01*
X384141Y275068D01*
X384571Y275084D01*
X385000Y275089D01*
X385429Y275084D01*
X385859Y275068D01*
X386287Y275042D01*
X386715Y275005D01*
X387142Y274957D01*
X387568Y274900D01*
X387992Y274831D01*
X388414Y274753D01*
X388834Y274664D01*
X389252Y274565D01*
X389667Y274455D01*
X390080Y274335D01*
X390489Y274206D01*
X390896Y274066D01*
X391298Y273916D01*
X391697Y273757D01*
X392092Y273588D01*
X392482Y273409D01*
X392868Y273220D01*
X393249Y273023D01*
X393626Y272816D01*
X393997Y272599D01*
X394362Y272374D01*
X394722Y272140D01*
X395077Y271897D01*
X395425Y271645D01*
X395767Y271385D01*
X396102Y271117D01*
X396431Y270840D01*
X396752Y270556D01*
X397067Y270263D01*
X397374Y269963D01*
X397674Y269656D01*
X397967Y269341D01*
X398251Y269020D01*
X398528Y268691D01*
X398796Y268356D01*
X399056Y268014D01*
X399308Y267666D01*
X399551Y267311D01*
X399785Y266951D01*
X400010Y266586D01*
X400227Y266215D01*
X400434Y265838D01*
X400631Y265457D01*
X400820Y265071D01*
X400999Y264681D01*
X401168Y264286D01*
X401327Y263887D01*
X401477Y263485D01*
X401617Y263078D01*
X401746Y262669D01*
X401866Y262256D01*
X401976Y261841D01*
X402075Y261423D01*
X402164Y261003D01*
X402242Y260581D01*
X402311Y260157D01*
X402368Y259731D01*
X402416Y259304D01*
X402453Y258876D01*
X402479Y258448D01*
X402495Y258018D01*
X402500Y257589D01*
X402495Y257160D01*
X402479Y256730D01*
X402453Y256302D01*
X402416Y255874D01*
X402368Y255447D01*
X402311Y255021D01*
X402242Y254597D01*
X402164Y254175D01*
X402075Y253755D01*
X401976Y253337D01*
X401866Y252922D01*
X401746Y252509D01*
X401617Y252100D01*
X401477Y251693D01*
X401327Y251291D01*
X401168Y250892D01*
X400999Y250497D01*
X400820Y250107D01*
X400631Y249721D01*
X400434Y249340D01*
X400227Y248963D01*
X400010Y248592D01*
X399785Y248227D01*
X399551Y247867D01*
X399308Y247512D01*
X399056Y247164D01*
X398796Y246822D01*
X398528Y246487D01*
X398251Y246158D01*
X397967Y245837D01*
X397674Y245522D01*
X397374Y245215D01*
X397067Y244915D01*
X396752Y244622D01*
X396431Y244338D01*
X396102Y244061D01*
X395767Y243793D01*
X395425Y243533D01*
X395077Y243281D01*
X394722Y243038D01*
X394362Y242804D01*
X393997Y242579D01*
X393626Y242362D01*
X393249Y242155D01*
X392868Y241958D01*
X392482Y241769D01*
X392092Y241590D01*
X391697Y241421D01*
X391298Y241262D01*
X390896Y241112D01*
X390489Y240972D01*
X390080Y240843D01*
X389667Y240723D01*
X389252Y240613D01*
X388834Y240514D01*
X388414Y240425D01*
X387992Y240347D01*
X387568Y240278D01*
X387142Y240221D01*
X386715Y240173D01*
X386287Y240136D01*
X385859Y240110D01*
X385429Y240094D01*
X385000Y240089D01*
X384571Y240094D01*
X384141Y240110D01*
X383713Y240136D01*
X383285Y240173D01*
X382858Y240221D01*
X382432Y240278D01*
X382008Y240347D01*
X381586Y240425D01*
X381166Y240514D01*
X380748Y240613D01*
X380333Y240723D01*
X379920Y240843D01*
X379511Y240972D01*
X379104Y241112D01*
X378702Y241262D01*
X378303Y241421D01*
X377908Y241590D01*
X377518Y241769D01*
X377132Y241958D01*
X376751Y242155D01*
X376374Y242362D01*
X376003Y242579D01*
X375638Y242804D01*
X375278Y243038D01*
X374923Y243281D01*
X374575Y243533D01*
X374233Y243793D01*
X373898Y244061D01*
X373569Y244338D01*
X373248Y244622D01*
X372933Y244915D01*
X372626Y245215D01*
X372326Y245522D01*
X372033Y245837D01*
X371749Y246158D01*
X371472Y246487D01*
X371204Y246822D01*
X370944Y247164D01*
X370692Y247512D01*
X370449Y247867D01*
X370215Y248227D01*
X369990Y248592D01*
X369773Y248963D01*
X369566Y249340D01*
X369369Y249721D01*
X369180Y250107D01*
X369001Y250497D01*
X368832Y250892D01*
X368673Y251291D01*
X368523Y251693D01*
X368383Y252100D01*
X368254Y252509D01*
X368134Y252922D01*
X368024Y253337D01*
X367925Y253755D01*
X367836Y254175D01*
X367758Y254597D01*
X367689Y255021D01*
X367632Y255447D01*
X367584Y255874D01*
X367547Y256302D01*
X367521Y256730D01*
X367505Y257160D01*
X367500Y257589D01*
X435000Y239502D02*
X435005Y239931D01*
X435021Y240361D01*
X435047Y240789D01*
X435084Y241217D01*
X435132Y241644D01*
X435189Y242070D01*
X435258Y242494D01*
X435336Y242916D01*
X435425Y243336D01*
X435524Y243754D01*
X435634Y244169D01*
X435754Y244582D01*
X435883Y244991D01*
X436023Y245398D01*
X436173Y245800D01*
X436332Y246199D01*
X436501Y246594D01*
X436680Y246984D01*
X436869Y247370D01*
X437066Y247751D01*
X437273Y248128D01*
X437490Y248499D01*
X437715Y248864D01*
X437949Y249224D01*
X438192Y249579D01*
X438444Y249927D01*
X438704Y250269D01*
X438972Y250604D01*
X439249Y250933D01*
X439533Y251254D01*
X439826Y251569D01*
X440126Y251876D01*
X440433Y252176D01*
X440748Y252469D01*
X441069Y252753D01*
X441398Y253030D01*
X441733Y253298D01*
X442075Y253558D01*
X442423Y253810D01*
X442778Y254053D01*
X443138Y254287D01*
X443503Y254512D01*
X443874Y254729D01*
X444251Y254936D01*
X444632Y255133D01*
X445018Y255322D01*
X445408Y255501D01*
X445803Y255670D01*
X446202Y255829D01*
X446604Y255979D01*
X447011Y256119D01*
X447420Y256248D01*
X447833Y256368D01*
X448248Y256478D01*
X448666Y256577D01*
X449086Y256666D01*
X449508Y256744D01*
X449932Y256813D01*
X450358Y256870D01*
X450785Y256918D01*
X451213Y256955D01*
X451641Y256981D01*
X452071Y256997D01*
X452500Y257002D01*
X452929Y256997D01*
X453359Y256981D01*
X453787Y256955D01*
X454215Y256918D01*
X454642Y256870D01*
X455068Y256813D01*
X455492Y256744D01*
X455914Y256666D01*
X456334Y256577D01*
X456752Y256478D01*
X457167Y256368D01*
X457580Y256248D01*
X457989Y256119D01*
X458396Y255979D01*
X458798Y255829D01*
X459197Y255670D01*
X459592Y255501D01*
X459982Y255322D01*
X460368Y255133D01*
X460749Y254936D01*
X461126Y254729D01*
X461497Y254512D01*
X461862Y254287D01*
X462222Y254053D01*
X462577Y253810D01*
X462925Y253558D01*
X463267Y253298D01*
X463602Y253030D01*
X463931Y252753D01*
X464252Y252469D01*
X464567Y252176D01*
X464874Y251876D01*
X465174Y251569D01*
X465467Y251254D01*
X465751Y250933D01*
X466028Y250604D01*
X466296Y250269D01*
X466556Y249927D01*
X466808Y249579D01*
X467051Y249224D01*
X467285Y248864D01*
X467510Y248499D01*
X467727Y248128D01*
X467934Y247751D01*
X468131Y247370D01*
X468320Y246984D01*
X468499Y246594D01*
X468668Y246199D01*
X468827Y245800D01*
X468977Y245398D01*
X469117Y244991D01*
X469246Y244582D01*
X469366Y244169D01*
X469476Y243754D01*
X469575Y243336D01*
X469664Y242916D01*
X469742Y242494D01*
X469811Y242070D01*
X469868Y241644D01*
X469916Y241217D01*
X469953Y240789D01*
X469979Y240361D01*
X469995Y239931D01*
X470000Y239502D01*
X469995Y239073D01*
X469979Y238643D01*
X469953Y238215D01*
X469916Y237787D01*
X469868Y237360D01*
X469811Y236934D01*
X469742Y236510D01*
X469664Y236088D01*
X469575Y235668D01*
X469476Y235250D01*
X469366Y234835D01*
X469246Y234422D01*
X469117Y234013D01*
X468977Y233606D01*
X468827Y233204D01*
X468668Y232805D01*
X468499Y232410D01*
X468320Y232020D01*
X468131Y231634D01*
X467934Y231253D01*
X467727Y230876D01*
X467510Y230505D01*
X467285Y230140D01*
X467051Y229780D01*
X466808Y229425D01*
X466556Y229077D01*
X466296Y228735D01*
X466028Y228400D01*
X465751Y228071D01*
X465467Y227750D01*
X465174Y227435D01*
X464874Y227128D01*
X464567Y226828D01*
X464252Y226535D01*
X463931Y226251D01*
X463602Y225974D01*
X463267Y225706D01*
X462925Y225446D01*
X462577Y225194D01*
X462222Y224951D01*
X461862Y224717D01*
X461497Y224492D01*
X461126Y224275D01*
X460749Y224068D01*
X460368Y223871D01*
X459982Y223682D01*
X459592Y223503D01*
X459197Y223334D01*
X458798Y223175D01*
X458396Y223025D01*
X457989Y222885D01*
X457580Y222756D01*
X457167Y222636D01*
X456752Y222526D01*
X456334Y222427D01*
X455914Y222338D01*
X455492Y222260D01*
X455068Y222191D01*
X454642Y222134D01*
X454215Y222086D01*
X453787Y222049D01*
X453359Y222023D01*
X452929Y222007D01*
X452500Y222002D01*
X452071Y222007D01*
X451641Y222023D01*
X451213Y222049D01*
X450785Y222086D01*
X450358Y222134D01*
X449932Y222191D01*
X449508Y222260D01*
X449086Y222338D01*
X448666Y222427D01*
X448248Y222526D01*
X447833Y222636D01*
X447420Y222756D01*
X447011Y222885D01*
X446604Y223025D01*
X446202Y223175D01*
X445803Y223334D01*
X445408Y223503D01*
X445018Y223682D01*
X444632Y223871D01*
X444251Y224068D01*
X443874Y224275D01*
X443503Y224492D01*
X443138Y224717D01*
X442778Y224951D01*
X442423Y225194D01*
X442075Y225446D01*
X441733Y225706D01*
X441398Y225974D01*
X441069Y226251D01*
X440748Y226535D01*
X440433Y226828D01*
X440126Y227128D01*
X439826Y227435D01*
X439533Y227750D01*
X439249Y228071D01*
X438972Y228400D01*
X438704Y228735D01*
X438444Y229077D01*
X438192Y229425D01*
X437949Y229780D01*
X437715Y230140D01*
X437490Y230505D01*
X437273Y230876D01*
X437066Y231253D01*
X436869Y231634D01*
X436680Y232020D01*
X436501Y232410D01*
X436332Y232805D01*
X436173Y233204D01*
X436023Y233606D01*
X435883Y234013D01*
X435754Y234422D01*
X435634Y234835D01*
X435524Y235250D01*
X435425Y235668D01*
X435336Y236088D01*
X435258Y236510D01*
X435189Y236934D01*
X435132Y237360D01*
X435084Y237787D01*
X435047Y238215D01*
X435021Y238643D01*
X435005Y239073D01*
X435000Y239502D01*
X484413Y190089D02*
X484418Y190518D01*
X484434Y190948D01*
X484460Y191376D01*
X484497Y191804D01*
X484545Y192231D01*
X484602Y192657D01*
X484671Y193081D01*
X484749Y193503D01*
X484838Y193923D01*
X484937Y194341D01*
X485047Y194756D01*
X485167Y195169D01*
X485296Y195578D01*
X485436Y195985D01*
X485586Y196387D01*
X485745Y196786D01*
X485914Y197181D01*
X486093Y197571D01*
X486282Y197957D01*
X486479Y198338D01*
X486686Y198715D01*
X486903Y199086D01*
X487128Y199451D01*
X487362Y199811D01*
X487605Y200166D01*
X487857Y200514D01*
X488117Y200856D01*
X488385Y201191D01*
X488662Y201520D01*
X488946Y201841D01*
X489239Y202156D01*
X489539Y202463D01*
X489846Y202763D01*
X490161Y203056D01*
X490482Y203340D01*
X490811Y203617D01*
X491146Y203885D01*
X491488Y204145D01*
X491836Y204397D01*
X492191Y204640D01*
X492551Y204874D01*
X492916Y205099D01*
X493287Y205316D01*
X493664Y205523D01*
X494045Y205720D01*
X494431Y205909D01*
X494821Y206088D01*
X495216Y206257D01*
X495615Y206416D01*
X496017Y206566D01*
X496424Y206706D01*
X496833Y206835D01*
X497246Y206955D01*
X497661Y207065D01*
X498079Y207164D01*
X498499Y207253D01*
X498921Y207331D01*
X499345Y207400D01*
X499771Y207457D01*
X500198Y207505D01*
X500626Y207542D01*
X501054Y207568D01*
X501484Y207584D01*
X501913Y207589D01*
X502342Y207584D01*
X502772Y207568D01*
X503200Y207542D01*
X503628Y207505D01*
X504055Y207457D01*
X504481Y207400D01*
X504905Y207331D01*
X505327Y207253D01*
X505747Y207164D01*
X506165Y207065D01*
X506580Y206955D01*
X506993Y206835D01*
X507402Y206706D01*
X507809Y206566D01*
X508211Y206416D01*
X508610Y206257D01*
X509005Y206088D01*
X509395Y205909D01*
X509781Y205720D01*
X510162Y205523D01*
X510539Y205316D01*
X510910Y205099D01*
X511275Y204874D01*
X511635Y204640D01*
X511990Y204397D01*
X512338Y204145D01*
X512680Y203885D01*
X513015Y203617D01*
X513344Y203340D01*
X513665Y203056D01*
X513980Y202763D01*
X514287Y202463D01*
X514587Y202156D01*
X514880Y201841D01*
X515164Y201520D01*
X515441Y201191D01*
X515709Y200856D01*
X515969Y200514D01*
X516221Y200166D01*
X516464Y199811D01*
X516698Y199451D01*
X516923Y199086D01*
X517140Y198715D01*
X517347Y198338D01*
X517544Y197957D01*
X517733Y197571D01*
X517912Y197181D01*
X518081Y196786D01*
X518240Y196387D01*
X518390Y195985D01*
X518530Y195578D01*
X518659Y195169D01*
X518779Y194756D01*
X518889Y194341D01*
X518988Y193923D01*
X519077Y193503D01*
X519155Y193081D01*
X519224Y192657D01*
X519281Y192231D01*
X519329Y191804D01*
X519366Y191376D01*
X519392Y190948D01*
X519408Y190518D01*
X519413Y190089D01*
X519408Y189660D01*
X519392Y189230D01*
X519366Y188802D01*
X519329Y188374D01*
X519281Y187947D01*
X519224Y187521D01*
X519155Y187097D01*
X519077Y186675D01*
X518988Y186255D01*
X518889Y185837D01*
X518779Y185422D01*
X518659Y185009D01*
X518530Y184600D01*
X518390Y184193D01*
X518240Y183791D01*
X518081Y183392D01*
X517912Y182997D01*
X517733Y182607D01*
X517544Y182221D01*
X517347Y181840D01*
X517140Y181463D01*
X516923Y181092D01*
X516698Y180727D01*
X516464Y180367D01*
X516221Y180012D01*
X515969Y179664D01*
X515709Y179322D01*
X515441Y178987D01*
X515164Y178658D01*
X514880Y178337D01*
X514587Y178022D01*
X514287Y177715D01*
X513980Y177415D01*
X513665Y177122D01*
X513344Y176838D01*
X513015Y176561D01*
X512680Y176293D01*
X512338Y176033D01*
X511990Y175781D01*
X511635Y175538D01*
X511275Y175304D01*
X510910Y175079D01*
X510539Y174862D01*
X510162Y174655D01*
X509781Y174458D01*
X509395Y174269D01*
X509005Y174090D01*
X508610Y173921D01*
X508211Y173762D01*
X507809Y173612D01*
X507402Y173472D01*
X506993Y173343D01*
X506580Y173223D01*
X506165Y173113D01*
X505747Y173014D01*
X505327Y172925D01*
X504905Y172847D01*
X504481Y172778D01*
X504055Y172721D01*
X503628Y172673D01*
X503200Y172636D01*
X502772Y172610D01*
X502342Y172594D01*
X501913Y172589D01*
X501484Y172594D01*
X501054Y172610D01*
X500626Y172636D01*
X500198Y172673D01*
X499771Y172721D01*
X499345Y172778D01*
X498921Y172847D01*
X498499Y172925D01*
X498079Y173014D01*
X497661Y173113D01*
X497246Y173223D01*
X496833Y173343D01*
X496424Y173472D01*
X496017Y173612D01*
X495615Y173762D01*
X495216Y173921D01*
X494821Y174090D01*
X494431Y174269D01*
X494045Y174458D01*
X493664Y174655D01*
X493287Y174862D01*
X492916Y175079D01*
X492551Y175304D01*
X492191Y175538D01*
X491836Y175781D01*
X491488Y176033D01*
X491146Y176293D01*
X490811Y176561D01*
X490482Y176838D01*
X490161Y177122D01*
X489846Y177415D01*
X489539Y177715D01*
X489239Y178022D01*
X488946Y178337D01*
X488662Y178658D01*
X488385Y178987D01*
X488117Y179322D01*
X487857Y179664D01*
X487605Y180012D01*
X487362Y180367D01*
X487128Y180727D01*
X486903Y181092D01*
X486686Y181463D01*
X486479Y181840D01*
X486282Y182221D01*
X486093Y182607D01*
X485914Y182997D01*
X485745Y183392D01*
X485586Y183791D01*
X485436Y184193D01*
X485296Y184600D01*
X485167Y185009D01*
X485047Y185422D01*
X484937Y185837D01*
X484838Y186255D01*
X484749Y186675D01*
X484671Y187097D01*
X484602Y187521D01*
X484545Y187947D01*
X484497Y188374D01*
X484460Y188802D01*
X484434Y189230D01*
X484418Y189660D01*
X484413Y190089D01*
X502500Y122589D02*
X502505Y123018D01*
X502521Y123448D01*
X502547Y123876D01*
X502584Y124304D01*
X502632Y124731D01*
X502689Y125157D01*
X502758Y125581D01*
X502836Y126003D01*
X502925Y126423D01*
X503024Y126841D01*
X503134Y127256D01*
X503254Y127669D01*
X503383Y128078D01*
X503523Y128485D01*
X503673Y128887D01*
X503832Y129286D01*
X504001Y129681D01*
X504180Y130071D01*
X504369Y130457D01*
X504566Y130838D01*
X504773Y131215D01*
X504990Y131586D01*
X505215Y131951D01*
X505449Y132311D01*
X505692Y132666D01*
X505944Y133014D01*
X506204Y133356D01*
X506472Y133691D01*
X506749Y134020D01*
X507033Y134341D01*
X507326Y134656D01*
X507626Y134963D01*
X507933Y135263D01*
X508248Y135556D01*
X508569Y135840D01*
X508898Y136117D01*
X509233Y136385D01*
X509575Y136645D01*
X509923Y136897D01*
X510278Y137140D01*
X510638Y137374D01*
X511003Y137599D01*
X511374Y137816D01*
X511751Y138023D01*
X512132Y138220D01*
X512518Y138409D01*
X512908Y138588D01*
X513303Y138757D01*
X513702Y138916D01*
X514104Y139066D01*
X514511Y139206D01*
X514920Y139335D01*
X515333Y139455D01*
X515748Y139565D01*
X516166Y139664D01*
X516586Y139753D01*
X517008Y139831D01*
X517432Y139900D01*
X517858Y139957D01*
X518285Y140005D01*
X518713Y140042D01*
X519141Y140068D01*
X519571Y140084D01*
X520000Y140089D01*
X520429Y140084D01*
X520859Y140068D01*
X521287Y140042D01*
X521715Y140005D01*
X522142Y139957D01*
X522568Y139900D01*
X522992Y139831D01*
X523414Y139753D01*
X523834Y139664D01*
X524252Y139565D01*
X524667Y139455D01*
X525080Y139335D01*
X525489Y139206D01*
X525896Y139066D01*
X526298Y138916D01*
X526697Y138757D01*
X527092Y138588D01*
X527482Y138409D01*
X527868Y138220D01*
X528249Y138023D01*
X528626Y137816D01*
X528997Y137599D01*
X529362Y137374D01*
X529722Y137140D01*
X530077Y136897D01*
X530425Y136645D01*
X530767Y136385D01*
X531102Y136117D01*
X531431Y135840D01*
X531752Y135556D01*
X532067Y135263D01*
X532374Y134963D01*
X532674Y134656D01*
X532967Y134341D01*
X533251Y134020D01*
X533528Y133691D01*
X533796Y133356D01*
X534056Y133014D01*
X534308Y132666D01*
X534551Y132311D01*
X534785Y131951D01*
X535010Y131586D01*
X535227Y131215D01*
X535434Y130838D01*
X535631Y130457D01*
X535820Y130071D01*
X535999Y129681D01*
X536168Y129286D01*
X536327Y128887D01*
X536477Y128485D01*
X536617Y128078D01*
X536746Y127669D01*
X536866Y127256D01*
X536976Y126841D01*
X537075Y126423D01*
X537164Y126003D01*
X537242Y125581D01*
X537311Y125157D01*
X537368Y124731D01*
X537416Y124304D01*
X537453Y123876D01*
X537479Y123448D01*
X537495Y123018D01*
X537500Y122589D01*
X537495Y122160D01*
X537479Y121730D01*
X537453Y121302D01*
X537416Y120874D01*
X537368Y120447D01*
X537311Y120021D01*
X537242Y119597D01*
X537164Y119175D01*
X537075Y118755D01*
X536976Y118337D01*
X536866Y117922D01*
X536746Y117509D01*
X536617Y117100D01*
X536477Y116693D01*
X536327Y116291D01*
X536168Y115892D01*
X535999Y115497D01*
X535820Y115107D01*
X535631Y114721D01*
X535434Y114340D01*
X535227Y113963D01*
X535010Y113592D01*
X534785Y113227D01*
X534551Y112867D01*
X534308Y112512D01*
X534056Y112164D01*
X533796Y111822D01*
X533528Y111487D01*
X533251Y111158D01*
X532967Y110837D01*
X532674Y110522D01*
X532374Y110215D01*
X532067Y109915D01*
X531752Y109622D01*
X531431Y109338D01*
X531102Y109061D01*
X530767Y108793D01*
X530425Y108533D01*
X530077Y108281D01*
X529722Y108038D01*
X529362Y107804D01*
X528997Y107579D01*
X528626Y107362D01*
X528249Y107155D01*
X527868Y106958D01*
X527482Y106769D01*
X527092Y106590D01*
X526697Y106421D01*
X526298Y106262D01*
X525896Y106112D01*
X525489Y105972D01*
X525080Y105843D01*
X524667Y105723D01*
X524252Y105613D01*
X523834Y105514D01*
X523414Y105425D01*
X522992Y105347D01*
X522568Y105278D01*
X522142Y105221D01*
X521715Y105173D01*
X521287Y105136D01*
X520859Y105110D01*
X520429Y105094D01*
X520000Y105089D01*
X519571Y105094D01*
X519141Y105110D01*
X518713Y105136D01*
X518285Y105173D01*
X517858Y105221D01*
X517432Y105278D01*
X517008Y105347D01*
X516586Y105425D01*
X516166Y105514D01*
X515748Y105613D01*
X515333Y105723D01*
X514920Y105843D01*
X514511Y105972D01*
X514104Y106112D01*
X513702Y106262D01*
X513303Y106421D01*
X512908Y106590D01*
X512518Y106769D01*
X512132Y106958D01*
X511751Y107155D01*
X511374Y107362D01*
X511003Y107579D01*
X510638Y107804D01*
X510278Y108038D01*
X509923Y108281D01*
X509575Y108533D01*
X509233Y108793D01*
X508898Y109061D01*
X508569Y109338D01*
X508248Y109622D01*
X507933Y109915D01*
X507626Y110215D01*
X507326Y110522D01*
X507033Y110837D01*
X506749Y111158D01*
X506472Y111487D01*
X506204Y111822D01*
X505944Y112164D01*
X505692Y112512D01*
X505449Y112867D01*
X505215Y113227D01*
X504990Y113592D01*
X504773Y113963D01*
X504566Y114340D01*
X504369Y114721D01*
X504180Y115107D01*
X504001Y115497D01*
X503832Y115892D01*
X503673Y116291D01*
X503523Y116693D01*
X503383Y117100D01*
X503254Y117509D01*
X503134Y117922D01*
X503024Y118337D01*
X502925Y118755D01*
X502836Y119175D01*
X502758Y119597D01*
X502689Y120021D01*
X502632Y120447D01*
X502584Y120874D01*
X502547Y121302D01*
X502521Y121730D01*
X502505Y122160D01*
X502500Y122589D01*
X484413Y55089D02*
X484418Y55518D01*
X484434Y55948D01*
X484460Y56376D01*
X484497Y56804D01*
X484545Y57231D01*
X484602Y57657D01*
X484671Y58081D01*
X484749Y58503D01*
X484838Y58923D01*
X484937Y59341D01*
X485047Y59756D01*
X485167Y60169D01*
X485296Y60578D01*
X485436Y60985D01*
X485586Y61387D01*
X485745Y61786D01*
X485914Y62181D01*
X486093Y62571D01*
X486282Y62957D01*
X486479Y63338D01*
X486686Y63715D01*
X486903Y64086D01*
X487128Y64451D01*
X487362Y64811D01*
X487605Y65166D01*
X487857Y65514D01*
X488117Y65856D01*
X488385Y66191D01*
X488662Y66520D01*
X488946Y66841D01*
X489239Y67156D01*
X489539Y67463D01*
X489846Y67763D01*
X490161Y68056D01*
X490482Y68340D01*
X490811Y68617D01*
X491146Y68885D01*
X491488Y69145D01*
X491836Y69397D01*
X492191Y69640D01*
X492551Y69874D01*
X492916Y70099D01*
X493287Y70316D01*
X493664Y70523D01*
X494045Y70720D01*
X494431Y70909D01*
X494821Y71088D01*
X495216Y71257D01*
X495615Y71416D01*
X496017Y71566D01*
X496424Y71706D01*
X496833Y71835D01*
X497246Y71955D01*
X497661Y72065D01*
X498079Y72164D01*
X498499Y72253D01*
X498921Y72331D01*
X499345Y72400D01*
X499771Y72457D01*
X500198Y72505D01*
X500626Y72542D01*
X501054Y72568D01*
X501484Y72584D01*
X501913Y72589D01*
X502342Y72584D01*
X502772Y72568D01*
X503200Y72542D01*
X503628Y72505D01*
X504055Y72457D01*
X504481Y72400D01*
X504905Y72331D01*
X505327Y72253D01*
X505747Y72164D01*
X506165Y72065D01*
X506580Y71955D01*
X506993Y71835D01*
X507402Y71706D01*
X507809Y71566D01*
X508211Y71416D01*
X508610Y71257D01*
X509005Y71088D01*
X509395Y70909D01*
X509781Y70720D01*
X510162Y70523D01*
X510539Y70316D01*
X510910Y70099D01*
X511275Y69874D01*
X511635Y69640D01*
X511990Y69397D01*
X512338Y69145D01*
X512680Y68885D01*
X513015Y68617D01*
X513344Y68340D01*
X513665Y68056D01*
X513980Y67763D01*
X514287Y67463D01*
X514587Y67156D01*
X514880Y66841D01*
X515164Y66520D01*
X515441Y66191D01*
X515709Y65856D01*
X515969Y65514D01*
X516221Y65166D01*
X516464Y64811D01*
X516698Y64451D01*
X516923Y64086D01*
X517140Y63715D01*
X517347Y63338D01*
X517544Y62957D01*
X517733Y62571D01*
X517912Y62181D01*
X518081Y61786D01*
X518240Y61387D01*
X518390Y60985D01*
X518530Y60578D01*
X518659Y60169D01*
X518779Y59756D01*
X518889Y59341D01*
X518988Y58923D01*
X519077Y58503D01*
X519155Y58081D01*
X519224Y57657D01*
X519281Y57231D01*
X519329Y56804D01*
X519366Y56376D01*
X519392Y55948D01*
X519408Y55518D01*
X519413Y55089D01*
X519408Y54660D01*
X519392Y54230D01*
X519366Y53802D01*
X519329Y53374D01*
X519281Y52947D01*
X519224Y52521D01*
X519155Y52097D01*
X519077Y51675D01*
X518988Y51255D01*
X518889Y50837D01*
X518779Y50422D01*
X518659Y50009D01*
X518530Y49600D01*
X518390Y49193D01*
X518240Y48791D01*
X518081Y48392D01*
X517912Y47997D01*
X517733Y47607D01*
X517544Y47221D01*
X517347Y46840D01*
X517140Y46463D01*
X516923Y46092D01*
X516698Y45727D01*
X516464Y45367D01*
X516221Y45012D01*
X515969Y44664D01*
X515709Y44322D01*
X515441Y43987D01*
X515164Y43658D01*
X514880Y43337D01*
X514587Y43022D01*
X514287Y42715D01*
X513980Y42415D01*
X513665Y42122D01*
X513344Y41838D01*
X513015Y41561D01*
X512680Y41293D01*
X512338Y41033D01*
X511990Y40781D01*
X511635Y40538D01*
X511275Y40304D01*
X510910Y40079D01*
X510539Y39862D01*
X510162Y39655D01*
X509781Y39458D01*
X509395Y39269D01*
X509005Y39090D01*
X508610Y38921D01*
X508211Y38762D01*
X507809Y38612D01*
X507402Y38472D01*
X506993Y38343D01*
X506580Y38223D01*
X506165Y38113D01*
X505747Y38014D01*
X505327Y37925D01*
X504905Y37847D01*
X504481Y37778D01*
X504055Y37721D01*
X503628Y37673D01*
X503200Y37636D01*
X502772Y37610D01*
X502342Y37594D01*
X501913Y37589D01*
X501484Y37594D01*
X501054Y37610D01*
X500626Y37636D01*
X500198Y37673D01*
X499771Y37721D01*
X499345Y37778D01*
X498921Y37847D01*
X498499Y37925D01*
X498079Y38014D01*
X497661Y38113D01*
X497246Y38223D01*
X496833Y38343D01*
X496424Y38472D01*
X496017Y38612D01*
X495615Y38762D01*
X495216Y38921D01*
X494821Y39090D01*
X494431Y39269D01*
X494045Y39458D01*
X493664Y39655D01*
X493287Y39862D01*
X492916Y40079D01*
X492551Y40304D01*
X492191Y40538D01*
X491836Y40781D01*
X491488Y41033D01*
X491146Y41293D01*
X490811Y41561D01*
X490482Y41838D01*
X490161Y42122D01*
X489846Y42415D01*
X489539Y42715D01*
X489239Y43022D01*
X488946Y43337D01*
X488662Y43658D01*
X488385Y43987D01*
X488117Y44322D01*
X487857Y44664D01*
X487605Y45012D01*
X487362Y45367D01*
X487128Y45727D01*
X486903Y46092D01*
X486686Y46463D01*
X486479Y46840D01*
X486282Y47221D01*
X486093Y47607D01*
X485914Y47997D01*
X485745Y48392D01*
X485586Y48791D01*
X485436Y49193D01*
X485296Y49600D01*
X485167Y50009D01*
X485047Y50422D01*
X484937Y50837D01*
X484838Y51255D01*
X484749Y51675D01*
X484671Y52097D01*
X484602Y52521D01*
X484545Y52947D01*
X484497Y53374D01*
X484460Y53802D01*
X484434Y54230D01*
X484418Y54660D01*
X484413Y55089D01*
X457478Y50110D02*
X459226Y51901D01*
X460930Y53734D01*
X462588Y55608D01*
X464200Y57522D01*
X465765Y59475D01*
X467282Y61466D01*
X468750Y63493D01*
X470168Y65555D01*
X471535Y67652D01*
X472850Y69781D01*
X474113Y71941D01*
X475323Y74132D01*
X476479Y76352D01*
X477581Y78599D01*
X478627Y80872D01*
X479618Y83170D01*
X480552Y85492D01*
X481429Y87836D01*
X482249Y90201D01*
X483010Y92584D01*
X483714Y94986D01*
X484358Y97404D01*
X484943Y99838D01*
X485469Y102285D01*
X485935Y104743D01*
X486340Y107213D01*
X486685Y109692D01*
X486970Y112178D01*
X487194Y114671D01*
X487357Y117168D01*
X487458Y119669D01*
X487499Y122171D01*
X487479Y124673D01*
X487397Y127175D01*
X487255Y129673D01*
X487051Y132168D01*
X486787Y134656D01*
X486462Y137138D01*
X486077Y139611D01*
X485631Y142073D01*
X485125Y144524D01*
X484560Y146962D01*
X483935Y149385D01*
X483251Y151793D01*
X482509Y154183D01*
X481709Y156554D01*
X480851Y158905D01*
X479935Y161234D01*
X478964Y163541D01*
X477936Y165822D01*
X476852Y168078D01*
X475714Y170307D01*
X474522Y172508D01*
X473277Y174679D01*
X471979Y176818D01*
X470629Y178926D01*
X469228Y180999D01*
X467777Y183038D01*
X466276Y185041D01*
X464727Y187007D01*
X463131Y188934D01*
X461488Y190822D01*
X459799Y192669D01*
X458066Y194474D01*
X456289Y196237D01*
X454470Y197955D01*
X452609Y199629D01*
X450708Y201256D01*
X448768Y202837D01*
X446790Y204370D01*
X444775Y205854D01*
X442724Y207289D01*
X440639Y208673D01*
X438521Y210005D01*
X436370Y211286D01*
X434190Y212514D01*
X431979Y213688D01*
X429741Y214808D01*
X427477Y215872D01*
X425186Y216882D01*
X422872Y217835D01*
X420536Y218731D01*
X418178Y219570D01*
X415800Y220351D01*
X413404Y221074D01*
X410991Y221738D01*
X408563Y222343D01*
X406121Y222888D01*
X403665Y223374D01*
X401199Y223800D01*
X398723Y224165D01*
X396239Y224470D01*
X393749Y224714D01*
X391253Y224897D01*
X388753Y225019D01*
X386251Y225080D01*
X383749Y225080D01*
X381247Y225019D01*
X378747Y224897D01*
X376251Y224714D01*
X373761Y224470D01*
X371277Y224165D01*
X368801Y223800D01*
X366335Y223374D01*
X363879Y222888D01*
X361437Y222343D01*
X359009Y221738D01*
X356596Y221074D01*
X354200Y220351D01*
X351822Y219570D01*
X349464Y218731D01*
X347128Y217835D01*
X344814Y216882D01*
X342523Y215872D01*
X340259Y214808D01*
X338021Y213688D01*
X335810Y212514D01*
X333630Y211286D01*
X331479Y210005D01*
X329361Y208673D01*
X327276Y207289D01*
X325225Y205854D01*
X323210Y204370D01*
X321232Y202837D01*
X319292Y201256D01*
X317391Y199629D01*
X315530Y197955D01*
X313711Y196237D01*
X311934Y194474D01*
X310201Y192669D01*
X308512Y190822D01*
X306869Y188934D01*
X305273Y187007D01*
X303724Y185041D01*
X302223Y183038D01*
X300772Y180999D01*
X299371Y178926D01*
X298021Y176818D01*
X296723Y174679D01*
X295478Y172508D01*
X294286Y170307D01*
X293148Y168078D01*
X292064Y165822D01*
X291036Y163541D01*
X290065Y161234D01*
X289149Y158905D01*
X288291Y156554D01*
X287491Y154183D01*
X286749Y151793D01*
X286065Y149385D01*
X285440Y146962D01*
X284875Y144524D01*
X284369Y142073D01*
X283923Y139611D01*
X283538Y137138D01*
X283213Y134656D01*
X282949Y132168D01*
X282745Y129673D01*
X282603Y127175D01*
X282521Y124673D01*
X282501Y122171D01*
X282542Y119669D01*
X282643Y117168D01*
X282806Y114671D01*
X283030Y112178D01*
X283315Y109692D01*
X283660Y107213D01*
X284065Y104743D01*
X284531Y102285D01*
X285057Y99838D01*
X285642Y97404D01*
X286286Y94986D01*
X286990Y92584D01*
X287751Y90201D01*
X288571Y87836D01*
X289448Y85492D01*
X290382Y83170D01*
X291373Y80872D01*
X292419Y78599D01*
X293521Y76352D01*
X294677Y74132D01*
X295887Y71941D01*
X297150Y69781D01*
X298465Y67652D01*
X299832Y65555D01*
X301250Y63493D01*
X302718Y61466D01*
X304235Y59475D01*
X305800Y57522D01*
X307412Y55608D01*
X309070Y53734D01*
X310774Y51901D01*
X312522Y50110D01*
X457478Y50110D02*
X503440Y4148D01*
X503440Y4149D02*
X506297Y7076D01*
X509081Y10071D01*
X511791Y13134D01*
X514425Y16262D01*
X516982Y19454D01*
X519461Y22707D01*
X521860Y26019D01*
X524176Y29389D01*
X526410Y32815D01*
X528560Y36294D01*
X530624Y39825D01*
X532601Y43405D01*
X534490Y47032D01*
X536290Y50704D01*
X538000Y54419D01*
X539619Y58175D01*
X541146Y61969D01*
X542579Y65799D01*
X543919Y69663D01*
X545163Y73559D01*
X546313Y77484D01*
X547366Y81435D01*
X548322Y85412D01*
X549181Y89410D01*
X549942Y93428D01*
X550605Y97464D01*
X551169Y101515D01*
X551634Y105578D01*
X552000Y109651D01*
X552266Y113732D01*
X552432Y117818D01*
X552499Y121907D01*
X552465Y125997D01*
X552332Y130084D01*
X552099Y134167D01*
X551767Y138244D01*
X551335Y142310D01*
X550804Y146365D01*
X550174Y150406D01*
X549446Y154431D01*
X548619Y158436D01*
X547695Y162420D01*
X546674Y166380D01*
X545557Y170314D01*
X544344Y174220D01*
X543036Y178095D01*
X541634Y181936D01*
X540138Y185743D01*
X538550Y189511D01*
X536871Y193240D01*
X535100Y196927D01*
X533241Y200569D01*
X531293Y204165D01*
X529257Y207713D01*
X527136Y211209D01*
X524930Y214653D01*
X522641Y218042D01*
X520270Y221374D01*
X517817Y224647D01*
X515286Y227859D01*
X512677Y231008D01*
X509992Y234093D01*
X507233Y237111D01*
X504400Y240062D01*
X501497Y242942D01*
X498524Y245750D01*
X495483Y248485D01*
X492377Y251145D01*
X489206Y253728D01*
X485973Y256233D01*
X482680Y258658D01*
X479329Y261002D01*
X475922Y263264D01*
X472460Y265442D01*
X468947Y267535D01*
X465383Y269541D01*
X461771Y271459D01*
X458114Y273289D01*
X454413Y275029D01*
X450670Y276679D01*
X446889Y278236D01*
X443071Y279701D01*
X439217Y281072D01*
X435332Y282348D01*
X431417Y283529D01*
X427474Y284614D01*
X423505Y285603D01*
X419514Y286495D01*
X415502Y287288D01*
X411472Y287984D01*
X407426Y288581D01*
X403367Y289079D01*
X399297Y289478D01*
X395218Y289777D01*
X391133Y289977D01*
X387045Y290077D01*
X382955Y290077D01*
X378867Y289977D01*
X374782Y289777D01*
X370703Y289478D01*
X366633Y289079D01*
X362574Y288581D01*
X358528Y287984D01*
X354498Y287288D01*
X350486Y286495D01*
X346495Y285603D01*
X342526Y284614D01*
X338583Y283529D01*
X334668Y282348D01*
X330783Y281072D01*
X326929Y279701D01*
X323111Y278236D01*
X319330Y276679D01*
X315587Y275029D01*
X311886Y273289D01*
X308229Y271459D01*
X304617Y269541D01*
X301053Y267535D01*
X297540Y265442D01*
X294078Y263264D01*
X290671Y261002D01*
X287320Y258658D01*
X284027Y256233D01*
X280794Y253728D01*
X277623Y251145D01*
X274517Y248485D01*
X271476Y245750D01*
X268503Y242942D01*
X265600Y240062D01*
X262767Y237111D01*
X260008Y234093D01*
X257323Y231008D01*
X254714Y227859D01*
X252183Y224647D01*
X249730Y221374D01*
X247359Y218042D01*
X245070Y214653D01*
X242864Y211209D01*
X240743Y207713D01*
X238707Y204165D01*
X236759Y200569D01*
X234900Y196927D01*
X233129Y193240D01*
X231450Y189511D01*
X229862Y185743D01*
X228366Y181936D01*
X226964Y178095D01*
X225656Y174220D01*
X224443Y170314D01*
X223326Y166380D01*
X222305Y162420D01*
X221381Y158436D01*
X220554Y154431D01*
X219826Y150406D01*
X219196Y146365D01*
X218665Y142310D01*
X218233Y138244D01*
X217901Y134167D01*
X217668Y130084D01*
X217535Y125997D01*
X217501Y121907D01*
X217568Y117818D01*
X217734Y113732D01*
X218000Y109651D01*
X218366Y105578D01*
X218831Y101515D01*
X219395Y97464D01*
X220058Y93428D01*
X220819Y89410D01*
X221678Y85412D01*
X222634Y81435D01*
X223687Y77484D01*
X224837Y73559D01*
X226081Y69663D01*
X227421Y65799D01*
X228854Y61969D01*
X230381Y58175D01*
X232000Y54419D01*
X233710Y50704D01*
X235510Y47032D01*
X237399Y43405D01*
X239376Y39825D01*
X241440Y36294D01*
X243590Y32815D01*
X245824Y29389D01*
X248140Y26019D01*
X250539Y22707D01*
X253018Y19454D01*
X255575Y16262D01*
X258209Y13134D01*
X260919Y10071D01*
X263703Y7076D01*
X266560Y4149D01*
X266560Y4148D02*
X312522Y50110D01*
D11*
X322628Y125603D02*
X322628Y140856D01*
X327712Y140856D02*
X317543Y140856D01*
X332745Y140856D02*
X342914Y140856D01*
X332745Y140856D02*
X332745Y125603D01*
X342914Y125603D01*
X337830Y133230D02*
X332745Y133230D01*
X347948Y135772D02*
X347948Y125603D01*
X347948Y135772D02*
X353032Y140856D01*
X358116Y135772D01*
X358116Y125603D01*
X358116Y133230D02*
X347948Y133230D01*
X368234Y125603D02*
X368234Y140856D01*
X363150Y140856D02*
X373318Y140856D01*
X380894Y140856D02*
X385978Y140856D01*
X380894Y140856D02*
X378352Y138314D01*
X378352Y128145D01*
X380894Y125603D01*
X385978Y125603D01*
X388521Y128145D01*
X388521Y138314D01*
X385978Y140856D01*
X398638Y140856D02*
X398638Y125603D01*
X393554Y140856D02*
X403723Y140856D01*
X408756Y140856D02*
X408756Y125603D01*
X418925Y125603D01*
X423958Y140856D02*
X434127Y140856D01*
X423958Y140856D02*
X423958Y125603D01*
X434127Y125603D01*
X429043Y133230D02*
X423958Y133230D01*
X439161Y125603D02*
X439161Y140856D01*
X446787Y140856D01*
X449329Y138314D01*
X449329Y133230D01*
X446787Y130687D01*
X439161Y130687D01*
X444245Y130687D02*
X449329Y125603D01*
D12*
X736590Y121133D02*
X748284Y121133D01*
X736590Y121133D02*
X736590Y126980D01*
X738539Y128929D01*
X742437Y128929D01*
X744386Y126980D01*
X744386Y121133D01*
X744386Y125031D02*
X748284Y128929D01*
X748284Y134776D02*
X748284Y138674D01*
X748284Y134776D02*
X746335Y132827D01*
X742437Y132827D01*
X740488Y134776D01*
X740488Y138674D01*
X742437Y140623D01*
X744386Y140623D01*
X744386Y132827D01*
X740488Y144521D02*
X748284Y148419D01*
X740488Y152317D01*
X736590Y167909D02*
X748284Y167909D01*
X736590Y167909D02*
X736590Y173756D01*
X738539Y175705D01*
X740488Y175705D01*
X742437Y173756D01*
X744386Y175705D01*
X746335Y175705D01*
X748284Y173756D01*
X748284Y167909D01*
X742437Y167909D02*
X742437Y173756D01*
X326390Y41666D02*
X326390Y29972D01*
X330288Y37768D02*
X326390Y41666D01*
X330288Y37768D02*
X334186Y41666D01*
X334186Y29972D01*
X338084Y31921D02*
X338084Y37768D01*
X338084Y31921D02*
X340033Y29972D01*
X345880Y29972D01*
X345880Y37768D01*
X349778Y37768D02*
X349778Y29972D01*
X349778Y33870D02*
X353676Y37768D01*
X355625Y37768D01*
X361472Y37768D02*
X365370Y37768D01*
X367319Y35819D01*
X367319Y29972D01*
X361472Y29972D01*
X359523Y31921D01*
X361472Y33870D01*
X367319Y33870D01*
X373166Y31921D02*
X373166Y39717D01*
X373166Y31921D02*
X375115Y29972D01*
X375115Y37768D02*
X371217Y37768D01*
X392656Y41666D02*
X396554Y41666D01*
X392656Y41666D02*
X390707Y39717D01*
X390707Y31921D01*
X392656Y29972D01*
X396554Y29972D01*
X398503Y31921D01*
X398503Y39717D01*
X396554Y41666D01*
X402401Y37768D02*
X410197Y37768D01*
X402401Y29972D01*
X410197Y29972D01*
X414095Y29972D02*
X414095Y41666D01*
X414095Y33870D02*
X419942Y29972D01*
X414095Y33870D02*
X419942Y37768D01*
X425789Y37768D02*
X429687Y37768D01*
X431636Y35819D01*
X431636Y29972D01*
X425789Y29972D01*
X423840Y31921D01*
X425789Y33870D01*
X431636Y33870D01*
X435534Y29972D02*
X435534Y37768D01*
X441381Y37768D01*
X443330Y35819D01*
X443330Y29972D01*
X334186Y10922D02*
X326390Y10922D01*
X334186Y18718D01*
X334186Y20667D01*
X332237Y22616D01*
X328339Y22616D01*
X326390Y20667D01*
X338084Y20667D02*
X338084Y12871D01*
X338084Y20667D02*
X340033Y22616D01*
X343931Y22616D01*
X345880Y20667D01*
X345880Y12871D01*
X343931Y10922D01*
X340033Y10922D01*
X338084Y12871D01*
X345880Y20667D01*
X349778Y18718D02*
X353676Y22616D01*
X353676Y10922D01*
X349778Y10922D02*
X357574Y10922D01*
X361472Y12871D02*
X363421Y10922D01*
X367319Y10922D01*
X369268Y12871D01*
X369268Y20667D01*
X367319Y22616D01*
X363421Y22616D01*
X361472Y20667D01*
X361472Y18718D01*
X363421Y16769D01*
X369268Y16769D01*
X304292Y160274D02*
X304295Y160492D01*
X304303Y160710D01*
X304316Y160928D01*
X304335Y161145D01*
X304359Y161362D01*
X304388Y161578D01*
X304423Y161794D01*
X304463Y162008D01*
X304508Y162222D01*
X304558Y162434D01*
X304614Y162645D01*
X304675Y162855D01*
X304741Y163063D01*
X304812Y163269D01*
X304888Y163473D01*
X304969Y163676D01*
X305055Y163877D01*
X305146Y164075D01*
X305241Y164271D01*
X305342Y164465D01*
X305447Y164656D01*
X305557Y164844D01*
X305671Y165030D01*
X305790Y165213D01*
X305914Y165393D01*
X306041Y165570D01*
X306174Y165743D01*
X306310Y165914D01*
X306450Y166081D01*
X306595Y166244D01*
X306743Y166404D01*
X306896Y166560D01*
X307052Y166713D01*
X307212Y166861D01*
X307375Y167006D01*
X307542Y167146D01*
X307713Y167282D01*
X307886Y167415D01*
X308063Y167542D01*
X308243Y167666D01*
X308426Y167785D01*
X308612Y167899D01*
X308800Y168009D01*
X308991Y168114D01*
X309185Y168215D01*
X309381Y168310D01*
X309579Y168401D01*
X309780Y168487D01*
X309983Y168568D01*
X310187Y168644D01*
X310393Y168715D01*
X310601Y168781D01*
X310811Y168842D01*
X311022Y168898D01*
X311234Y168948D01*
X311448Y168993D01*
X311662Y169033D01*
X311878Y169068D01*
X312094Y169097D01*
X312311Y169121D01*
X312528Y169140D01*
X312746Y169153D01*
X312964Y169161D01*
X313182Y169164D01*
X313400Y169161D01*
X313618Y169153D01*
X313836Y169140D01*
X314053Y169121D01*
X314270Y169097D01*
X314486Y169068D01*
X314702Y169033D01*
X314916Y168993D01*
X315130Y168948D01*
X315342Y168898D01*
X315553Y168842D01*
X315763Y168781D01*
X315971Y168715D01*
X316177Y168644D01*
X316381Y168568D01*
X316584Y168487D01*
X316785Y168401D01*
X316983Y168310D01*
X317179Y168215D01*
X317373Y168114D01*
X317564Y168009D01*
X317752Y167899D01*
X317938Y167785D01*
X318121Y167666D01*
X318301Y167542D01*
X318478Y167415D01*
X318651Y167282D01*
X318822Y167146D01*
X318989Y167006D01*
X319152Y166861D01*
X319312Y166713D01*
X319468Y166560D01*
X319621Y166404D01*
X319769Y166244D01*
X319914Y166081D01*
X320054Y165914D01*
X320190Y165743D01*
X320323Y165570D01*
X320450Y165393D01*
X320574Y165213D01*
X320693Y165030D01*
X320807Y164844D01*
X320917Y164656D01*
X321022Y164465D01*
X321123Y164271D01*
X321218Y164075D01*
X321309Y163877D01*
X321395Y163676D01*
X321476Y163473D01*
X321552Y163269D01*
X321623Y163063D01*
X321689Y162855D01*
X321750Y162645D01*
X321806Y162434D01*
X321856Y162222D01*
X321901Y162008D01*
X321941Y161794D01*
X321976Y161578D01*
X322005Y161362D01*
X322029Y161145D01*
X322048Y160928D01*
X322061Y160710D01*
X322069Y160492D01*
X322072Y160274D01*
X322069Y160056D01*
X322061Y159838D01*
X322048Y159620D01*
X322029Y159403D01*
X322005Y159186D01*
X321976Y158970D01*
X321941Y158754D01*
X321901Y158540D01*
X321856Y158326D01*
X321806Y158114D01*
X321750Y157903D01*
X321689Y157693D01*
X321623Y157485D01*
X321552Y157279D01*
X321476Y157075D01*
X321395Y156872D01*
X321309Y156671D01*
X321218Y156473D01*
X321123Y156277D01*
X321022Y156083D01*
X320917Y155892D01*
X320807Y155704D01*
X320693Y155518D01*
X320574Y155335D01*
X320450Y155155D01*
X320323Y154978D01*
X320190Y154805D01*
X320054Y154634D01*
X319914Y154467D01*
X319769Y154304D01*
X319621Y154144D01*
X319468Y153988D01*
X319312Y153835D01*
X319152Y153687D01*
X318989Y153542D01*
X318822Y153402D01*
X318651Y153266D01*
X318478Y153133D01*
X318301Y153006D01*
X318121Y152882D01*
X317938Y152763D01*
X317752Y152649D01*
X317564Y152539D01*
X317373Y152434D01*
X317179Y152333D01*
X316983Y152238D01*
X316785Y152147D01*
X316584Y152061D01*
X316381Y151980D01*
X316177Y151904D01*
X315971Y151833D01*
X315763Y151767D01*
X315553Y151706D01*
X315342Y151650D01*
X315130Y151600D01*
X314916Y151555D01*
X314702Y151515D01*
X314486Y151480D01*
X314270Y151451D01*
X314053Y151427D01*
X313836Y151408D01*
X313618Y151395D01*
X313400Y151387D01*
X313182Y151384D01*
X312964Y151387D01*
X312746Y151395D01*
X312528Y151408D01*
X312311Y151427D01*
X312094Y151451D01*
X311878Y151480D01*
X311662Y151515D01*
X311448Y151555D01*
X311234Y151600D01*
X311022Y151650D01*
X310811Y151706D01*
X310601Y151767D01*
X310393Y151833D01*
X310187Y151904D01*
X309983Y151980D01*
X309780Y152061D01*
X309579Y152147D01*
X309381Y152238D01*
X309185Y152333D01*
X308991Y152434D01*
X308800Y152539D01*
X308612Y152649D01*
X308426Y152763D01*
X308243Y152882D01*
X308063Y153006D01*
X307886Y153133D01*
X307713Y153266D01*
X307542Y153402D01*
X307375Y153542D01*
X307212Y153687D01*
X307052Y153835D01*
X306896Y153988D01*
X306743Y154144D01*
X306595Y154304D01*
X306450Y154467D01*
X306310Y154634D01*
X306174Y154805D01*
X306041Y154978D01*
X305914Y155155D01*
X305790Y155335D01*
X305671Y155518D01*
X305557Y155704D01*
X305447Y155892D01*
X305342Y156083D01*
X305241Y156277D01*
X305146Y156473D01*
X305055Y156671D01*
X304969Y156872D01*
X304888Y157075D01*
X304812Y157279D01*
X304741Y157485D01*
X304675Y157693D01*
X304614Y157903D01*
X304558Y158114D01*
X304508Y158326D01*
X304463Y158540D01*
X304423Y158754D01*
X304388Y158970D01*
X304359Y159186D01*
X304335Y159403D01*
X304316Y159620D01*
X304303Y159838D01*
X304295Y160056D01*
X304292Y160274D01*
X311404Y160274D02*
X311406Y160358D01*
X311412Y160442D01*
X311422Y160525D01*
X311436Y160608D01*
X311453Y160690D01*
X311475Y160771D01*
X311500Y160851D01*
X311529Y160930D01*
X311562Y161007D01*
X311599Y161083D01*
X311639Y161157D01*
X311682Y161229D01*
X311729Y161299D01*
X311779Y161366D01*
X311832Y161431D01*
X311888Y161494D01*
X311947Y161553D01*
X312009Y161610D01*
X312073Y161664D01*
X312140Y161715D01*
X312210Y161762D01*
X312281Y161807D01*
X312354Y161848D01*
X312430Y161885D01*
X312506Y161919D01*
X312585Y161949D01*
X312665Y161975D01*
X312746Y161998D01*
X312827Y162016D01*
X312910Y162031D01*
X312993Y162042D01*
X313077Y162049D01*
X313161Y162052D01*
X313245Y162051D01*
X313329Y162046D01*
X313412Y162037D01*
X313495Y162024D01*
X313578Y162007D01*
X313659Y161987D01*
X313739Y161962D01*
X313819Y161934D01*
X313896Y161902D01*
X313972Y161867D01*
X314047Y161828D01*
X314119Y161785D01*
X314189Y161739D01*
X314257Y161690D01*
X314323Y161638D01*
X314386Y161582D01*
X314447Y161524D01*
X314504Y161463D01*
X314559Y161399D01*
X314610Y161333D01*
X314659Y161264D01*
X314704Y161193D01*
X314746Y161120D01*
X314784Y161045D01*
X314819Y160969D01*
X314850Y160891D01*
X314877Y160811D01*
X314900Y160731D01*
X314920Y160649D01*
X314936Y160567D01*
X314948Y160484D01*
X314956Y160400D01*
X314960Y160316D01*
X314960Y160232D01*
X314956Y160148D01*
X314948Y160064D01*
X314936Y159981D01*
X314920Y159899D01*
X314900Y159817D01*
X314877Y159737D01*
X314850Y159657D01*
X314819Y159579D01*
X314784Y159503D01*
X314746Y159428D01*
X314704Y159355D01*
X314659Y159284D01*
X314610Y159215D01*
X314559Y159149D01*
X314504Y159085D01*
X314447Y159024D01*
X314386Y158966D01*
X314323Y158910D01*
X314257Y158858D01*
X314189Y158809D01*
X314119Y158763D01*
X314047Y158720D01*
X313972Y158681D01*
X313896Y158646D01*
X313819Y158614D01*
X313739Y158586D01*
X313659Y158561D01*
X313578Y158541D01*
X313495Y158524D01*
X313412Y158511D01*
X313329Y158502D01*
X313245Y158497D01*
X313161Y158496D01*
X313077Y158499D01*
X312993Y158506D01*
X312910Y158517D01*
X312827Y158532D01*
X312746Y158550D01*
X312665Y158573D01*
X312585Y158599D01*
X312506Y158629D01*
X312430Y158663D01*
X312354Y158700D01*
X312281Y158741D01*
X312210Y158786D01*
X312140Y158833D01*
X312073Y158884D01*
X312009Y158938D01*
X311947Y158995D01*
X311888Y159054D01*
X311832Y159117D01*
X311779Y159182D01*
X311729Y159249D01*
X311682Y159319D01*
X311639Y159391D01*
X311599Y159465D01*
X311562Y159541D01*
X311529Y159618D01*
X311500Y159697D01*
X311475Y159777D01*
X311453Y159858D01*
X311436Y159940D01*
X311422Y160023D01*
X311412Y160106D01*
X311406Y160190D01*
X311404Y160274D01*
X448310Y160274D02*
X448313Y160492D01*
X448321Y160710D01*
X448334Y160928D01*
X448353Y161145D01*
X448377Y161362D01*
X448406Y161578D01*
X448441Y161794D01*
X448481Y162008D01*
X448526Y162222D01*
X448576Y162434D01*
X448632Y162645D01*
X448693Y162855D01*
X448759Y163063D01*
X448830Y163269D01*
X448906Y163473D01*
X448987Y163676D01*
X449073Y163877D01*
X449164Y164075D01*
X449259Y164271D01*
X449360Y164465D01*
X449465Y164656D01*
X449575Y164844D01*
X449689Y165030D01*
X449808Y165213D01*
X449932Y165393D01*
X450059Y165570D01*
X450192Y165743D01*
X450328Y165914D01*
X450468Y166081D01*
X450613Y166244D01*
X450761Y166404D01*
X450914Y166560D01*
X451070Y166713D01*
X451230Y166861D01*
X451393Y167006D01*
X451560Y167146D01*
X451731Y167282D01*
X451904Y167415D01*
X452081Y167542D01*
X452261Y167666D01*
X452444Y167785D01*
X452630Y167899D01*
X452818Y168009D01*
X453009Y168114D01*
X453203Y168215D01*
X453399Y168310D01*
X453597Y168401D01*
X453798Y168487D01*
X454001Y168568D01*
X454205Y168644D01*
X454411Y168715D01*
X454619Y168781D01*
X454829Y168842D01*
X455040Y168898D01*
X455252Y168948D01*
X455466Y168993D01*
X455680Y169033D01*
X455896Y169068D01*
X456112Y169097D01*
X456329Y169121D01*
X456546Y169140D01*
X456764Y169153D01*
X456982Y169161D01*
X457200Y169164D01*
X457418Y169161D01*
X457636Y169153D01*
X457854Y169140D01*
X458071Y169121D01*
X458288Y169097D01*
X458504Y169068D01*
X458720Y169033D01*
X458934Y168993D01*
X459148Y168948D01*
X459360Y168898D01*
X459571Y168842D01*
X459781Y168781D01*
X459989Y168715D01*
X460195Y168644D01*
X460399Y168568D01*
X460602Y168487D01*
X460803Y168401D01*
X461001Y168310D01*
X461197Y168215D01*
X461391Y168114D01*
X461582Y168009D01*
X461770Y167899D01*
X461956Y167785D01*
X462139Y167666D01*
X462319Y167542D01*
X462496Y167415D01*
X462669Y167282D01*
X462840Y167146D01*
X463007Y167006D01*
X463170Y166861D01*
X463330Y166713D01*
X463486Y166560D01*
X463639Y166404D01*
X463787Y166244D01*
X463932Y166081D01*
X464072Y165914D01*
X464208Y165743D01*
X464341Y165570D01*
X464468Y165393D01*
X464592Y165213D01*
X464711Y165030D01*
X464825Y164844D01*
X464935Y164656D01*
X465040Y164465D01*
X465141Y164271D01*
X465236Y164075D01*
X465327Y163877D01*
X465413Y163676D01*
X465494Y163473D01*
X465570Y163269D01*
X465641Y163063D01*
X465707Y162855D01*
X465768Y162645D01*
X465824Y162434D01*
X465874Y162222D01*
X465919Y162008D01*
X465959Y161794D01*
X465994Y161578D01*
X466023Y161362D01*
X466047Y161145D01*
X466066Y160928D01*
X466079Y160710D01*
X466087Y160492D01*
X466090Y160274D01*
X466087Y160056D01*
X466079Y159838D01*
X466066Y159620D01*
X466047Y159403D01*
X466023Y159186D01*
X465994Y158970D01*
X465959Y158754D01*
X465919Y158540D01*
X465874Y158326D01*
X465824Y158114D01*
X465768Y157903D01*
X465707Y157693D01*
X465641Y157485D01*
X465570Y157279D01*
X465494Y157075D01*
X465413Y156872D01*
X465327Y156671D01*
X465236Y156473D01*
X465141Y156277D01*
X465040Y156083D01*
X464935Y155892D01*
X464825Y155704D01*
X464711Y155518D01*
X464592Y155335D01*
X464468Y155155D01*
X464341Y154978D01*
X464208Y154805D01*
X464072Y154634D01*
X463932Y154467D01*
X463787Y154304D01*
X463639Y154144D01*
X463486Y153988D01*
X463330Y153835D01*
X463170Y153687D01*
X463007Y153542D01*
X462840Y153402D01*
X462669Y153266D01*
X462496Y153133D01*
X462319Y153006D01*
X462139Y152882D01*
X461956Y152763D01*
X461770Y152649D01*
X461582Y152539D01*
X461391Y152434D01*
X461197Y152333D01*
X461001Y152238D01*
X460803Y152147D01*
X460602Y152061D01*
X460399Y151980D01*
X460195Y151904D01*
X459989Y151833D01*
X459781Y151767D01*
X459571Y151706D01*
X459360Y151650D01*
X459148Y151600D01*
X458934Y151555D01*
X458720Y151515D01*
X458504Y151480D01*
X458288Y151451D01*
X458071Y151427D01*
X457854Y151408D01*
X457636Y151395D01*
X457418Y151387D01*
X457200Y151384D01*
X456982Y151387D01*
X456764Y151395D01*
X456546Y151408D01*
X456329Y151427D01*
X456112Y151451D01*
X455896Y151480D01*
X455680Y151515D01*
X455466Y151555D01*
X455252Y151600D01*
X455040Y151650D01*
X454829Y151706D01*
X454619Y151767D01*
X454411Y151833D01*
X454205Y151904D01*
X454001Y151980D01*
X453798Y152061D01*
X453597Y152147D01*
X453399Y152238D01*
X453203Y152333D01*
X453009Y152434D01*
X452818Y152539D01*
X452630Y152649D01*
X452444Y152763D01*
X452261Y152882D01*
X452081Y153006D01*
X451904Y153133D01*
X451731Y153266D01*
X451560Y153402D01*
X451393Y153542D01*
X451230Y153687D01*
X451070Y153835D01*
X450914Y153988D01*
X450761Y154144D01*
X450613Y154304D01*
X450468Y154467D01*
X450328Y154634D01*
X450192Y154805D01*
X450059Y154978D01*
X449932Y155155D01*
X449808Y155335D01*
X449689Y155518D01*
X449575Y155704D01*
X449465Y155892D01*
X449360Y156083D01*
X449259Y156277D01*
X449164Y156473D01*
X449073Y156671D01*
X448987Y156872D01*
X448906Y157075D01*
X448830Y157279D01*
X448759Y157485D01*
X448693Y157693D01*
X448632Y157903D01*
X448576Y158114D01*
X448526Y158326D01*
X448481Y158540D01*
X448441Y158754D01*
X448406Y158970D01*
X448377Y159186D01*
X448353Y159403D01*
X448334Y159620D01*
X448321Y159838D01*
X448313Y160056D01*
X448310Y160274D01*
X455422Y160274D02*
X455424Y160358D01*
X455430Y160442D01*
X455440Y160525D01*
X455454Y160608D01*
X455471Y160690D01*
X455493Y160771D01*
X455518Y160851D01*
X455547Y160930D01*
X455580Y161007D01*
X455617Y161083D01*
X455657Y161157D01*
X455700Y161229D01*
X455747Y161299D01*
X455797Y161366D01*
X455850Y161431D01*
X455906Y161494D01*
X455965Y161553D01*
X456027Y161610D01*
X456091Y161664D01*
X456158Y161715D01*
X456228Y161762D01*
X456299Y161807D01*
X456372Y161848D01*
X456448Y161885D01*
X456524Y161919D01*
X456603Y161949D01*
X456683Y161975D01*
X456764Y161998D01*
X456845Y162016D01*
X456928Y162031D01*
X457011Y162042D01*
X457095Y162049D01*
X457179Y162052D01*
X457263Y162051D01*
X457347Y162046D01*
X457430Y162037D01*
X457513Y162024D01*
X457596Y162007D01*
X457677Y161987D01*
X457757Y161962D01*
X457837Y161934D01*
X457914Y161902D01*
X457990Y161867D01*
X458065Y161828D01*
X458137Y161785D01*
X458207Y161739D01*
X458275Y161690D01*
X458341Y161638D01*
X458404Y161582D01*
X458465Y161524D01*
X458522Y161463D01*
X458577Y161399D01*
X458628Y161333D01*
X458677Y161264D01*
X458722Y161193D01*
X458764Y161120D01*
X458802Y161045D01*
X458837Y160969D01*
X458868Y160891D01*
X458895Y160811D01*
X458918Y160731D01*
X458938Y160649D01*
X458954Y160567D01*
X458966Y160484D01*
X458974Y160400D01*
X458978Y160316D01*
X458978Y160232D01*
X458974Y160148D01*
X458966Y160064D01*
X458954Y159981D01*
X458938Y159899D01*
X458918Y159817D01*
X458895Y159737D01*
X458868Y159657D01*
X458837Y159579D01*
X458802Y159503D01*
X458764Y159428D01*
X458722Y159355D01*
X458677Y159284D01*
X458628Y159215D01*
X458577Y159149D01*
X458522Y159085D01*
X458465Y159024D01*
X458404Y158966D01*
X458341Y158910D01*
X458275Y158858D01*
X458207Y158809D01*
X458137Y158763D01*
X458065Y158720D01*
X457990Y158681D01*
X457914Y158646D01*
X457837Y158614D01*
X457757Y158586D01*
X457677Y158561D01*
X457596Y158541D01*
X457513Y158524D01*
X457430Y158511D01*
X457347Y158502D01*
X457263Y158497D01*
X457179Y158496D01*
X457095Y158499D01*
X457011Y158506D01*
X456928Y158517D01*
X456845Y158532D01*
X456764Y158550D01*
X456683Y158573D01*
X456603Y158599D01*
X456524Y158629D01*
X456448Y158663D01*
X456372Y158700D01*
X456299Y158741D01*
X456228Y158786D01*
X456158Y158833D01*
X456091Y158884D01*
X456027Y158938D01*
X455965Y158995D01*
X455906Y159054D01*
X455850Y159117D01*
X455797Y159182D01*
X455747Y159249D01*
X455700Y159319D01*
X455657Y159391D01*
X455617Y159465D01*
X455580Y159541D01*
X455547Y159618D01*
X455518Y159697D01*
X455493Y159777D01*
X455471Y159858D01*
X455454Y159940D01*
X455440Y160023D01*
X455430Y160106D01*
X455424Y160190D01*
X455422Y160274D01*
X457454Y169164D02*
X313436Y169164D01*
X466090Y160528D02*
X466090Y138938D01*
X462026Y137668D01*
X462026Y126492D01*
X470154Y126492D01*
X470154Y137668D01*
X466090Y138938D01*
X304292Y125476D02*
X304292Y160274D01*
X304292Y125476D02*
X293624Y119634D01*
X293624Y99060D01*
X314960Y99060D01*
X314960Y119634D01*
X304292Y125476D01*
X293624Y99060D02*
X314960Y99060D01*
X314960Y101600D02*
X293624Y101600D01*
X293624Y104140D02*
X314960Y104140D01*
X314960Y106680D02*
X293624Y106680D01*
X293624Y109220D02*
X314960Y109220D01*
X314960Y111760D02*
X293624Y111760D01*
X293624Y114300D02*
X314960Y114300D01*
X314960Y116840D02*
X293624Y116840D01*
X293624Y119380D02*
X314960Y119380D01*
X310786Y121920D02*
X297798Y121920D01*
X302437Y124460D02*
X306147Y124460D01*
X294640Y120190D02*
X294640Y99060D01*
X297180Y99060D02*
X297180Y121581D01*
X299720Y122972D02*
X299720Y99060D01*
X302260Y99060D02*
X302260Y124363D01*
X304800Y125198D02*
X304800Y99060D01*
X307340Y99060D02*
X307340Y123807D01*
X309880Y122416D02*
X309880Y99060D01*
X312420Y99060D02*
X312420Y121025D01*
D13*
X285032Y60254D02*
X285032Y50254D01*
D14*
X255713Y78335D02*
X255713Y87581D01*
X255713Y78335D02*
X260336Y78335D01*
X261877Y79876D01*
X261877Y86040D01*
X260336Y87581D01*
X255713Y87581D01*
X264921Y84499D02*
X268003Y87581D01*
X268003Y78335D01*
X264921Y78335D02*
X271085Y78335D01*
D12*
X568859Y213274D02*
X570808Y211325D01*
X568859Y213274D02*
X564961Y213274D01*
X563012Y211325D01*
X563012Y209376D01*
X564961Y207427D01*
X568859Y207427D01*
X570808Y205478D01*
X570808Y203529D01*
X568859Y201580D01*
X564961Y201580D01*
X563012Y203529D01*
X574706Y201580D02*
X574706Y213274D01*
X578604Y205478D02*
X574706Y201580D01*
X578604Y205478D02*
X582502Y201580D01*
X582502Y213274D01*
X586400Y209376D02*
X590298Y213274D01*
X590298Y201580D01*
X586400Y201580D02*
X594196Y201580D01*
X164574Y126169D02*
X162625Y128118D01*
X158727Y128118D01*
X156778Y126169D01*
X156778Y124220D01*
X158727Y122271D01*
X162625Y122271D01*
X164574Y120322D01*
X164574Y118373D01*
X162625Y116424D01*
X158727Y116424D01*
X156778Y118373D01*
X168472Y116424D02*
X168472Y128118D01*
X172370Y120322D02*
X168472Y116424D01*
X172370Y120322D02*
X176268Y116424D01*
X176268Y128118D01*
X180166Y116424D02*
X187962Y116424D01*
X180166Y116424D02*
X187962Y124220D01*
X187962Y126169D01*
X186013Y128118D01*
X182115Y128118D01*
X180166Y126169D01*
X164528Y192215D02*
X162579Y194164D01*
X158681Y194164D01*
X156732Y192215D01*
X156732Y190266D01*
X158681Y188317D01*
X162579Y188317D01*
X164528Y186368D01*
X164528Y184419D01*
X162579Y182470D01*
X158681Y182470D01*
X156732Y184419D01*
X168426Y182470D02*
X168426Y194164D01*
X172324Y186368D02*
X168426Y182470D01*
X172324Y186368D02*
X176222Y182470D01*
X176222Y194164D01*
X180120Y192215D02*
X182069Y194164D01*
X185967Y194164D01*
X187916Y192215D01*
X187916Y190266D01*
X185967Y188317D01*
X184018Y188317D01*
X185967Y188317D02*
X187916Y186368D01*
X187916Y184419D01*
X185967Y182470D01*
X182069Y182470D01*
X180120Y184419D01*
X569107Y106458D02*
X571056Y104509D01*
X569107Y106458D02*
X565209Y106458D01*
X563260Y104509D01*
X563260Y102560D01*
X565209Y100611D01*
X569107Y100611D01*
X571056Y98662D01*
X571056Y96713D01*
X569107Y94764D01*
X565209Y94764D01*
X563260Y96713D01*
X574954Y94764D02*
X574954Y106458D01*
X578852Y98662D02*
X574954Y94764D01*
X578852Y98662D02*
X582750Y94764D01*
X582750Y106458D01*
X592495Y106458D02*
X592495Y94764D01*
X586648Y100611D02*
X592495Y106458D01*
X594444Y100611D02*
X586648Y100611D01*
D13*
X267000Y117524D02*
X267000Y127524D01*
D14*
X237681Y145605D02*
X237681Y154851D01*
X237681Y145605D02*
X242304Y145605D01*
X243845Y147146D01*
X243845Y153310D01*
X242304Y154851D01*
X237681Y154851D01*
X246889Y145605D02*
X253053Y145605D01*
X246889Y145605D02*
X253053Y151769D01*
X253053Y153310D01*
X251512Y154851D01*
X248430Y154851D01*
X246889Y153310D01*
D13*
X285048Y185302D02*
X285048Y195302D01*
D14*
X255729Y213383D02*
X255729Y222629D01*
X255729Y213383D02*
X260352Y213383D01*
X261893Y214924D01*
X261893Y221088D01*
X260352Y222629D01*
X255729Y222629D01*
X264937Y221088D02*
X266478Y222629D01*
X269560Y222629D01*
X271101Y221088D01*
X271101Y219547D01*
X269560Y218006D01*
X268019Y218006D01*
X269560Y218006D02*
X271101Y216465D01*
X271101Y214924D01*
X269560Y213383D01*
X266478Y213383D01*
X264937Y214924D01*
D13*
X334524Y234524D02*
X334524Y244524D01*
D14*
X305205Y262605D02*
X305205Y271851D01*
X305205Y262605D02*
X309828Y262605D01*
X311369Y264146D01*
X311369Y270310D01*
X309828Y271851D01*
X305205Y271851D01*
X319036Y271851D02*
X319036Y262605D01*
X314413Y267228D02*
X319036Y271851D01*
X320577Y267228D02*
X314413Y267228D01*
D13*
X402016Y262746D02*
X402016Y252746D01*
D14*
X372697Y280827D02*
X372697Y290073D01*
X372697Y280827D02*
X377320Y280827D01*
X378861Y282368D01*
X378861Y288532D01*
X377320Y290073D01*
X372697Y290073D01*
X381905Y290073D02*
X388069Y290073D01*
X381905Y290073D02*
X381905Y285450D01*
X384987Y286991D01*
X386528Y286991D01*
X388069Y285450D01*
X388069Y282368D01*
X386528Y280827D01*
X383446Y280827D01*
X381905Y282368D01*
D13*
X469508Y244524D02*
X469508Y234524D01*
D14*
X440189Y262605D02*
X440189Y271851D01*
X440189Y262605D02*
X444812Y262605D01*
X446353Y264146D01*
X446353Y270310D01*
X444812Y271851D01*
X440189Y271851D01*
X452479Y270310D02*
X455561Y271851D01*
X452479Y270310D02*
X449397Y267228D01*
X449397Y264146D01*
X450938Y262605D01*
X454020Y262605D01*
X455561Y264146D01*
X455561Y265687D01*
X454020Y267228D01*
X449397Y267228D01*
D13*
X518762Y195270D02*
X518762Y185270D01*
D14*
X489443Y213351D02*
X489443Y222597D01*
X489443Y213351D02*
X494066Y213351D01*
X495607Y214892D01*
X495607Y221056D01*
X494066Y222597D01*
X489443Y222597D01*
X498651Y222597D02*
X504815Y222597D01*
X504815Y221056D01*
X498651Y214892D01*
X498651Y213351D01*
D13*
X536984Y127508D02*
X536984Y117508D01*
D14*
X507665Y145589D02*
X507665Y154835D01*
X507665Y145589D02*
X512288Y145589D01*
X513829Y147130D01*
X513829Y153294D01*
X512288Y154835D01*
X507665Y154835D01*
X516873Y153294D02*
X518414Y154835D01*
X521496Y154835D01*
X523037Y153294D01*
X523037Y151753D01*
X521496Y150212D01*
X523037Y148671D01*
X523037Y147130D01*
X521496Y145589D01*
X518414Y145589D01*
X516873Y147130D01*
X516873Y148671D01*
X518414Y150212D01*
X516873Y151753D01*
X516873Y153294D01*
X518414Y150212D02*
X521496Y150212D01*
D13*
X519000Y60254D02*
X519000Y50254D01*
D14*
X489681Y78335D02*
X489681Y87581D01*
X489681Y78335D02*
X494304Y78335D01*
X495845Y79876D01*
X495845Y86040D01*
X494304Y87581D01*
X489681Y87581D01*
X498889Y79876D02*
X500430Y78335D01*
X503512Y78335D01*
X505053Y79876D01*
X505053Y86040D01*
X503512Y87581D01*
X500430Y87581D01*
X498889Y86040D01*
X498889Y84499D01*
X500430Y82958D01*
X505053Y82958D01*
M02*
