G04 EAGLE Gerber RS-274X export*
G75*
%MOMM*%
%FSLAX34Y34*%
%LPD*%
%INSilkscreen Bottom*%
%IPPOS*%
%AMOC8*
5,1,8,0,0,1.08239X$1,22.5*%
G01*
%ADD10C,0.076200*%
%ADD11C,0.101600*%
%ADD12C,0.250000*%

G36*
X194398Y19702D02*
X194398Y19702D01*
X194486Y19711D01*
X194507Y19721D01*
X194531Y19725D01*
X194608Y19771D01*
X194687Y19810D01*
X194704Y19827D01*
X194724Y19840D01*
X194780Y19909D01*
X194841Y19973D01*
X194850Y19995D01*
X194865Y20014D01*
X194894Y20098D01*
X194929Y20180D01*
X194930Y20204D01*
X194937Y20226D01*
X194935Y20315D01*
X194939Y20404D01*
X194931Y20427D01*
X194931Y20451D01*
X194897Y20533D01*
X194870Y20618D01*
X194854Y20639D01*
X194846Y20658D01*
X194812Y20696D01*
X194758Y20768D01*
X182058Y33468D01*
X182027Y33490D01*
X182010Y33509D01*
X181991Y33519D01*
X181957Y33551D01*
X181913Y33570D01*
X181874Y33597D01*
X181811Y33613D01*
X181750Y33639D01*
X181703Y33641D01*
X181657Y33653D01*
X181592Y33646D01*
X181526Y33649D01*
X181481Y33634D01*
X181434Y33629D01*
X181375Y33600D01*
X181312Y33580D01*
X181268Y33547D01*
X181233Y33530D01*
X181206Y33501D01*
X181198Y33496D01*
X181181Y33485D01*
X181176Y33479D01*
X181162Y33468D01*
X168462Y20768D01*
X168411Y20695D01*
X168355Y20626D01*
X168347Y20604D01*
X168333Y20584D01*
X168311Y20498D01*
X168283Y20414D01*
X168283Y20390D01*
X168278Y20367D01*
X168287Y20278D01*
X168289Y20189D01*
X168298Y20167D01*
X168301Y20144D01*
X168340Y20064D01*
X168374Y19982D01*
X168390Y19964D01*
X168400Y19943D01*
X168465Y19882D01*
X168525Y19816D01*
X168546Y19805D01*
X168563Y19789D01*
X168645Y19754D01*
X168725Y19713D01*
X168751Y19710D01*
X168770Y19701D01*
X168820Y19699D01*
X168910Y19686D01*
X194310Y19686D01*
X194398Y19702D01*
G37*
G36*
X3087Y109139D02*
X3087Y109139D01*
X3111Y109139D01*
X3193Y109173D01*
X3278Y109200D01*
X3299Y109216D01*
X3318Y109224D01*
X3356Y109258D01*
X3428Y109312D01*
X13428Y119312D01*
X13466Y119366D01*
X13511Y119413D01*
X13530Y119457D01*
X13557Y119496D01*
X13573Y119559D01*
X13599Y119620D01*
X13601Y119667D01*
X13613Y119713D01*
X13606Y119778D01*
X13609Y119844D01*
X13594Y119889D01*
X13589Y119936D01*
X13560Y119995D01*
X13540Y120058D01*
X13507Y120102D01*
X13490Y120137D01*
X13461Y120164D01*
X13428Y120208D01*
X3428Y130208D01*
X3355Y130259D01*
X3286Y130315D01*
X3264Y130323D01*
X3244Y130337D01*
X3158Y130359D01*
X3074Y130387D01*
X3050Y130387D01*
X3027Y130393D01*
X2938Y130383D01*
X2849Y130381D01*
X2827Y130372D01*
X2804Y130369D01*
X2724Y130330D01*
X2642Y130296D01*
X2624Y130280D01*
X2603Y130270D01*
X2542Y130205D01*
X2476Y130145D01*
X2465Y130124D01*
X2449Y130107D01*
X2414Y130025D01*
X2373Y129945D01*
X2370Y129919D01*
X2361Y129900D01*
X2359Y129850D01*
X2346Y129760D01*
X2346Y109760D01*
X2362Y109672D01*
X2371Y109584D01*
X2381Y109563D01*
X2385Y109539D01*
X2431Y109462D01*
X2470Y109383D01*
X2487Y109366D01*
X2500Y109346D01*
X2569Y109290D01*
X2633Y109229D01*
X2655Y109220D01*
X2674Y109205D01*
X2758Y109176D01*
X2840Y109141D01*
X2864Y109140D01*
X2886Y109133D01*
X2975Y109135D01*
X3064Y109131D01*
X3087Y109139D01*
G37*
G36*
X660302Y163821D02*
X660302Y163821D01*
X660391Y163823D01*
X660413Y163832D01*
X660436Y163835D01*
X660516Y163874D01*
X660598Y163908D01*
X660616Y163924D01*
X660637Y163934D01*
X660698Y163999D01*
X660764Y164059D01*
X660775Y164080D01*
X660791Y164097D01*
X660826Y164179D01*
X660867Y164259D01*
X660870Y164285D01*
X660879Y164304D01*
X660881Y164354D01*
X660894Y164444D01*
X660894Y174444D01*
X660878Y174532D01*
X660869Y174620D01*
X660859Y174641D01*
X660855Y174665D01*
X660809Y174742D01*
X660770Y174821D01*
X660753Y174838D01*
X660740Y174858D01*
X660671Y174914D01*
X660607Y174975D01*
X660585Y174984D01*
X660566Y174999D01*
X660482Y175028D01*
X660400Y175063D01*
X660376Y175064D01*
X660354Y175071D01*
X660265Y175069D01*
X660176Y175073D01*
X660153Y175065D01*
X660129Y175065D01*
X660047Y175031D01*
X659962Y175004D01*
X659941Y174988D01*
X659922Y174980D01*
X659884Y174946D01*
X659812Y174892D01*
X654812Y169892D01*
X654774Y169839D01*
X654729Y169791D01*
X654710Y169747D01*
X654683Y169708D01*
X654667Y169645D01*
X654641Y169584D01*
X654639Y169537D01*
X654628Y169491D01*
X654634Y169426D01*
X654631Y169360D01*
X654646Y169315D01*
X654651Y169268D01*
X654680Y169209D01*
X654700Y169146D01*
X654733Y169102D01*
X654750Y169067D01*
X654779Y169040D01*
X654812Y168996D01*
X659812Y163996D01*
X659885Y163945D01*
X659954Y163889D01*
X659976Y163881D01*
X659996Y163867D01*
X660082Y163845D01*
X660166Y163817D01*
X660190Y163817D01*
X660213Y163812D01*
X660302Y163821D01*
G37*
G36*
X252222Y250027D02*
X252222Y250027D01*
X252311Y250029D01*
X252333Y250038D01*
X252356Y250041D01*
X252436Y250080D01*
X252518Y250114D01*
X252536Y250130D01*
X252557Y250140D01*
X252618Y250205D01*
X252684Y250265D01*
X252695Y250286D01*
X252711Y250303D01*
X252746Y250385D01*
X252787Y250465D01*
X252790Y250491D01*
X252799Y250510D01*
X252801Y250560D01*
X252814Y250650D01*
X252814Y257650D01*
X252802Y257719D01*
X252801Y257757D01*
X252795Y257771D01*
X252789Y257826D01*
X252779Y257847D01*
X252775Y257871D01*
X252729Y257948D01*
X252690Y258027D01*
X252673Y258044D01*
X252660Y258064D01*
X252591Y258120D01*
X252527Y258181D01*
X252505Y258190D01*
X252486Y258205D01*
X252402Y258234D01*
X252320Y258269D01*
X252296Y258270D01*
X252274Y258277D01*
X252185Y258275D01*
X252096Y258279D01*
X252073Y258271D01*
X252049Y258271D01*
X251967Y258237D01*
X251882Y258210D01*
X251861Y258194D01*
X251842Y258186D01*
X251804Y258152D01*
X251746Y258109D01*
X251743Y258107D01*
X251742Y258106D01*
X251732Y258098D01*
X248232Y254598D01*
X248194Y254545D01*
X248149Y254497D01*
X248130Y254453D01*
X248103Y254414D01*
X248087Y254351D01*
X248061Y254290D01*
X248059Y254243D01*
X248048Y254197D01*
X248054Y254132D01*
X248051Y254066D01*
X248066Y254021D01*
X248071Y253974D01*
X248100Y253915D01*
X248120Y253852D01*
X248153Y253808D01*
X248170Y253773D01*
X248199Y253746D01*
X248232Y253702D01*
X251732Y250202D01*
X251805Y250151D01*
X251874Y250095D01*
X251896Y250087D01*
X251916Y250073D01*
X252002Y250051D01*
X252086Y250023D01*
X252110Y250023D01*
X252133Y250018D01*
X252222Y250027D01*
G37*
D10*
X538861Y17653D02*
X548267Y17653D01*
X548267Y22356D01*
X546699Y23924D01*
X543564Y23924D01*
X541996Y22356D01*
X541996Y17653D01*
X541996Y20788D02*
X538861Y23924D01*
X548267Y27008D02*
X548267Y33279D01*
X548267Y27008D02*
X538861Y27008D01*
X538861Y33279D01*
X543564Y30144D02*
X543564Y27008D01*
X548267Y41066D02*
X546699Y42634D01*
X548267Y41066D02*
X548267Y37931D01*
X546699Y36363D01*
X545132Y36363D01*
X543564Y37931D01*
X543564Y41066D01*
X541996Y42634D01*
X540429Y42634D01*
X538861Y41066D01*
X538861Y37931D01*
X540429Y36363D01*
X548267Y45719D02*
X548267Y51989D01*
X548267Y45719D02*
X538861Y45719D01*
X538861Y51989D01*
X543564Y48854D02*
X543564Y45719D01*
X538861Y58209D02*
X548267Y58209D01*
X548267Y55074D02*
X548267Y61344D01*
X455295Y21550D02*
X455295Y18415D01*
X455295Y19983D02*
X464701Y19983D01*
X464701Y21550D02*
X464701Y18415D01*
X464701Y29355D02*
X463133Y30922D01*
X464701Y29355D02*
X464701Y26219D01*
X463133Y24652D01*
X461566Y24652D01*
X459998Y26219D01*
X459998Y29355D01*
X458430Y30922D01*
X456863Y30922D01*
X455295Y29355D01*
X455295Y26219D01*
X456863Y24652D01*
X455295Y34007D02*
X464701Y34007D01*
X464701Y38710D01*
X463133Y40278D01*
X459998Y40278D01*
X458430Y38710D01*
X458430Y34007D01*
X620903Y18415D02*
X630309Y18415D01*
X620903Y18415D02*
X620903Y23118D01*
X622471Y24686D01*
X628741Y24686D01*
X630309Y23118D01*
X630309Y18415D01*
X630309Y27770D02*
X630309Y34041D01*
X630309Y27770D02*
X620903Y27770D01*
X620903Y34041D01*
X625606Y30906D02*
X625606Y27770D01*
X620903Y37125D02*
X630309Y37125D01*
X630309Y41828D01*
X628741Y43396D01*
X627174Y43396D01*
X625606Y41828D01*
X624038Y43396D01*
X622471Y43396D01*
X620903Y41828D01*
X620903Y37125D01*
X625606Y37125D02*
X625606Y41828D01*
X622471Y46481D02*
X630309Y46481D01*
X622471Y46481D02*
X620903Y48048D01*
X620903Y51184D01*
X622471Y52751D01*
X630309Y52751D01*
X630309Y60539D02*
X628741Y62106D01*
X630309Y60539D02*
X630309Y57403D01*
X628741Y55836D01*
X622471Y55836D01*
X620903Y57403D01*
X620903Y60539D01*
X622471Y62106D01*
X625606Y62106D01*
X625606Y58971D01*
X266573Y72263D02*
X266573Y81669D01*
X266573Y72263D02*
X261870Y72263D01*
X260302Y73831D01*
X260302Y80101D01*
X261870Y81669D01*
X266573Y81669D01*
X257218Y81669D02*
X250947Y81669D01*
X257218Y81669D02*
X257218Y72263D01*
X250947Y72263D01*
X254082Y76966D02*
X257218Y76966D01*
X247863Y72263D02*
X247863Y81669D01*
X243160Y81669D01*
X241592Y80101D01*
X241592Y78534D01*
X243160Y76966D01*
X241592Y75398D01*
X241592Y73831D01*
X243160Y72263D01*
X247863Y72263D01*
X247863Y76966D02*
X243160Y76966D01*
X238507Y73831D02*
X238507Y81669D01*
X238507Y73831D02*
X236940Y72263D01*
X233804Y72263D01*
X232237Y73831D01*
X232237Y81669D01*
X224449Y81669D02*
X222882Y80101D01*
X224449Y81669D02*
X227585Y81669D01*
X229152Y80101D01*
X229152Y73831D01*
X227585Y72263D01*
X224449Y72263D01*
X222882Y73831D01*
X222882Y76966D01*
X226017Y76966D01*
X266573Y66429D02*
X266573Y57023D01*
X266573Y66429D02*
X261870Y66429D01*
X260302Y64861D01*
X260302Y61726D01*
X261870Y60158D01*
X266573Y60158D01*
X257218Y57023D02*
X257218Y66429D01*
X252515Y66429D01*
X250947Y64861D01*
X250947Y61726D01*
X252515Y60158D01*
X257218Y60158D01*
X254082Y60158D02*
X250947Y57023D01*
X246295Y66429D02*
X243160Y66429D01*
X246295Y66429D02*
X247863Y64861D01*
X247863Y58591D01*
X246295Y57023D01*
X243160Y57023D01*
X241592Y58591D01*
X241592Y64861D01*
X243160Y66429D01*
X238507Y66429D02*
X238507Y57023D01*
X238507Y66429D02*
X233804Y66429D01*
X232237Y64861D01*
X232237Y63294D01*
X233804Y61726D01*
X232237Y60158D01*
X232237Y58591D01*
X233804Y57023D01*
X238507Y57023D01*
X238507Y61726D02*
X233804Y61726D01*
X229152Y66429D02*
X222882Y66429D01*
X229152Y66429D02*
X229152Y57023D01*
X222882Y57023D01*
X226017Y61726D02*
X229152Y61726D01*
X54737Y205149D02*
X54737Y212987D01*
X54737Y205149D02*
X53169Y203581D01*
X50034Y203581D01*
X48466Y205149D01*
X48466Y212987D01*
X45382Y209852D02*
X45382Y203581D01*
X45382Y209852D02*
X42246Y212987D01*
X39111Y209852D01*
X39111Y203581D01*
X39111Y208284D02*
X45382Y208284D01*
X36027Y203581D02*
X36027Y212987D01*
X31324Y212987D01*
X29756Y211419D01*
X29756Y208284D01*
X31324Y206716D01*
X36027Y206716D01*
X32891Y206716D02*
X29756Y203581D01*
X23536Y203581D02*
X23536Y212987D01*
X26671Y212987D02*
X20401Y212987D01*
X96726Y278134D02*
X102997Y278134D01*
X155400Y278134D02*
X161671Y278134D01*
X158536Y281269D02*
X158536Y274999D01*
X357759Y27567D02*
X357759Y18161D01*
X354624Y24432D02*
X357759Y27567D01*
X354624Y24432D02*
X351488Y27567D01*
X351488Y18161D01*
X348404Y22864D02*
X342133Y22864D01*
X427101Y18161D02*
X427101Y27567D01*
X423966Y24432D01*
X420830Y27567D01*
X420830Y18161D01*
X417746Y22864D02*
X411475Y22864D01*
X414610Y25999D02*
X414610Y19729D01*
X741886Y201767D02*
X743454Y203335D01*
X746589Y203335D01*
X748157Y201767D01*
X748157Y195497D01*
X746589Y193929D01*
X743454Y193929D01*
X741886Y195497D01*
X741886Y198632D01*
X745022Y198632D01*
X738802Y193929D02*
X738802Y203335D01*
X732531Y193929D01*
X732531Y203335D01*
X729447Y203335D02*
X729447Y193929D01*
X724744Y193929D01*
X723176Y195497D01*
X723176Y201767D01*
X724744Y203335D01*
X729447Y203335D01*
X738759Y166418D02*
X738759Y160147D01*
X738759Y166418D02*
X735624Y169553D01*
X732488Y166418D01*
X732488Y160147D01*
X732488Y164850D02*
X738759Y164850D01*
X738759Y136279D02*
X738759Y126873D01*
X738759Y136279D02*
X734056Y136279D01*
X732488Y134711D01*
X732488Y133144D01*
X734056Y131576D01*
X732488Y130008D01*
X732488Y128441D01*
X734056Y126873D01*
X738759Y126873D01*
X738759Y131576D02*
X734056Y131576D01*
X765691Y125061D02*
X765691Y118791D01*
X756285Y118791D01*
X756285Y125061D01*
X760988Y121926D02*
X760988Y118791D01*
X756285Y128146D02*
X765691Y128146D01*
X756285Y134417D01*
X765691Y134417D01*
X765691Y142204D02*
X764123Y143772D01*
X765691Y142204D02*
X765691Y139069D01*
X764123Y137501D01*
X757853Y137501D01*
X756285Y139069D01*
X756285Y142204D01*
X757853Y143772D01*
X765691Y148424D02*
X765691Y151559D01*
X765691Y148424D02*
X764123Y146856D01*
X757853Y146856D01*
X756285Y148424D01*
X756285Y151559D01*
X757853Y153127D01*
X764123Y153127D01*
X765691Y151559D01*
X765691Y156211D02*
X756285Y156211D01*
X756285Y160914D01*
X757853Y162482D01*
X764123Y162482D01*
X765691Y160914D01*
X765691Y156211D01*
X765691Y165567D02*
X765691Y171837D01*
X765691Y165567D02*
X756285Y165567D01*
X756285Y171837D01*
X760988Y168702D02*
X760988Y165567D01*
X756285Y174922D02*
X765691Y174922D01*
X765691Y179625D01*
X764123Y181192D01*
X760988Y181192D01*
X759420Y179625D01*
X759420Y174922D01*
X759420Y178057D02*
X756285Y181192D01*
X141731Y284099D02*
X141731Y293505D01*
X137028Y293505D01*
X135460Y291937D01*
X135460Y290370D01*
X137028Y288802D01*
X135460Y287234D01*
X135460Y285667D01*
X137028Y284099D01*
X141731Y284099D01*
X141731Y288802D02*
X137028Y288802D01*
X132375Y290370D02*
X132375Y284099D01*
X132375Y290370D02*
X129240Y293505D01*
X126105Y290370D01*
X126105Y284099D01*
X126105Y288802D02*
X132375Y288802D01*
X119885Y284099D02*
X119885Y293505D01*
X123020Y293505D02*
X116750Y293505D01*
X417335Y102519D02*
X417335Y96249D01*
X417335Y102519D02*
X415768Y104087D01*
X412632Y104087D01*
X411065Y102519D01*
X411065Y96249D01*
X412632Y94681D01*
X415768Y94681D01*
X417335Y96249D01*
X414200Y97816D02*
X411065Y94681D01*
X407980Y100952D02*
X404845Y104087D01*
X404845Y94681D01*
X407980Y94681D02*
X401710Y94681D01*
X368201Y96117D02*
X368201Y102387D01*
X366633Y103955D01*
X363498Y103955D01*
X361930Y102387D01*
X361930Y96117D01*
X363498Y94549D01*
X366633Y94549D01*
X368201Y96117D01*
X365066Y97684D02*
X361930Y94549D01*
X358846Y94549D02*
X352575Y94549D01*
X358846Y94549D02*
X352575Y100820D01*
X352575Y102387D01*
X354143Y103955D01*
X357278Y103955D01*
X358846Y102387D01*
X417223Y108055D02*
X417223Y114325D01*
X415655Y115893D01*
X412520Y115893D01*
X410952Y114325D01*
X410952Y108055D01*
X412520Y106487D01*
X415655Y106487D01*
X417223Y108055D01*
X414088Y109622D02*
X410952Y106487D01*
X407868Y114325D02*
X406300Y115893D01*
X403165Y115893D01*
X401597Y114325D01*
X401597Y112758D01*
X403165Y111190D01*
X404732Y111190D01*
X403165Y111190D02*
X401597Y109622D01*
X401597Y108055D01*
X403165Y106487D01*
X406300Y106487D01*
X407868Y108055D01*
X368059Y107933D02*
X368059Y114203D01*
X366492Y115771D01*
X363356Y115771D01*
X361789Y114203D01*
X361789Y107933D01*
X363356Y106365D01*
X366492Y106365D01*
X368059Y107933D01*
X364924Y109500D02*
X361789Y106365D01*
X354001Y106365D02*
X354001Y115771D01*
X358704Y111068D01*
X352434Y111068D01*
D11*
X112804Y105731D02*
X110855Y103782D01*
X108906Y103782D01*
X106957Y105731D01*
X106957Y115476D01*
X108906Y115476D02*
X105008Y115476D01*
X101110Y111578D02*
X97212Y115476D01*
X97212Y103782D01*
X101110Y103782D02*
X93314Y103782D01*
X36114Y84215D02*
X34165Y82266D01*
X32216Y82266D01*
X30267Y84215D01*
X30267Y93960D01*
X32216Y93960D02*
X28318Y93960D01*
X24420Y82266D02*
X16624Y82266D01*
X24420Y82266D02*
X16624Y90062D01*
X16624Y92011D01*
X18573Y93960D01*
X22471Y93960D01*
X24420Y92011D01*
D10*
X610822Y276951D02*
X612390Y278519D01*
X615525Y278519D01*
X617093Y276951D01*
X617093Y270681D01*
X615525Y269113D01*
X612390Y269113D01*
X610822Y270681D01*
X607738Y275384D02*
X604602Y278519D01*
X604602Y269113D01*
X601467Y269113D02*
X607738Y269113D01*
X369226Y177681D02*
X367659Y176113D01*
X369226Y177681D02*
X372362Y177681D01*
X373929Y176113D01*
X373929Y169843D01*
X372362Y168275D01*
X369226Y168275D01*
X367659Y169843D01*
X364574Y176113D02*
X363007Y177681D01*
X359871Y177681D01*
X358304Y176113D01*
X358304Y174546D01*
X359871Y172978D01*
X361439Y172978D01*
X359871Y172978D02*
X358304Y171410D01*
X358304Y169843D01*
X359871Y168275D01*
X363007Y168275D01*
X364574Y169843D01*
X451225Y137505D02*
X452792Y139073D01*
X455928Y139073D01*
X457495Y137505D01*
X457495Y131235D01*
X455928Y129667D01*
X452792Y129667D01*
X451225Y131235D01*
X443437Y129667D02*
X443437Y139073D01*
X448140Y134370D01*
X441870Y134370D01*
D11*
X246728Y262005D02*
X246728Y269498D01*
X246728Y262005D02*
X245229Y260506D01*
X242232Y260506D01*
X240734Y262005D01*
X240734Y269498D01*
X237520Y260506D02*
X231526Y260506D01*
X237520Y260506D02*
X231526Y266500D01*
X231526Y267999D01*
X233024Y269498D01*
X236022Y269498D01*
X237520Y267999D01*
D12*
X143040Y242490D02*
X143040Y232490D01*
D10*
X143124Y229243D02*
X143124Y219837D01*
X139989Y229243D02*
X146260Y229243D01*
X136905Y229243D02*
X136905Y222972D01*
X133769Y219837D01*
X130634Y222972D01*
X130634Y229243D01*
X122846Y229243D02*
X121279Y227675D01*
X122846Y229243D02*
X125982Y229243D01*
X127549Y227675D01*
X127549Y226108D01*
X125982Y224540D01*
X122846Y224540D01*
X121279Y222972D01*
X121279Y221405D01*
X122846Y219837D01*
X125982Y219837D01*
X127549Y221405D01*
X118194Y226108D02*
X115059Y229243D01*
X115059Y219837D01*
X118194Y219837D02*
X111924Y219837D01*
X391541Y93447D02*
X391541Y84201D01*
X391541Y93447D02*
X386918Y93447D01*
X385377Y91906D01*
X385377Y88824D01*
X386918Y87283D01*
X391541Y87283D01*
X388459Y87283D02*
X385377Y84201D01*
X382333Y90365D02*
X379251Y93447D01*
X379251Y84201D01*
X382333Y84201D02*
X376169Y84201D01*
X168783Y219075D02*
X168783Y228321D01*
X164160Y228321D01*
X162619Y226780D01*
X162619Y223698D01*
X164160Y222157D01*
X168783Y222157D01*
X165701Y222157D02*
X162619Y219075D01*
X159575Y228321D02*
X153411Y228321D01*
X159575Y228321D02*
X159575Y223698D01*
X156493Y225239D01*
X154952Y225239D01*
X153411Y223698D01*
X153411Y220616D01*
X154952Y219075D01*
X158034Y219075D01*
X159575Y220616D01*
X330073Y128245D02*
X330073Y118999D01*
X330073Y128245D02*
X325450Y128245D01*
X323909Y126704D01*
X323909Y123622D01*
X325450Y122081D01*
X330073Y122081D01*
X326991Y122081D02*
X323909Y118999D01*
X317783Y126704D02*
X314701Y128245D01*
X317783Y126704D02*
X320865Y123622D01*
X320865Y120540D01*
X319324Y118999D01*
X316242Y118999D01*
X314701Y120540D01*
X314701Y122081D01*
X316242Y123622D01*
X320865Y123622D01*
X329565Y72873D02*
X329565Y63627D01*
X329565Y72873D02*
X324942Y72873D01*
X323401Y71332D01*
X323401Y68250D01*
X324942Y66709D01*
X329565Y66709D01*
X326483Y66709D02*
X323401Y63627D01*
X320357Y72873D02*
X314193Y72873D01*
X314193Y71332D01*
X320357Y65168D01*
X320357Y63627D01*
X456057Y70739D02*
X456057Y79985D01*
X451434Y79985D01*
X449893Y78444D01*
X449893Y75362D01*
X451434Y73821D01*
X456057Y73821D01*
X452975Y73821D02*
X449893Y70739D01*
X446849Y78444D02*
X445308Y79985D01*
X442226Y79985D01*
X440685Y78444D01*
X440685Y76903D01*
X442226Y75362D01*
X440685Y73821D01*
X440685Y72280D01*
X442226Y70739D01*
X445308Y70739D01*
X446849Y72280D01*
X446849Y73821D01*
X445308Y75362D01*
X446849Y76903D01*
X446849Y78444D01*
X445308Y75362D02*
X442226Y75362D01*
X439167Y148623D02*
X439167Y157869D01*
X434544Y157869D01*
X433003Y156328D01*
X433003Y153246D01*
X434544Y151705D01*
X439167Y151705D01*
X436085Y151705D02*
X433003Y148623D01*
X429959Y150164D02*
X428418Y148623D01*
X425336Y148623D01*
X423795Y150164D01*
X423795Y156328D01*
X425336Y157869D01*
X428418Y157869D01*
X429959Y156328D01*
X429959Y154787D01*
X428418Y153246D01*
X423795Y153246D01*
X281305Y35789D02*
X281305Y26543D01*
X281305Y35789D02*
X276682Y35789D01*
X275141Y34248D01*
X275141Y31166D01*
X276682Y29625D01*
X281305Y29625D01*
X278223Y29625D02*
X275141Y26543D01*
X272097Y32707D02*
X269015Y35789D01*
X269015Y26543D01*
X272097Y26543D02*
X265933Y26543D01*
X262889Y32707D02*
X259807Y35789D01*
X259807Y26543D01*
X262889Y26543D02*
X256725Y26543D01*
X262509Y120269D02*
X262509Y129515D01*
X257886Y129515D01*
X256345Y127974D01*
X256345Y124892D01*
X257886Y123351D01*
X262509Y123351D01*
X259427Y123351D02*
X256345Y120269D01*
X253301Y126433D02*
X250219Y129515D01*
X250219Y120269D01*
X253301Y120269D02*
X247137Y120269D01*
X244093Y120269D02*
X237929Y120269D01*
X244093Y120269D02*
X237929Y126433D01*
X237929Y127974D01*
X239470Y129515D01*
X242552Y129515D01*
X244093Y127974D01*
X280289Y189103D02*
X280289Y198349D01*
X275666Y198349D01*
X274125Y196808D01*
X274125Y193726D01*
X275666Y192185D01*
X280289Y192185D01*
X277207Y192185D02*
X274125Y189103D01*
X271081Y195267D02*
X267999Y198349D01*
X267999Y189103D01*
X271081Y189103D02*
X264917Y189103D01*
X261873Y196808D02*
X260332Y198349D01*
X257250Y198349D01*
X255709Y196808D01*
X255709Y195267D01*
X257250Y193726D01*
X258791Y193726D01*
X257250Y193726D02*
X255709Y192185D01*
X255709Y190644D01*
X257250Y189103D01*
X260332Y189103D01*
X261873Y190644D01*
X329311Y237109D02*
X329311Y246355D01*
X324688Y246355D01*
X323147Y244814D01*
X323147Y241732D01*
X324688Y240191D01*
X329311Y240191D01*
X326229Y240191D02*
X323147Y237109D01*
X320103Y243273D02*
X317021Y246355D01*
X317021Y237109D01*
X320103Y237109D02*
X313939Y237109D01*
X306272Y237109D02*
X306272Y246355D01*
X310895Y241732D01*
X304731Y241732D01*
X397383Y239243D02*
X397383Y229997D01*
X397383Y239243D02*
X392760Y239243D01*
X391219Y237702D01*
X391219Y234620D01*
X392760Y233079D01*
X397383Y233079D01*
X394301Y233079D02*
X391219Y229997D01*
X388175Y236161D02*
X385093Y239243D01*
X385093Y229997D01*
X388175Y229997D02*
X382011Y229997D01*
X378967Y239243D02*
X372803Y239243D01*
X378967Y239243D02*
X378967Y234620D01*
X375885Y236161D01*
X374344Y236161D01*
X372803Y234620D01*
X372803Y231538D01*
X374344Y229997D01*
X377426Y229997D01*
X378967Y231538D01*
X464439Y237109D02*
X464439Y246355D01*
X459816Y246355D01*
X458275Y244814D01*
X458275Y241732D01*
X459816Y240191D01*
X464439Y240191D01*
X461357Y240191D02*
X458275Y237109D01*
X455231Y243273D02*
X452149Y246355D01*
X452149Y237109D01*
X455231Y237109D02*
X449067Y237109D01*
X442941Y244814D02*
X439859Y246355D01*
X442941Y244814D02*
X446023Y241732D01*
X446023Y238650D01*
X444482Y237109D01*
X441400Y237109D01*
X439859Y238650D01*
X439859Y240191D01*
X441400Y241732D01*
X446023Y241732D01*
X511937Y196825D02*
X511937Y187579D01*
X511937Y196825D02*
X507314Y196825D01*
X505773Y195284D01*
X505773Y192202D01*
X507314Y190661D01*
X511937Y190661D01*
X508855Y190661D02*
X505773Y187579D01*
X502729Y193743D02*
X499647Y196825D01*
X499647Y187579D01*
X502729Y187579D02*
X496565Y187579D01*
X493521Y196825D02*
X487357Y196825D01*
X487357Y195284D01*
X493521Y189120D01*
X493521Y187579D01*
X532511Y129261D02*
X532511Y120015D01*
X532511Y129261D02*
X527888Y129261D01*
X526347Y127720D01*
X526347Y124638D01*
X527888Y123097D01*
X532511Y123097D01*
X529429Y123097D02*
X526347Y120015D01*
X523303Y126179D02*
X520221Y129261D01*
X520221Y120015D01*
X523303Y120015D02*
X517139Y120015D01*
X514095Y127720D02*
X512554Y129261D01*
X509472Y129261D01*
X507931Y127720D01*
X507931Y126179D01*
X509472Y124638D01*
X507931Y123097D01*
X507931Y121556D01*
X509472Y120015D01*
X512554Y120015D01*
X514095Y121556D01*
X514095Y123097D01*
X512554Y124638D01*
X514095Y126179D01*
X514095Y127720D01*
X512554Y124638D02*
X509472Y124638D01*
X542417Y84557D02*
X542417Y75311D01*
X542417Y84557D02*
X537794Y84557D01*
X536253Y83016D01*
X536253Y79934D01*
X537794Y78393D01*
X542417Y78393D01*
X539335Y78393D02*
X536253Y75311D01*
X533209Y81475D02*
X530127Y84557D01*
X530127Y75311D01*
X533209Y75311D02*
X527045Y75311D01*
X524001Y76852D02*
X522460Y75311D01*
X519378Y75311D01*
X517837Y76852D01*
X517837Y83016D01*
X519378Y84557D01*
X522460Y84557D01*
X524001Y83016D01*
X524001Y81475D01*
X522460Y79934D01*
X517837Y79934D01*
X570357Y83541D02*
X570357Y74295D01*
X570357Y83541D02*
X565734Y83541D01*
X564193Y82000D01*
X564193Y78918D01*
X565734Y77377D01*
X570357Y77377D01*
X567275Y77377D02*
X564193Y74295D01*
X561149Y74295D02*
X554985Y74295D01*
X561149Y74295D02*
X554985Y80459D01*
X554985Y82000D01*
X556526Y83541D01*
X559608Y83541D01*
X561149Y82000D01*
X162053Y194343D02*
X162053Y203589D01*
X157430Y203589D01*
X155889Y202048D01*
X155889Y198966D01*
X157430Y197425D01*
X162053Y197425D01*
X158971Y197425D02*
X155889Y194343D01*
X152845Y202048D02*
X151304Y203589D01*
X148222Y203589D01*
X146681Y202048D01*
X146681Y200507D01*
X148222Y198966D01*
X149763Y198966D01*
X148222Y198966D02*
X146681Y197425D01*
X146681Y195884D01*
X148222Y194343D01*
X151304Y194343D01*
X152845Y195884D01*
X135383Y25789D02*
X135383Y16543D01*
X135383Y25789D02*
X130760Y25789D01*
X129219Y24248D01*
X129219Y21166D01*
X130760Y19625D01*
X135383Y19625D01*
X132301Y19625D02*
X129219Y16543D01*
X121552Y16543D02*
X121552Y25789D01*
X126175Y21166D01*
X120011Y21166D01*
X485775Y102743D02*
X485775Y111989D01*
X481152Y111989D01*
X479611Y110448D01*
X479611Y107366D01*
X481152Y105825D01*
X485775Y105825D01*
X482693Y105825D02*
X479611Y102743D01*
X476567Y102743D02*
X470403Y102743D01*
X476567Y102743D02*
X470403Y108907D01*
X470403Y110448D01*
X471944Y111989D01*
X475026Y111989D01*
X476567Y110448D01*
X467359Y110448D02*
X467359Y104284D01*
X467359Y110448D02*
X465818Y111989D01*
X462736Y111989D01*
X461195Y110448D01*
X461195Y104284D01*
X462736Y102743D01*
X465818Y102743D01*
X467359Y104284D01*
X461195Y110448D01*
X275147Y219743D02*
X275147Y228989D01*
X270524Y228989D01*
X268983Y227448D01*
X268983Y224366D01*
X270524Y222825D01*
X275147Y222825D01*
X272065Y222825D02*
X268983Y219743D01*
X265939Y225907D02*
X262857Y228989D01*
X262857Y219743D01*
X265939Y219743D02*
X259775Y219743D01*
X256731Y221284D02*
X256731Y227448D01*
X255190Y228989D01*
X252108Y228989D01*
X250567Y227448D01*
X250567Y221284D01*
X252108Y219743D01*
X255190Y219743D01*
X256731Y221284D01*
X250567Y227448D01*
X208689Y265027D02*
X208689Y271297D01*
X207121Y272865D01*
X203986Y272865D01*
X202418Y271297D01*
X202418Y265027D01*
X203986Y263459D01*
X207121Y263459D01*
X208689Y265027D01*
X205554Y266594D02*
X202418Y263459D01*
X199334Y272865D02*
X193063Y272865D01*
X199334Y272865D02*
X199334Y268162D01*
X196198Y269730D01*
X194631Y269730D01*
X193063Y268162D01*
X193063Y265027D01*
X194631Y263459D01*
X197766Y263459D01*
X199334Y265027D01*
X703961Y17247D02*
X703961Y8001D01*
X703961Y17247D02*
X699338Y17247D01*
X697797Y15706D01*
X697797Y12624D01*
X699338Y11083D01*
X703961Y11083D01*
X700879Y11083D02*
X697797Y8001D01*
X694753Y8001D02*
X688589Y8001D01*
X694753Y8001D02*
X688589Y14165D01*
X688589Y15706D01*
X690130Y17247D01*
X693212Y17247D01*
X694753Y15706D01*
X685545Y14165D02*
X682463Y17247D01*
X682463Y8001D01*
X685545Y8001D02*
X679381Y8001D01*
X611505Y43561D02*
X611505Y52807D01*
X606882Y52807D01*
X605341Y51266D01*
X605341Y48184D01*
X606882Y46643D01*
X611505Y46643D01*
X608423Y46643D02*
X605341Y43561D01*
X602297Y43561D02*
X596133Y43561D01*
X602297Y43561D02*
X596133Y49725D01*
X596133Y51266D01*
X597674Y52807D01*
X600756Y52807D01*
X602297Y51266D01*
X593089Y43561D02*
X586925Y43561D01*
X593089Y43561D02*
X586925Y49725D01*
X586925Y51266D01*
X588466Y52807D01*
X591548Y52807D01*
X593089Y51266D01*
X684657Y112649D02*
X684657Y121895D01*
X680034Y121895D01*
X678493Y120354D01*
X678493Y117272D01*
X680034Y115731D01*
X684657Y115731D01*
X681575Y115731D02*
X678493Y112649D01*
X675449Y112649D02*
X669285Y112649D01*
X675449Y112649D02*
X669285Y118813D01*
X669285Y120354D01*
X670826Y121895D01*
X673908Y121895D01*
X675449Y120354D01*
X666241Y120354D02*
X664700Y121895D01*
X661618Y121895D01*
X660077Y120354D01*
X660077Y118813D01*
X661618Y117272D01*
X663159Y117272D01*
X661618Y117272D02*
X660077Y115731D01*
X660077Y114190D01*
X661618Y112649D01*
X664700Y112649D01*
X666241Y114190D01*
X684657Y145923D02*
X684657Y155169D01*
X680034Y155169D01*
X678493Y153628D01*
X678493Y150546D01*
X680034Y149005D01*
X684657Y149005D01*
X681575Y149005D02*
X678493Y145923D01*
X675449Y145923D02*
X669285Y145923D01*
X675449Y145923D02*
X669285Y152087D01*
X669285Y153628D01*
X670826Y155169D01*
X673908Y155169D01*
X675449Y153628D01*
X661618Y155169D02*
X661618Y145923D01*
X666241Y150546D02*
X661618Y155169D01*
X660077Y150546D02*
X666241Y150546D01*
X142305Y120023D02*
X142305Y110777D01*
X142305Y120023D02*
X137682Y120023D01*
X136141Y118482D01*
X136141Y115400D01*
X137682Y113859D01*
X142305Y113859D01*
X139223Y113859D02*
X136141Y110777D01*
X133097Y110777D02*
X126933Y110777D01*
X133097Y110777D02*
X126933Y116941D01*
X126933Y118482D01*
X128474Y120023D01*
X131556Y120023D01*
X133097Y118482D01*
X123889Y120023D02*
X117725Y120023D01*
X123889Y120023D02*
X123889Y115400D01*
X120807Y116941D01*
X119266Y116941D01*
X117725Y115400D01*
X117725Y112318D01*
X119266Y110777D01*
X122348Y110777D01*
X123889Y112318D01*
X205551Y122969D02*
X205551Y132215D01*
X200928Y132215D01*
X199387Y130674D01*
X199387Y127592D01*
X200928Y126051D01*
X205551Y126051D01*
X202469Y126051D02*
X199387Y122969D01*
X196343Y122969D02*
X190179Y122969D01*
X196343Y122969D02*
X190179Y129133D01*
X190179Y130674D01*
X191720Y132215D01*
X194802Y132215D01*
X196343Y130674D01*
X184053Y130674D02*
X180971Y132215D01*
X184053Y130674D02*
X187135Y127592D01*
X187135Y124510D01*
X185594Y122969D01*
X182512Y122969D01*
X180971Y124510D01*
X180971Y126051D01*
X182512Y127592D01*
X187135Y127592D01*
X659590Y263743D02*
X661158Y265311D01*
X664293Y265311D01*
X665861Y263743D01*
X665861Y257473D01*
X664293Y255905D01*
X661158Y255905D01*
X659590Y257473D01*
X656506Y265311D02*
X650235Y265311D01*
X656506Y265311D02*
X656506Y260608D01*
X653370Y262176D01*
X651803Y262176D01*
X650235Y260608D01*
X650235Y257473D01*
X651803Y255905D01*
X654938Y255905D01*
X656506Y257473D01*
X631694Y278265D02*
X630126Y276697D01*
X631694Y278265D02*
X634829Y278265D01*
X636397Y276697D01*
X636397Y270427D01*
X634829Y268859D01*
X631694Y268859D01*
X630126Y270427D01*
X623906Y276697D02*
X620771Y278265D01*
X623906Y276697D02*
X627042Y273562D01*
X627042Y270427D01*
X625474Y268859D01*
X622339Y268859D01*
X620771Y270427D01*
X620771Y271994D01*
X622339Y273562D01*
X627042Y273562D01*
X583434Y265311D02*
X581866Y263743D01*
X583434Y265311D02*
X586569Y265311D01*
X588137Y263743D01*
X588137Y257473D01*
X586569Y255905D01*
X583434Y255905D01*
X581866Y257473D01*
X578782Y255905D02*
X572511Y255905D01*
X578782Y255905D02*
X572511Y262176D01*
X572511Y263743D01*
X574079Y265311D01*
X577214Y265311D01*
X578782Y263743D01*
D11*
X581789Y142426D02*
X591534Y142426D01*
X581789Y142426D02*
X579840Y144375D01*
X579840Y148273D01*
X581789Y150222D01*
X591534Y150222D01*
X587636Y154120D02*
X591534Y158018D01*
X579840Y158018D01*
X579840Y154120D02*
X579840Y161916D01*
M02*
