G04 EAGLE Gerber RS-274X export*
G75*
%MOMM*%
%FSLAX34Y34*%
%LPD*%
%INSoldermask Bottom*%
%IPPOS*%
%AMOC8*
5,1,8,0,0,1.08239X$1,22.5*%
G01*
%ADD10C,2.489200*%
%ADD11R,1.103200X1.003200*%
%ADD12C,1.803200*%
%ADD13R,0.965200X2.616200*%
%ADD14C,1.411200*%
%ADD15R,1.203200X1.203200*%
%ADD16R,0.973200X0.623200*%
%ADD17C,0.689375*%
%ADD18R,1.003200X0.803200*%
%ADD19R,0.853200X1.253200*%
%ADD20R,1.003200X1.103200*%
%ADD21R,1.353200X0.473200*%
%ADD22R,0.473200X1.353200*%
%ADD23R,3.800000X3.800000*%


D10*
X45000Y251337D03*
X45000Y45089D03*
X724958Y251337D03*
X724958Y45089D03*
D11*
X397924Y76962D03*
X417924Y86462D03*
X417924Y67462D03*
X371696Y76962D03*
X351696Y67462D03*
X351696Y86462D03*
X373220Y132080D03*
X353220Y122580D03*
X353220Y141580D03*
X396400Y132080D03*
X416400Y141580D03*
X416400Y122580D03*
D12*
X154940Y170180D03*
X154940Y144780D03*
X180340Y170180D03*
X180340Y144780D03*
X129540Y144780D03*
D13*
X181610Y51562D03*
X181610Y90678D03*
X168910Y51562D03*
X168910Y90678D03*
X156210Y51562D03*
X156210Y90678D03*
X143510Y51562D03*
X143510Y90678D03*
X130810Y51562D03*
X130810Y90678D03*
D14*
X39020Y119760D02*
X26940Y119760D01*
X26940Y139760D02*
X39020Y139760D01*
X39020Y159760D02*
X26940Y159760D01*
X26940Y179760D02*
X39020Y179760D01*
D15*
X611632Y243468D03*
X611632Y260468D03*
X352180Y160020D03*
X369180Y160020D03*
X449580Y121530D03*
X449580Y104530D03*
D16*
X243180Y241150D03*
X243180Y247650D03*
X243180Y254150D03*
X224180Y241150D03*
X224180Y247650D03*
X224180Y254150D03*
D17*
X149349Y279249D02*
X140211Y279249D01*
X149349Y279249D02*
X149349Y251611D01*
X140211Y251611D01*
X140211Y279249D01*
X140211Y258160D02*
X149349Y258160D01*
X149349Y264709D02*
X140211Y264709D01*
X140211Y271258D02*
X149349Y271258D01*
X149349Y277807D02*
X140211Y277807D01*
X118869Y279249D02*
X109731Y279249D01*
X118869Y279249D02*
X118869Y251611D01*
X109731Y251611D01*
X109731Y279249D01*
X109731Y258160D02*
X118869Y258160D01*
X118869Y264709D02*
X109731Y264709D01*
X109731Y271258D02*
X118869Y271258D01*
X118869Y277807D02*
X109731Y277807D01*
X363985Y46839D02*
X373123Y46839D01*
X373123Y19201D01*
X363985Y19201D01*
X363985Y46839D01*
X363985Y25750D02*
X373123Y25750D01*
X373123Y32299D02*
X363985Y32299D01*
X363985Y38848D02*
X373123Y38848D01*
X373123Y45397D02*
X363985Y45397D01*
X396751Y46839D02*
X405889Y46839D01*
X405889Y19201D01*
X396751Y19201D01*
X396751Y46839D01*
X396751Y25750D02*
X405889Y25750D01*
X405889Y32299D02*
X396751Y32299D01*
X396751Y38848D02*
X405889Y38848D01*
X405889Y45397D02*
X396751Y45397D01*
D18*
X124040Y237490D03*
X135040Y237490D03*
D19*
X474390Y60120D03*
X495890Y60120D03*
X474390Y18620D03*
X495890Y18620D03*
X579710Y18620D03*
X558210Y18620D03*
X579710Y60120D03*
X558210Y60120D03*
X662260Y18620D03*
X640760Y18620D03*
X662260Y60120D03*
X640760Y60120D03*
D15*
X384810Y55762D03*
X384810Y72762D03*
X193920Y223520D03*
X176920Y223520D03*
X337820Y123580D03*
X337820Y140580D03*
X337820Y50682D03*
X337820Y67682D03*
X432816Y57794D03*
X432816Y74794D03*
X431800Y140580D03*
X431800Y123580D03*
X276470Y44450D03*
X259470Y44450D03*
X258690Y111760D03*
X241690Y111760D03*
X276470Y180340D03*
X259470Y180340D03*
X326000Y228600D03*
X309000Y228600D03*
X393310Y247650D03*
X376310Y247650D03*
X461890Y228600D03*
X444890Y228600D03*
X510150Y179070D03*
X493150Y179070D03*
X529200Y111760D03*
X512200Y111760D03*
X510404Y80010D03*
X493404Y80010D03*
X595240Y78740D03*
X578240Y78740D03*
X121040Y199390D03*
X138040Y199390D03*
X143392Y22606D03*
X160392Y22606D03*
X474472Y78114D03*
X474472Y95114D03*
D12*
X525526Y232156D03*
D15*
X225180Y224790D03*
X242180Y224790D03*
D20*
X185420Y262730D03*
X194920Y242730D03*
X175920Y242730D03*
D17*
X722781Y121409D02*
X722781Y112271D01*
X722781Y121409D02*
X750419Y121409D01*
X750419Y112271D01*
X722781Y112271D01*
X722781Y118820D02*
X750419Y118820D01*
X722781Y145291D02*
X722781Y154429D01*
X750419Y154429D01*
X750419Y145291D01*
X722781Y145291D01*
X722781Y151840D02*
X750419Y151840D01*
X722781Y178311D02*
X722781Y187449D01*
X750419Y187449D01*
X750419Y178311D01*
X722781Y178311D01*
X722781Y184860D02*
X750419Y184860D01*
D12*
X550926Y232156D03*
X550926Y257556D03*
D15*
X674878Y18424D03*
X674878Y35424D03*
X592582Y18170D03*
X592582Y35170D03*
X709540Y116840D03*
X692540Y116840D03*
X709540Y149860D03*
X692540Y149860D03*
X150250Y115570D03*
X167250Y115570D03*
X184540Y115570D03*
X201540Y115570D03*
X642112Y243468D03*
X642112Y260468D03*
X626872Y243468D03*
X626872Y260468D03*
X596392Y243468D03*
X596392Y260468D03*
D21*
X646760Y169444D03*
X646760Y174444D03*
X646760Y179444D03*
X646760Y184444D03*
X646760Y189444D03*
X646760Y194444D03*
X646760Y199444D03*
X646760Y204444D03*
D22*
X637260Y213944D03*
X632260Y213944D03*
X627260Y213944D03*
X622260Y213944D03*
X617260Y213944D03*
X612260Y213944D03*
X607260Y213944D03*
X602260Y213944D03*
D21*
X592760Y204444D03*
X592760Y199444D03*
X592760Y194444D03*
X592760Y189444D03*
X592760Y184444D03*
X592760Y179444D03*
X592760Y174444D03*
X592760Y169444D03*
D22*
X602260Y159944D03*
X607260Y159944D03*
X612260Y159944D03*
X617260Y159944D03*
X622260Y159944D03*
X627260Y159944D03*
X632260Y159944D03*
X637260Y159944D03*
D23*
X619760Y186944D03*
M02*
