G04 EAGLE Gerber RS-274X export*
G75*
%MOMM*%
%FSLAX34Y34*%
%LPD*%
%INSolderpaste Bottom*%
%IPPOS*%
%AMOC8*
5,1,8,0,0,1.08239X$1,22.5*%
G01*
%ADD10R,0.900000X0.800000*%
%ADD11R,0.762000X2.413000*%
%ADD12R,1.000000X1.000000*%
%ADD13R,0.770000X0.420000*%
%ADD14R,0.800000X0.600000*%
%ADD15R,0.650000X1.050000*%
%ADD16R,0.800000X0.900000*%
%ADD17R,1.150000X0.270000*%
%ADD18R,0.270000X1.150000*%
%ADD19C,0.600000*%


D10*
X397924Y76962D03*
X417924Y86462D03*
X417924Y67462D03*
X371696Y76962D03*
X351696Y67462D03*
X351696Y86462D03*
X373220Y132080D03*
X353220Y122580D03*
X353220Y141580D03*
X396400Y132080D03*
X416400Y141580D03*
X416400Y122580D03*
D11*
X181610Y51562D03*
X181610Y90678D03*
X168910Y51562D03*
X168910Y90678D03*
X156210Y51562D03*
X156210Y90678D03*
X143510Y51562D03*
X143510Y90678D03*
X130810Y51562D03*
X130810Y90678D03*
D12*
X611632Y243468D03*
X611632Y260468D03*
X352180Y160020D03*
X369180Y160020D03*
X449580Y121530D03*
X449580Y104530D03*
D13*
X243180Y241150D03*
X243180Y247650D03*
X243180Y254150D03*
X224180Y241150D03*
X224180Y247650D03*
X224180Y254150D03*
D14*
X124040Y237490D03*
X135040Y237490D03*
D15*
X474390Y60120D03*
X495890Y60120D03*
X474390Y18620D03*
X495890Y18620D03*
X579710Y18620D03*
X558210Y18620D03*
X579710Y60120D03*
X558210Y60120D03*
X662260Y18620D03*
X640760Y18620D03*
X662260Y60120D03*
X640760Y60120D03*
D12*
X384810Y55762D03*
X384810Y72762D03*
X193920Y223520D03*
X176920Y223520D03*
X337820Y123580D03*
X337820Y140580D03*
X337820Y50682D03*
X337820Y67682D03*
X432816Y57794D03*
X432816Y74794D03*
X431800Y140580D03*
X431800Y123580D03*
X276470Y44450D03*
X259470Y44450D03*
X258690Y111760D03*
X241690Y111760D03*
X276470Y180340D03*
X259470Y180340D03*
X326000Y228600D03*
X309000Y228600D03*
X393310Y247650D03*
X376310Y247650D03*
X461890Y228600D03*
X444890Y228600D03*
X510150Y179070D03*
X493150Y179070D03*
X529200Y111760D03*
X512200Y111760D03*
X510404Y80010D03*
X493404Y80010D03*
X595240Y78740D03*
X578240Y78740D03*
X121040Y199390D03*
X138040Y199390D03*
X143392Y22606D03*
X160392Y22606D03*
X474472Y78114D03*
X474472Y95114D03*
X225180Y224790D03*
X242180Y224790D03*
D16*
X185420Y262730D03*
X194920Y242730D03*
X175920Y242730D03*
D12*
X674878Y18424D03*
X674878Y35424D03*
X592582Y18170D03*
X592582Y35170D03*
X709540Y116840D03*
X692540Y116840D03*
X709540Y149860D03*
X692540Y149860D03*
X150250Y115570D03*
X167250Y115570D03*
X184540Y115570D03*
X201540Y115570D03*
X642112Y243468D03*
X642112Y260468D03*
X626872Y243468D03*
X626872Y260468D03*
X596392Y243468D03*
X596392Y260468D03*
D17*
X646760Y169444D03*
X646760Y174444D03*
X646760Y179444D03*
X646760Y184444D03*
X646760Y189444D03*
X646760Y194444D03*
X646760Y199444D03*
X646760Y204444D03*
D18*
X637260Y213944D03*
X632260Y213944D03*
X627260Y213944D03*
X622260Y213944D03*
X617260Y213944D03*
X612260Y213944D03*
X607260Y213944D03*
X602260Y213944D03*
D17*
X592760Y204444D03*
X592760Y199444D03*
X592760Y194444D03*
X592760Y189444D03*
X592760Y184444D03*
X592760Y179444D03*
X592760Y174444D03*
X592760Y169444D03*
D18*
X602260Y159944D03*
X607260Y159944D03*
X612260Y159944D03*
X617260Y159944D03*
X622260Y159944D03*
X627260Y159944D03*
X632260Y159944D03*
X637260Y159944D03*
D19*
X630760Y175944D03*
X630760Y186944D03*
X630760Y197944D03*
X619760Y186944D03*
X619760Y175944D03*
X619760Y196944D03*
X608760Y175944D03*
X608760Y186944D03*
X608760Y197944D03*
M02*
